if (_typeface_js && _typeface_js.loadFace) _typeface_js.loadFace({"glyphs":{"¦":{"x_min":75,"x_max":124,"ha":185,"o":"m 124 454 l 124 0 l 75 0 l 75 454 l 124 454 m 75 605 l 75 1049 l 124 1049 l 124 605 l 75 605 "},"Á":{"x_min":26,"x_max":1281,"ha":1074,"o":"m 846 840 l 719 876 q 598 893 653 893 q 297 769 419 893 q 192 543 192 659 q 216 461 192 494 q 293 431 243 431 q 455 555 390 431 q 508 764 508 661 l 509 776 l 512 776 q 538 658 538 729 q 486 493 538 559 q 297 414 423 414 q 204 448 237 414 q 174 543 174 486 q 287 787 174 673 q 628 919 422 919 q 664 917 640 919 q 721 912 687 916 q 768 911 754 912 q 872 897 782 909 l 993 886 l 1099 881 q 1203 895 1164 881 q 1281 954 1243 910 q 1215 847 1260 887 q 1076 795 1160 795 q 1024 797 1040 795 q 974 806 1007 799 l 846 840 m 711 439 q 662 279 687 333 q 544 104 616 169 q 210 -8 412 -8 q 70 25 119 -8 q 26 111 26 58 q 103 232 26 187 q 175 261 138 251 q 257 271 211 271 q 271 265 268 268 l 263 261 q 121 226 182 261 q 48 114 48 184 q 86 42 48 72 q 200 13 124 13 q 416 119 326 13 q 542 358 481 197 l 615 550 q 694 694 655 650 q 730 730 709 711 q 769 763 751 750 q 838 800 795 783 l 845 801 l 844 795 q 759 639 797 761 l 718 468 q 774 487 748 480 q 818 496 800 493 q 856 499 837 499 q 977 458 929 499 q 1040 316 1040 408 q 966 101 1040 204 q 752 -17 880 -17 q 666 8 693 -17 q 639 77 639 34 q 684 218 639 154 q 793 295 729 283 q 699 213 739 279 q 660 79 660 147 q 673 26 660 48 q 722 7 689 7 q 884 166 816 7 q 939 385 939 294 q 845 474 939 474 q 773 464 806 474 q 711 439 740 455 "},"е":{"x_min":-5,"x_max":400.5625,"ha":390,"o":"m 383 359 q 344 282 383 329 q 255 213 306 236 q 232 205 241 208 q 196 195 223 202 l 135 187 l 113 131 q 106 74 106 99 q 119 23 106 42 q 164 4 132 4 q 293 65 228 4 q 383 181 328 99 l 393 192 l 400 181 l 395 168 q 301 49 338 85 q 167 -13 239 -13 q 42 28 89 -13 q -5 145 -5 70 q 77 319 -5 238 q 306 410 170 410 q 383 359 383 410 m 144 205 q 191 209 169 205 q 223 218 213 214 q 251 230 234 221 q 330 293 296 252 q 365 362 365 334 q 326 393 365 393 q 293 385 310 393 q 251 353 276 377 q 189 280 226 328 q 144 205 160 238 "},"Î":{"x_min":76,"x_max":833,"ha":682,"o":"m 819 798 q 795 864 819 836 q 705 900 766 900 q 463 793 568 900 q 282 499 371 701 q 204 290 236 391 q 173 119 173 190 q 194 32 173 62 q 268 3 216 3 q 475 115 368 3 q 652 443 589 237 l 685 576 q 702 697 702 647 q 688 766 702 740 q 642 793 674 793 q 424 577 526 793 q 332 196 332 376 l 332 164 q 326 142 332 143 l 323 147 l 319 165 l 319 204 q 342 400 319 304 q 417 598 366 496 q 645 810 521 810 q 714 776 691 810 q 737 687 737 740 q 723 576 737 637 l 689 440 q 520 127 634 258 q 271 -14 396 -14 q 121 60 174 -14 q 76 241 76 127 q 93 381 76 306 q 137 513 110 456 q 330 774 212 672 q 541 890 427 854 q 699 917 628 917 q 803 879 767 917 q 833 801 833 848 l 828 770 q 821 755 827 761 l 817 752 l 813 759 l 814 770 q 819 798 819 781 "},"e":{"x_min":-5,"x_max":372.78125,"ha":363,"o":"m 238 200 q 179 179 208 186 l 125 175 l 106 120 l 99 70 q 111 22 99 42 q 153 4 125 4 q 272 60 214 4 q 357 171 310 96 l 365 178 l 372 171 l 370 161 q 331 107 340 119 q 304 73 313 83 q 156 -11 232 -11 q 32 33 76 -11 q -5 134 -5 71 q 81 306 -5 232 q 285 381 167 381 q 356 335 356 381 q 320 263 356 304 q 238 200 285 222 m 232 214 q 307 271 275 233 q 339 334 339 309 q 300 364 339 364 q 217 313 266 364 q 134 192 168 262 l 150 192 q 181 196 158 192 q 232 214 203 200 "},"»":{"x_min":107,"x_max":547,"ha":588,"o":"m 352 487 l 359 494 l 363 494 q 384 481 376 489 q 490 377 434 439 q 547 299 547 315 q 444 204 547 281 l 319 116 l 305 108 l 301 108 l 294 114 q 312 138 294 124 q 412 226 358 170 q 468 295 466 281 q 422 384 468 310 q 368 459 397 424 q 352 487 355 474 m 165 487 l 173 494 l 180 494 l 198 482 q 300 380 241 444 q 360 299 360 316 q 296 233 360 285 l 133 116 l 119 108 l 115 108 l 107 114 q 125 138 107 121 q 225 224 171 167 q 281 295 279 281 q 248 362 281 310 q 180 459 219 414 q 165 487 168 475 "},"Ѓ":{"x_min":26,"x_max":1376,"ha":856,"o":"m 960 1059 q 992 1078 973 1076 q 1021 1065 1009 1078 q 1034 1036 1034 1052 q 1014 1007 1034 1015 l 952 973 l 898 945 l 887 940 l 881 945 l 888 958 l 960 1059 m 877 825 q 842 833 857 829 q 798 848 827 837 q 627 879 684 879 q 320 762 443 879 q 216 543 216 662 q 242 462 216 493 q 320 431 268 431 q 480 546 416 431 q 532 752 532 644 l 534 776 l 537 776 q 563 658 563 729 q 510 493 563 559 q 321 414 448 414 q 228 448 261 414 q 198 543 198 486 q 314 789 198 674 q 652 919 448 919 q 785 911 702 919 q 834 906 799 911 q 916 895 870 902 l 1080 881 l 1145 881 q 1209 885 1180 881 q 1269 900 1238 889 q 1376 954 1323 918 q 1346 908 1367 933 q 1285 848 1319 873 q 1251 827 1270 836 q 1206 808 1232 818 q 1155 799 1185 803 q 1092 795 1125 795 q 995 799 1038 795 q 877 825 952 804 m 26 122 q 92 229 26 187 q 257 271 159 271 l 275 263 l 278 263 l 270 261 q 115 224 182 261 q 48 122 48 187 q 88 44 48 76 q 200 13 128 13 q 381 79 299 13 q 565 377 472 155 l 640 561 q 719 695 679 650 q 794 765 759 740 q 869 801 830 791 l 869 797 q 776 630 817 759 l 698 376 q 544 105 638 193 q 210 -8 421 -8 q 73 29 123 -8 q 26 122 26 68 "},"ў":{"x_min":-101,"x_max":650.390625,"ha":638,"o":"m 277 640 q 287 669 277 657 q 317 681 297 681 q 355 639 355 681 q 336 599 355 618 q 434 563 376 563 q 539 595 490 563 q 530 629 532 607 q 542 665 530 649 q 574 681 554 681 q 600 669 589 681 q 613 639 613 661 q 600 608 613 625 q 564 578 588 591 q 497 548 528 558 q 433 539 467 539 q 315 577 371 539 q 277 640 277 608 m 180 31 q 201 6 180 6 q 341 121 240 6 l 419 219 l 510 396 l 621 408 l 403 -16 q 541 73 481 14 q 632 184 582 112 q 643 193 639 191 l 650 186 l 643 172 q 551 59 596 101 q 395 -38 490 1 l 278 -268 q 169 -383 242 -343 q 16 -424 97 -424 q -68 -394 -35 -424 q -101 -315 -101 -365 q 29 -145 -101 -225 q 277 -51 131 -84 l 380 147 q 291 41 330 76 q 186 -13 234 -13 q 112 7 141 -13 q 87 76 87 28 q 107 172 87 122 q 153 266 126 222 l 187 325 q 205 366 204 353 q 187 379 205 379 q 69 261 157 379 l -2 162 l -12 158 l -19 164 l -16 171 l 124 358 q 158 383 139 373 q 203 396 176 393 q 262 375 235 396 q 290 312 290 355 q 240 163 290 259 l 200 93 l 186 61 l 180 31 m 272 -70 q 23 -193 115 -112 q -51 -329 -51 -260 q -31 -384 -51 -364 q 15 -405 -14 -405 q 94 -373 58 -405 q 175 -255 129 -342 l 272 -70 "},"ò":{"x_min":-11.0625,"x_max":837.171875,"ha":828,"o":"m 424 411 q 497 384 470 411 q 517 330 517 361 l 515 306 q 578 376 545 345 q 655 411 621 411 q 708 387 688 411 q 727 327 727 363 q 714 261 727 296 q 673 186 701 225 q 627 108 645 147 q 610 47 610 69 q 646 14 610 14 q 749 93 684 14 l 817 184 l 831 196 l 837 187 l 830 171 q 794 119 812 143 q 763 78 777 96 q 630 -8 694 -8 q 555 10 582 -8 q 528 72 528 28 q 551 163 528 111 l 632 305 q 662 376 662 356 q 646 392 662 390 q 563 335 617 392 q 475 222 517 285 l 362 0 l 256 0 l 423 326 l 433 348 l 437 372 q 417 392 437 390 q 359 357 394 392 q 326 318 351 348 q 263 237 302 289 l 142 0 l 33 0 l 209 332 l 219 354 l 224 374 q 209 386 224 384 q 91 291 168 386 l 4 173 l -2 169 l -11 176 l -6 183 l 115 345 q 222 411 177 411 q 279 387 259 411 q 298 331 298 363 l 295 309 q 351 374 327 352 q 424 411 390 411 "},"^":{"x_min":100,"x_max":283.328125,"ha":361,"o":"m 104 456 l 100 460 q 106 481 104 475 l 168 594 q 225 684 218 682 q 231 664 229 672 q 251 601 243 632 l 280 477 l 283 461 l 280 456 l 277 456 l 266 471 l 215 611 l 120 472 l 109 460 l 104 456 "},"«":{"x_min":28,"x_max":468.28125,"ha":528,"o":"m 222 106 l 215 100 l 211 100 q 190 112 198 104 q 89 211 150 145 q 28 294 29 276 q 131 388 28 311 l 256 477 l 267 485 l 274 485 l 280 479 q 262 455 280 469 q 161 368 216 425 q 107 298 107 312 q 152 209 107 283 q 207 134 177 170 q 222 106 219 119 m 409 106 l 401 100 l 394 100 l 376 111 q 276 213 336 146 q 216 295 216 279 q 279 359 216 307 l 441 477 l 454 485 l 459 485 l 468 479 q 450 455 468 472 q 350 369 405 428 q 295 298 295 311 q 326 230 295 284 q 394 134 358 176 q 409 106 407 118 "},"∙":{"x_min":158,"x_max":265,"ha":376,"o":"m 265 303 q 249 261 265 280 q 206 242 233 242 q 171 255 184 242 q 158 290 158 268 q 173 333 158 315 q 216 352 189 352 q 251 338 238 352 q 265 303 265 325 "},"к":{"x_min":-22.921875,"x_max":533,"ha":517,"o":"m 82 0 l -22 0 l 165 370 l 99 294 q 4 170 46 229 l 0 165 q -10 173 -4 165 l -4 184 q 45 253 18 219 q 111 332 72 287 l 178 407 l 190 419 l 302 432 l 82 0 m 533 377 q 521 347 533 359 q 492 336 510 336 q 461 345 474 336 q 450 376 452 353 l 454 399 q 414 338 433 395 q 389 293 403 306 q 353 276 375 280 q 395 199 395 255 q 389 161 395 177 l 372 120 q 353 58 353 86 q 371 35 353 36 q 454 100 404 35 l 515 187 l 522 194 l 526 196 l 533 190 l 533 184 l 526 173 q 417 35 464 79 q 330 -8 370 -8 q 274 10 292 -8 q 259 61 259 28 q 271 132 259 94 q 309 195 284 169 l 335 226 q 343 251 341 238 q 335 272 343 263 l 304 266 l 290 265 q 239 285 241 265 q 280 308 239 308 q 312 301 297 308 l 339 286 q 403 344 383 286 q 413 371 408 360 q 424 389 418 381 q 447 408 429 398 q 488 419 464 419 q 521 406 509 419 q 533 377 530 395 "},"":{"x_min":141,"x_max":1263.28125,"ha":1094,"o":"m 824 276 l 1132 890 l 1263 900 l 895 173 q 860 60 860 103 q 904 12 860 12 q 1001 73 944 12 q 1089 187 1040 117 l 1097 195 l 1102 197 l 1107 190 q 1102 173 1107 180 q 1015 61 1049 95 q 891 -7 948 -7 q 797 21 823 -7 q 772 97 772 50 q 772 133 772 122 l 783 171 q 679 41 736 90 q 571 -7 622 -7 q 445 40 487 -7 q 409 155 409 83 q 413 204 409 179 q 428 262 417 229 q 495 411 446 319 q 554 513 518 455 q 635 643 589 572 q 681 793 681 715 q 644 897 681 855 q 533 939 607 939 q 263 806 378 939 q 159 559 159 687 q 188 465 159 501 q 279 429 218 429 q 429 559 371 429 q 477 770 477 666 l 475 798 l 481 809 l 481 814 l 486 809 l 493 791 q 509 672 509 734 q 458 492 509 560 q 278 412 397 412 q 175 453 209 412 q 141 560 141 494 q 247 818 141 694 q 532 956 367 956 q 717 885 652 956 q 761 810 746 851 q 777 715 777 769 q 770 641 777 677 q 733 539 763 605 q 661 398 704 473 l 550 212 q 509 82 509 141 q 571 12 509 12 q 753 157 646 12 q 824 276 792 212 m 542 -52 q 550 -40 545 -44 l 557 -36 l 563 -45 q 559 -62 560 -55 q 543 -111 553 -80 l 527 -162 l 607 -133 l 614 -132 l 621 -140 l 614 -147 l 572 -165 l 521 -186 q 401 -358 462 -358 q 360 -313 360 -358 q 410 -223 360 -265 q 506 -169 439 -201 l 542 -52 m 379 -311 q 402 -341 379 -341 q 449 -311 429 -341 q 500 -194 469 -282 q 408 -248 432 -226 q 379 -311 379 -278 "},"í":{"x_min":-8,"x_max":607,"ha":596,"o":"m 252 194 l 151 0 l 42 0 l 212 325 q 223 364 221 345 q 192 392 223 392 q 73 273 161 392 l 12 183 l 0 175 l -3 174 l -8 178 l -2 192 l 62 287 q 121 364 97 339 q 162 400 146 390 q 217 414 187 414 q 275 385 254 414 q 296 316 296 356 q 280 253 296 278 l 261 219 l 342 219 l 443 395 l 553 404 l 382 79 q 373 41 373 59 q 380 15 373 26 q 403 6 388 7 q 512 79 451 6 q 586 181 533 104 l 595 190 l 600 193 l 607 186 l 600 173 q 565 120 582 144 q 529 75 548 97 q 401 -8 458 -8 q 326 21 351 -8 q 301 91 301 50 q 309 142 301 119 q 333 194 316 164 l 252 194 "},"µ":{"x_min":1.015625,"x_max":522.21875,"ha":625,"o":"m 463 11 q 448 0 456 1 l 394 0 q 379 6 386 0 l 376 11 l 390 119 l 387 122 q 310 34 349 62 q 199 0 260 0 q 155 6 174 0 q 119 40 135 13 l 94 -213 q 80 -224 87 -221 l 19 -224 q 3 -218 10 -224 l 1 -213 l 77 576 q 92 588 84 586 l 152 588 q 168 580 161 588 l 170 576 l 138 237 l 136 208 q 161 120 136 151 q 229 90 186 90 q 355 165 305 90 q 400 306 392 223 l 428 576 q 442 588 435 585 l 504 588 q 519 580 512 588 l 522 576 l 463 11 "},"’":{"x_min":204.171875,"x_max":379,"ha":381,"o":"m 294 780 q 304 815 294 801 q 338 831 314 828 q 379 786 379 831 q 373 751 379 766 q 316 684 362 722 l 237 627 l 204 609 l 213 619 l 266 658 q 315 722 315 696 l 309 737 q 294 780 294 757 "},"-":{"x_min":25,"x_max":330.5625,"ha":353,"o":"m 283 251 q 319 258 305 251 l 325 260 l 330 255 l 325 247 q 275 224 308 234 q 220 215 241 215 l 183 216 l 154 226 q 75 240 116 240 l 38 236 l 33 235 l 25 239 l 33 246 q 94 268 69 261 l 137 275 q 175 273 163 275 q 202 263 186 272 l 240 255 l 283 251 "},"ѕ":{"x_min":-22,"x_max":340.5,"ha":326,"o":"m 4 172 q -2 164 0 165 l -12 170 l -6 182 l 46 258 l 144 395 q 159 428 148 416 q 186 444 171 441 q 211 421 211 444 q 189 394 211 399 q 161 382 168 392 q 226 285 197 337 q 266 146 266 208 q 260 97 266 117 l 296 144 q 316 174 315 172 q 325 193 317 176 l 334 200 l 340 193 l 336 176 q 248 58 291 102 q 108 -15 178 -15 q 3 10 36 -15 q -22 66 -22 29 q -8 102 -22 87 q 23 117 5 117 q 50 105 39 117 q 63 82 63 97 q 50 51 63 64 q 12 35 37 39 l 7 30 q 13 22 9 26 q 29 12 16 18 q 57 6 41 6 q 107 33 90 6 q 144 135 123 60 q 155 189 151 159 q 159 252 159 219 q 146 362 159 325 l 4 172 "},"Q":{"x_min":25,"x_max":840,"ha":800,"o":"m 25 60 q 74 128 25 100 q 213 155 127 155 q 340 138 278 155 q 377 127 358 134 q 419 108 396 120 q 655 412 578 240 q 712 683 712 543 q 686 784 712 746 q 609 823 660 823 q 345 693 461 823 q 241 456 241 576 q 266 381 241 410 q 342 352 291 352 q 486 463 426 352 q 536 657 536 560 l 534 677 l 536 690 l 538 690 q 559 578 559 647 q 513 414 559 480 q 342 333 456 333 q 252 366 285 333 q 222 458 222 401 q 331 707 222 583 q 610 842 453 842 q 787 772 727 842 q 840 611 840 711 q 767 377 840 488 q 458 95 677 233 q 531 79 484 87 q 623 71 578 71 q 730 97 691 71 q 796 174 759 116 l 806 183 l 812 186 l 815 181 l 809 165 q 697 31 730 55 q 541 -14 630 -14 q 437 2 491 -14 q 355 39 401 13 l 269 1 q 180 -14 223 -14 q 61 4 98 -14 q 25 60 25 23 m 40 60 q 178 1 40 1 q 243 13 206 1 q 292 31 280 25 q 331 51 305 37 l 248 95 q 149 122 191 122 q 71 105 102 122 q 40 60 40 89 "},"Ш":{"x_min":222,"x_max":1709.4375,"ha":1532,"o":"m 1270 276 l 1580 890 l 1709 900 l 1342 173 q 1308 61 1308 103 q 1351 13 1308 13 q 1449 81 1389 13 q 1530 191 1477 113 l 1538 198 l 1542 200 l 1549 193 q 1544 176 1549 183 l 1490 96 q 1340 -8 1410 -8 q 1249 22 1279 -8 q 1225 102 1225 51 q 1227 147 1225 133 q 1230 167 1229 161 q 1238 193 1231 173 q 1138 82 1219 154 q 973 -8 1037 -8 q 877 28 905 -8 q 855 105 855 57 q 855 141 855 127 l 863 171 q 791 71 836 122 q 652 -8 717 -8 q 526 39 569 -8 q 490 154 490 82 q 616 479 490 271 l 703 622 q 762 793 762 726 q 725 897 762 855 q 614 939 688 939 q 344 807 459 939 q 240 560 240 687 q 269 466 240 502 q 360 430 299 430 q 510 560 452 430 q 558 771 558 667 l 556 793 l 556 798 l 562 809 l 562 814 l 567 809 l 574 791 q 590 673 590 734 q 539 493 590 561 q 359 413 478 413 q 256 453 290 413 q 222 561 222 494 q 328 818 222 694 q 613 956 448 956 q 798 883 731 956 q 858 714 858 815 q 833 588 858 657 q 758 423 808 519 l 653 252 q 590 82 590 141 q 652 13 590 13 q 799 116 714 13 q 903 276 863 192 l 1213 890 l 1344 900 l 976 173 q 941 61 941 103 q 985 13 941 13 q 1130 108 1027 13 q 1270 276 1234 203 "},"M":{"x_min":21,"x_max":1215.828125,"ha":1199,"o":"m 633 36 q 650 11 633 11 q 740 152 673 11 l 871 433 q 1051 721 948 597 q 1122 798 1087 763 q 1187 855 1157 832 q 1121 659 1158 791 l 1054 407 l 1015 241 q 995 94 995 145 q 1043 11 995 11 q 1146 96 1086 11 l 1199 181 l 1207 189 l 1215 181 l 1213 171 q 1135 48 1160 79 q 1033 -8 1089 -8 q 929 41 967 -8 q 895 179 895 94 q 897 233 895 216 q 905 282 899 250 q 919 344 911 315 q 937 405 926 373 q 1037 631 980 529 q 1143 794 1076 704 q 1012 644 1082 741 q 886 423 950 552 l 786 212 q 708 53 729 85 q 643 -8 671 -8 q 576 21 600 -8 q 555 106 555 50 q 633 411 555 226 q 758 653 686 539 q 807 726 782 692 q 865 801 832 760 q 797 731 836 776 l 675 586 q 511 330 614 509 q 355 89 409 151 q 164 -15 265 -15 q 62 20 104 -15 q 21 117 21 56 q 45 180 21 156 q 107 205 69 205 q 165 181 146 205 q 188 121 188 159 q 161 60 188 84 q 82 36 135 36 q 165 3 111 3 q 415 201 292 3 l 664 598 q 778 734 724 673 q 906 855 846 809 l 756 405 l 701 253 q 633 36 633 78 "},"ј":{"x_min":-440,"x_max":339,"ha":301,"o":"m 131 344 l 7 174 l 0 166 l -3 165 l -10 173 l -3 187 l 68 291 l 144 395 l 265 402 l 53 -17 l 108 0 q 157 24 130 6 q 218 78 195 52 q 297 185 240 103 q 309 194 300 194 l 315 187 l 311 174 q 187 25 244 68 q 43 -36 136 -11 l 1 -122 l -52 -225 q -185 -363 -99 -307 q -344 -420 -271 -420 q -413 -400 -387 -420 q -440 -339 -440 -381 q -415 -261 -440 -300 q -341 -190 -390 -222 q -175 -97 -283 -151 l -66 -45 l 131 344 m 292 619 q 326 605 313 619 q 339 570 339 592 q 322 527 339 546 q 276 508 306 508 q 238 521 251 508 q 226 553 226 534 q 243 599 226 580 q 292 619 260 619 m -76 -71 l -169 -115 q -294 -186 -230 -144 q -370 -267 -340 -217 q -400 -359 -400 -317 q -352 -405 -400 -405 q -247 -352 -301 -405 q -163 -243 -208 -314 l -110 -139 l -76 -71 "},"œ":{"x_min":-8,"x_max":703,"ha":739,"o":"m 252 194 l 151 0 l 42 0 l 212 325 q 223 364 221 345 q 192 392 223 392 q 73 273 161 392 l 12 183 l 0 175 l -3 174 l -8 178 l -2 192 l 62 287 q 121 364 97 339 q 162 400 146 390 q 217 414 187 414 q 275 385 254 414 q 296 315 296 356 q 293 280 296 289 l 276 244 l 261 219 l 343 219 l 443 395 l 552 404 l 480 275 l 519 290 q 562 297 533 294 q 661 260 619 297 q 703 162 703 223 q 654 48 703 98 q 480 -14 593 -14 q 357 21 401 -14 q 314 114 314 56 q 333 194 314 151 l 252 194 m 410 92 q 431 28 410 54 q 485 3 453 3 q 588 73 542 3 q 617 137 607 107 q 627 202 627 167 q 611 254 627 235 q 547 280 592 280 q 501 270 522 280 l 468 252 l 425 154 q 410 92 410 115 "},"{":{"x_min":-14,"x_max":570.71875,"ha":321,"o":"m 570 896 q 537 887 570 887 q 447 873 474 887 q 379 813 420 860 q 312 677 340 766 q 264 534 276 556 q 203 466 241 484 q 157 454 186 459 q 99 448 129 448 q 165 415 140 440 q 190 349 190 391 q 166 247 190 298 q 144 205 158 227 q 113 158 131 183 l 60 79 q 37 1 37 36 q 57 -59 37 -43 q 140 -82 78 -75 q 172 -93 172 -82 q 131 -103 172 -103 q 30 -79 63 -103 q -14 17 -14 -50 q 11 109 -14 60 q 68 195 22 131 l 120 280 q 146 373 146 330 q 132 409 146 395 q 60 446 118 423 q 146 478 109 455 q 205 542 183 502 q 259 695 216 566 q 337 838 291 789 q 415 893 377 878 q 498 908 454 908 l 536 908 q 570 896 570 908 "},"¼":{"x_min":-440,"x_max":339,"ha":301,"o":"m 131 344 l 7 174 l 0 166 l -3 165 l -10 173 l -3 187 l 68 291 l 144 395 l 265 402 l 53 -17 l 108 0 q 157 24 130 6 q 218 78 195 52 q 297 185 240 103 q 309 194 300 194 l 315 187 l 311 174 q 187 25 244 68 q 43 -36 136 -11 l 1 -122 l -52 -225 q -185 -363 -99 -307 q -344 -420 -271 -420 q -413 -400 -387 -420 q -440 -339 -440 -381 q -415 -261 -440 -300 q -341 -190 -390 -222 q -175 -97 -283 -151 l -66 -45 l 131 344 m 292 619 q 326 605 313 619 q 339 570 339 592 q 322 527 339 546 q 276 508 306 508 q 238 521 251 508 q 226 553 226 534 q 243 599 226 580 q 292 619 260 619 m -76 -71 l -169 -115 q -294 -186 -230 -144 q -370 -267 -340 -217 q -400 -359 -400 -317 q -352 -405 -400 -405 q -247 -352 -301 -405 q -163 -243 -208 -314 l -110 -139 l -76 -71 "},"#":{"x_min":29.5625,"x_max":457.328125,"ha":461,"o":"m 224 444 l 337 444 l 394 559 l 401 568 q 415 559 414 569 l 412 547 l 361 444 l 442 444 q 457 435 454 444 q 439 423 457 423 l 351 423 l 296 316 l 380 316 q 394 307 392 316 q 374 297 394 299 l 285 297 l 225 179 l 218 169 l 214 169 q 203 179 205 169 l 205 187 l 262 297 l 149 297 l 92 185 q 83 179 86 180 l 79 175 l 71 179 l 72 193 l 124 297 l 43 297 l 32 303 l 29 303 q 47 316 29 316 l 135 316 l 190 423 l 105 423 q 93 432 93 423 q 112 444 93 442 l 200 444 l 257 559 q 271 568 261 566 q 279 556 279 568 l 276 548 l 224 444 m 158 316 l 272 316 l 328 423 l 214 423 l 158 316 "},"Ê":{"x_min":7,"x_max":1286.171875,"ha":1085,"o":"m 957 690 q 1065 849 1037 821 q 1258 926 1141 926 q 1279 926 1273 926 l 1286 921 l 1280 919 l 1262 914 q 1111 831 1151 905 l 1050 695 q 958 567 1012 617 q 838 496 904 516 q 852 455 846 482 q 858 397 858 427 l 863 251 q 865 150 863 194 q 872 61 866 105 q 901 18 877 18 q 1008 91 943 18 q 1086 197 1044 133 q 1095 211 1090 207 l 1100 213 l 1105 206 l 1104 199 l 1095 183 q 1045 111 1066 139 q 1004 62 1020 78 q 873 -8 937 -8 q 710 130 710 -8 q 710 157 710 144 q 713 187 710 171 l 728 253 l 756 350 q 789 489 789 464 q 722 500 747 489 q 698 530 698 512 q 708 545 698 537 q 734 554 719 554 q 789 544 765 554 q 826 516 815 536 q 957 690 864 537 m 438 281 l 495 430 q 576 611 530 519 q 646 723 605 672 q 710 793 664 747 l 623 753 q 516 728 560 728 q 461 744 479 728 q 443 797 443 761 l 443 819 q 439 845 443 838 q 422 854 436 852 q 352 811 397 854 q 284 731 318 777 l 270 713 l 266 711 q 275 734 268 723 q 381 853 318 811 q 491 896 445 896 q 527 882 515 896 q 540 826 540 869 q 547 774 540 784 q 577 761 555 763 q 705 804 635 761 q 808 898 763 837 q 829 911 816 911 q 836 904 832 909 q 838 901 836 902 l 833 890 q 773 790 798 840 l 733 683 l 631 391 q 564 237 594 287 q 403 53 501 124 q 192 -17 305 -17 q 62 16 112 -17 q 7 115 7 55 q 77 221 7 179 q 225 263 147 263 l 238 263 l 254 258 l 243 255 q 104 218 166 255 q 32 114 32 175 q 80 32 32 64 q 193 2 133 2 q 349 102 276 2 q 438 281 394 164 m 730 540 q 715 535 722 540 l 715 531 q 731 511 715 522 q 789 503 748 503 q 774 527 789 515 q 730 540 759 540 "},"Џ":{"x_min":141,"x_max":1263.28125,"ha":1094,"o":"m 824 276 l 1132 890 l 1263 900 l 895 173 q 860 60 860 103 q 904 12 860 12 q 1001 73 944 12 q 1089 187 1040 117 l 1097 195 l 1102 197 l 1107 190 q 1102 173 1107 180 q 1015 61 1049 95 q 891 -7 948 -7 q 797 21 823 -7 q 772 97 772 50 q 772 133 772 122 l 783 171 q 679 41 736 90 q 571 -7 622 -7 q 445 40 487 -7 q 409 155 409 83 q 413 204 409 179 q 428 262 417 229 q 495 411 446 319 q 554 513 518 455 q 635 643 589 572 q 681 793 681 715 q 644 897 681 855 q 533 939 607 939 q 263 806 378 939 q 159 559 159 687 q 188 465 159 501 q 279 429 218 429 q 429 559 371 429 q 477 770 477 666 l 475 798 l 481 809 l 481 814 l 486 809 l 493 791 q 509 672 509 734 q 458 492 509 560 q 278 412 397 412 q 175 453 209 412 q 141 560 141 494 q 247 818 141 694 q 532 956 367 956 q 717 885 652 956 q 761 810 746 851 q 777 715 777 769 q 770 641 777 677 q 733 539 763 605 q 661 398 704 473 l 550 212 q 509 82 509 141 q 571 12 509 12 q 753 157 646 12 q 824 276 792 212 m 542 -52 q 550 -40 545 -44 l 557 -36 l 563 -45 q 559 -62 560 -55 q 543 -111 553 -80 l 527 -162 l 607 -133 l 614 -132 l 621 -140 l 614 -147 l 572 -165 l 521 -186 q 401 -358 462 -358 q 360 -313 360 -358 q 410 -223 360 -265 q 506 -169 439 -201 l 542 -52 m 379 -311 q 402 -341 379 -341 q 449 -311 429 -341 q 500 -194 469 -282 q 408 -248 432 -226 q 379 -311 379 -278 "},")":{"x_min":36.109375,"x_max":413,"ha":319,"o":"m 222 885 l 225 890 q 233 884 230 885 q 257 866 244 877 q 357 710 315 803 q 399 586 385 646 q 413 460 413 526 q 312 145 413 309 q 77 -78 212 -18 l 41 -88 l 36 -88 q 65 -58 36 -79 q 225 158 160 8 q 298 534 298 328 q 230 860 298 718 q 222 885 222 876 "},"э":{"x_min":-8.328125,"x_max":491.515625,"ha":457,"o":"m 206 380 q 225 369 216 379 q 236 341 233 359 q 223 311 236 323 q 194 301 213 304 q 152 341 152 301 q 175 387 152 370 q 277 412 206 412 q 390 368 341 412 q 438 258 438 323 q 363 80 438 159 q 122 -12 273 -12 q 22 13 52 -12 q -8 83 -8 40 q 13 139 -8 118 q 68 161 34 161 l 95 156 q 105 144 102 156 q 101 139 104 141 q 97 136 98 137 l 86 138 l 66 141 q 29 126 44 141 q 13 87 13 113 q 37 29 13 51 q 120 8 61 8 q 277 119 212 8 q 336 318 336 218 q 320 372 336 352 q 276 393 308 393 q 234 390 245 393 q 206 380 222 390 m 163 266 q 207 235 194 266 q 254 204 220 204 q 281 209 269 204 l 304 223 l 313 226 l 316 223 l 311 216 l 266 188 q 239 179 248 181 q 218 177 230 177 q 176 198 188 177 q 154 227 168 220 q 126 237 141 234 l 102 231 l 77 219 l 70 216 l 66 219 l 73 229 l 112 252 q 163 266 140 263 m 372 100 l 483 229 q 462 169 506 222 q 341 59 431 130 l 287 29 l 372 100 "},"Å":{"x_min":150,"x_max":845,"ha":756,"o":"m 558 579 q 668 562 628 579 q 709 515 709 545 q 658 483 709 483 q 579 499 622 483 q 504 552 536 516 q 352 429 410 518 q 288 181 288 328 q 325 50 288 101 q 433 0 362 0 q 651 101 558 0 q 733 288 733 191 q 706 359 733 333 q 638 386 680 386 q 548 336 581 386 q 523 233 523 294 l 526 188 l 535 154 l 535 147 l 535 143 l 530 144 q 490 195 510 158 q 474 270 474 233 q 507 361 474 323 q 624 403 547 403 q 748 288 748 403 q 664 85 748 180 q 435 -17 572 -17 q 215 59 291 -17 q 150 230 150 127 q 239 456 150 360 q 485 574 329 552 l 474 600 l 426 600 q 268 627 329 600 q 185 738 185 663 q 273 898 185 836 q 486 960 361 960 l 500 955 l 490 951 q 304 891 366 939 q 242 754 242 844 q 318 640 242 674 q 453 615 372 615 l 467 615 l 455 642 l 455 669 q 529 834 455 763 q 733 906 604 906 q 817 884 790 906 q 845 826 845 862 q 792 708 845 765 q 641 623 734 645 l 558 609 l 558 579 m 563 562 q 602 514 575 528 q 657 500 629 500 q 691 516 691 500 q 657 545 691 528 q 586 562 624 562 l 563 562 m 627 636 q 774 718 715 657 q 827 825 827 773 q 806 869 827 850 q 787 881 800 874 q 753 888 774 888 q 618 819 678 888 q 555 623 555 743 l 627 636 "},"ш":{"x_min":-11,"x_max":880.671875,"ha":872,"o":"m 876 192 l 880 183 l 876 172 q 798 63 832 99 q 686 -8 736 -8 q 607 12 631 -8 q 583 82 583 32 q 602 171 583 118 l 627 236 l 593 174 l 571 137 q 501 43 526 68 q 412 -8 454 -8 q 339 15 367 -8 q 313 84 313 42 q 331 177 313 127 q 356 236 339 205 l 297 137 q 225 44 256 75 q 132 -8 175 -8 q 66 17 90 -8 q 41 98 41 43 q 77 222 41 140 q 141 344 107 294 l 61 247 l 5 173 l 0 167 l -11 175 l -5 186 l 79 304 l 150 395 l 286 404 l 147 129 l 132 84 q 123 41 123 59 q 146 11 123 12 q 211 50 171 11 q 285 144 243 82 l 356 259 l 398 335 l 424 395 l 554 404 l 413 122 q 391 41 391 82 q 415 7 391 7 q 503 68 454 7 l 557 144 l 624 256 l 668 335 l 696 395 l 827 404 l 686 122 q 665 76 673 101 l 658 40 q 690 11 658 11 q 787 78 726 11 q 868 184 818 113 l 876 192 "},"Я":{"x_min":-28,"x_max":1023.390625,"ha":915,"o":"m 538 283 q 345 79 437 148 q 221 9 282 33 q 92 -14 159 -14 q 2 14 35 -14 q -28 89 -28 44 q 38 198 -28 162 l 53 205 l 58 205 q 47 193 53 197 q -4 95 -4 158 q 21 34 -4 59 q 93 12 47 12 q 270 113 179 12 l 418 317 q 557 440 472 394 q 673 484 580 452 l 611 479 q 461 525 522 479 q 401 647 401 572 q 470 808 401 739 q 674 885 549 885 q 732 880 705 885 q 787 865 759 876 q 872 815 838 848 l 896 872 l 1023 885 l 716 173 q 693 75 693 118 q 700 36 693 48 q 731 24 708 24 q 851 105 787 24 l 916 198 l 929 205 l 937 198 l 931 184 q 833 52 861 80 q 683 -8 769 -8 q 608 16 638 -8 q 578 91 578 41 q 600 187 578 132 l 734 494 q 538 283 679 473 m 641 508 q 750 529 691 508 l 861 790 q 729 842 816 842 q 569 776 631 842 q 508 626 508 711 q 544 540 508 572 q 641 508 580 508 "},"¸":{"x_min":-5.5625,"x_max":448.609375,"ha":390,"o":"m 381 359 q 343 282 381 329 q 254 213 305 236 q 231 205 240 208 q 195 195 222 202 l 134 187 l 112 131 q 105 75 105 100 q 118 23 105 43 q 163 4 131 4 q 293 66 227 4 q 383 184 327 101 l 393 191 l 400 181 l 394 169 q 301 50 337 86 q 166 -12 238 -12 q 41 29 88 -12 q -5 145 -5 70 q 76 319 -5 238 q 305 409 169 409 q 381 359 381 409 m 156 426 q 172 469 156 451 q 218 487 188 487 q 255 472 244 487 q 269 437 268 461 q 252 395 269 413 q 206 376 234 376 q 170 390 183 376 q 156 426 156 405 m 336 426 q 352 469 336 451 q 397 487 368 487 q 434 472 423 487 q 448 437 447 461 q 431 395 448 413 q 386 376 413 376 q 349 390 362 376 q 336 426 336 405 m 143 205 q 190 210 168 205 q 222 218 212 215 q 250 230 233 222 q 329 293 295 252 q 363 361 363 333 q 325 391 363 391 q 292 384 309 391 q 250 352 275 376 q 188 280 225 327 q 143 205 159 238 "},"a":{"x_min":-15,"x_max":490.5625,"ha":479,"o":"m 471 166 l 480 178 l 490 172 l 483 157 l 404 49 q 296 -13 347 -13 q 237 5 254 -13 q 221 55 221 24 q 221 78 221 69 l 229 99 q 144 13 176 33 q 80 -7 112 -7 q 8 23 35 -7 q -15 102 -15 54 q 55 282 -15 198 q 269 381 139 381 q 320 367 303 381 q 341 333 337 354 l 360 369 l 464 381 l 310 72 l 297 42 l 291 16 q 308 2 291 4 q 369 38 332 2 q 471 166 407 74 m 136 216 q 61 41 61 80 q 91 7 61 7 q 164 49 120 7 q 253 158 208 91 l 322 295 l 329 319 q 316 352 329 336 q 280 368 304 368 q 223 343 252 368 q 136 216 184 306 "},"=":{"x_min":51.390625,"x_max":365.28125,"ha":385,"o":"m 319 319 q 355 326 340 319 l 361 329 l 365 323 l 361 316 q 311 294 348 306 q 285 288 302 291 q 256 283 268 284 q 219 286 230 283 l 188 295 l 152 305 l 111 309 q 75 304 87 309 l 68 302 l 61 308 l 68 315 l 120 332 q 173 342 155 342 q 209 342 197 342 l 240 332 l 276 323 l 319 319 m 309 197 q 344 204 331 197 l 351 206 l 355 201 l 351 194 q 245 161 306 161 l 227 161 q 216 161 222 161 q 206 161 209 161 l 179 171 q 100 186 141 186 l 63 182 l 58 181 l 51 185 l 58 193 l 104 209 q 133 216 112 212 q 162 221 154 219 q 198 218 186 221 l 229 209 l 265 201 l 309 197 "},"Ћ":{"x_min":236,"x_max":1141.5625,"ha":1128,"o":"m 863 541 q 730 469 804 541 q 575 269 648 391 l 459 0 l 337 0 l 607 618 l 522 619 l 533 640 l 616 640 l 653 725 l 671 777 l 667 784 l 660 782 l 581 741 q 488 717 523 717 q 422 773 422 717 l 424 796 l 430 815 l 436 846 q 416 859 436 858 q 336 814 388 859 q 259 730 294 777 l 247 717 l 238 711 l 236 717 l 244 737 q 359 857 294 814 q 461 896 417 896 q 500 877 490 896 q 511 822 511 859 q 517 773 511 788 q 548 758 524 758 q 664 805 581 758 q 794 909 754 856 l 805 915 q 813 908 812 910 q 816 905 814 906 q 804 834 816 883 q 790 783 799 815 q 767 721 780 752 l 734 640 l 869 640 l 858 619 l 726 618 l 621 372 q 714 482 671 443 q 877 563 799 563 q 989 520 948 563 q 1030 409 1030 478 q 1023 348 1030 373 q 996 273 1018 319 q 957 185 991 255 q 912 46 912 85 q 932 19 912 21 q 1044 83 981 19 q 1123 187 1081 123 l 1131 196 l 1141 190 l 1134 175 q 1048 58 1069 78 q 912 -13 981 -13 q 834 14 863 -13 q 805 96 805 42 q 828 188 805 137 l 878 294 q 911 382 899 340 q 924 463 924 424 q 863 541 924 541 "},"ú":{"x_min":-12,"x_max":638,"ha":664,"o":"m 230 304 q 126 342 167 304 l 4 170 l -3 164 q -8 168 -6 165 q -12 173 -10 172 l -6 184 l 113 358 l 109 369 l 109 388 q 111 408 109 401 q 122 429 113 415 q 153 447 131 444 q 179 419 179 447 q 162 384 179 406 q 193 358 174 367 q 245 350 213 350 l 266 350 q 288 352 275 350 q 313 357 300 354 q 346 368 327 361 l 365 405 l 472 413 l 439 347 l 400 275 q 420 289 403 277 q 442 303 438 300 q 507 317 474 317 q 594 289 561 317 q 638 190 638 254 q 580 52 638 113 q 429 -14 519 -14 q 299 23 341 -14 q 257 123 257 61 q 275 215 257 166 q 321 317 286 248 l 269 304 l 230 304 m 342 93 q 362 29 342 55 q 414 3 383 3 q 514 68 469 3 q 559 213 559 133 q 545 272 559 252 q 495 293 532 293 q 428 273 458 293 q 382 236 407 261 l 354 168 q 342 93 342 127 "},"д":{"x_min":-190,"x_max":530.84375,"ha":515,"o":"m 225 82 q 161 18 200 44 q 79 -7 122 -7 q 12 27 39 -7 q -13 115 -13 62 q 69 311 -13 220 q 293 411 160 411 q 349 394 329 411 q 367 360 361 383 l 385 396 l 500 411 l 285 -15 q 439 88 371 5 l 514 191 l 522 197 q 530 185 530 197 l 523 173 q 422 40 451 69 q 276 -36 365 -16 l 164 -254 q 53 -380 122 -336 q -92 -424 -16 -424 q -165 -396 -141 -424 q -190 -326 -190 -371 q -126 -190 -190 -255 q 159 -46 -39 -103 l 225 82 m 299 394 q 145 236 231 394 q 68 37 68 93 q 93 14 68 14 q 169 52 123 14 q 257 151 215 91 l 353 335 q 340 377 353 360 q 299 394 328 394 m 149 -67 q -56 -180 30 -101 q -144 -345 -144 -260 q -131 -390 -144 -373 q -91 -407 -119 -407 q -8 -357 -48 -407 q 64 -232 19 -322 l 149 -67 "},"¯":{"x_min":34,"x_max":917,"ha":706,"o":"m 34 127 q 58 198 34 172 q 121 225 83 225 q 171 203 150 225 q 192 143 192 182 q 165 83 192 110 q 92 56 139 56 q 147 16 115 33 q 179 6 161 10 q 215 2 197 2 q 367 88 294 2 q 481 319 440 174 q 378 378 421 337 q 323 509 323 434 q 547 823 323 695 q 910 926 732 926 q 851 871 880 909 q 753 695 804 810 q 641 326 690 544 q 745 375 707 326 q 784 490 784 424 q 779 530 784 513 l 778 543 l 784 550 l 784 552 l 788 547 l 794 530 l 799 484 q 765 373 799 423 q 636 311 721 311 q 468 52 596 140 q 235 -17 365 -17 q 99 17 156 -17 q 34 127 34 58 m 688 1018 q 700 1053 688 1038 q 736 1069 713 1069 q 776 1025 776 1069 q 764 994 776 1009 q 728 977 752 979 q 688 1018 688 977 m 829 1018 q 841 1053 829 1038 q 877 1069 854 1069 q 917 1025 917 1069 q 905 994 917 1009 q 869 977 893 979 q 838 986 849 977 q 829 1018 830 996 m 851 909 q 512 749 640 868 q 384 484 384 631 q 417 384 384 426 q 486 337 442 351 q 659 743 536 576 q 851 909 759 879 "},"Z":{"x_min":7,"x_max":892,"ha":758,"o":"m 554 471 q 584 464 565 471 l 614 460 q 648 476 635 460 l 655 486 l 661 483 l 657 472 q 640 445 645 452 q 623 427 634 437 q 583 417 612 417 l 566 417 q 537 417 559 417 l 495 424 q 390 267 458 335 q 278 176 369 246 q 335 198 297 184 q 400 220 373 211 q 511 238 465 238 q 584 220 557 238 q 611 164 611 202 q 581 102 611 140 q 554 37 554 72 q 580 13 554 13 q 690 85 626 13 q 755 178 717 117 q 767 188 759 185 l 772 179 q 762 157 772 168 q 672 40 705 70 q 563 -8 620 -8 q 458 80 458 -8 q 465 120 458 105 l 482 148 l 503 176 l 509 201 q 485 219 509 219 q 374 194 447 219 q 253 142 301 170 q 200 76 225 103 q 146 29 175 50 q 51 -8 91 -8 q 7 32 7 -8 q 47 103 7 71 q 113 136 70 122 l 200 160 q 276 269 230 195 q 357 441 329 359 l 251 451 q 218 446 227 451 q 195 424 209 441 l 187 417 l 187 426 q 219 474 204 462 q 295 497 245 497 l 338 495 q 373 493 361 495 q 440 640 409 586 q 458 670 448 655 q 480 699 468 685 l 458 699 q 379 707 411 699 q 323 743 348 715 l 295 780 q 250 821 272 809 q 177 834 227 834 q 81 797 119 834 q 43 707 43 761 q 81 617 43 658 q 195 566 119 581 q 220 559 215 563 l 229 554 l 215 551 l 197 552 q 69 604 116 561 q 25 710 25 648 q 69 813 25 773 q 209 858 120 858 q 343 837 297 858 q 398 784 376 820 l 423 744 q 461 722 437 729 l 496 719 l 530 758 l 557 780 q 687 850 614 826 q 821 875 761 875 q 892 827 892 875 q 811 736 892 777 q 722 708 782 722 q 669 701 693 704 q 622 699 645 699 q 559 590 589 651 l 513 477 l 554 471 m 874 828 q 839 856 874 856 q 735 816 796 856 q 638 719 675 776 q 728 727 682 719 q 808 754 775 736 q 858 791 842 772 q 874 828 874 810 "},"u":{"x_min":-8,"x_max":574,"ha":556,"o":"m 276 128 q 201 32 233 64 q 124 -8 161 -8 q 42 83 42 -8 q 68 205 42 134 q 97 276 85 251 q 123 322 100 281 l 62 241 l 5 163 l -2 156 l -8 163 l -3 175 l 64 272 l 135 368 l 267 377 l 158 163 l 124 81 q 113 36 115 57 q 139 9 113 9 q 193 42 160 9 q 264 134 226 76 l 320 231 l 358 312 l 383 368 l 517 377 l 383 115 q 359 36 359 61 q 383 9 359 9 q 478 72 420 9 q 554 178 506 106 q 569 192 562 190 l 574 185 l 568 171 q 521 103 542 131 q 485 56 501 75 q 371 -8 425 -8 q 285 71 285 -8 q 286 106 285 95 q 296 142 287 118 q 303 163 299 152 q 320 198 308 175 l 276 128 "},"k":{"x_min":-22.109375,"x_max":492.890625,"ha":481,"o":"m -22 0 l 179 395 l 95 283 l 7 161 l 0 156 l -10 161 l -5 172 l 111 332 l 224 483 l 361 752 l 462 758 l 76 0 l -22 0 m 488 183 l 492 178 l 487 161 q 402 46 426 72 q 305 -8 352 -8 q 253 9 270 -8 q 236 58 236 26 q 246 117 236 87 q 272 165 256 146 l 301 204 q 315 235 312 219 l 310 253 l 280 244 l 263 244 q 235 248 245 244 q 224 264 225 253 q 257 284 224 284 l 284 280 l 309 270 q 352 282 338 270 q 380 315 366 294 q 413 361 398 347 q 450 379 428 376 q 484 345 484 379 q 454 314 484 314 q 424 341 424 314 l 424 351 q 405 334 415 350 l 394 314 q 366 275 382 287 q 325 257 350 263 q 352 221 340 241 q 364 175 364 201 l 359 143 q 345 112 357 130 q 329 54 329 83 q 344 32 329 33 q 477 178 377 32 l 484 182 l 488 183 "},"Ù":{"x_min":222,"x_max":1709.234375,"ha":1532,"o":"m 1542 40 l 1548 34 l 1545 25 q 1502 -7 1535 15 l 1463 -31 l 1451 -95 q 1429 -165 1443 -139 q 1365 -224 1408 -224 q 1321 -174 1321 -224 q 1365 -79 1321 -124 q 1445 -17 1395 -47 l 1456 27 l 1466 69 q 1411 10 1437 28 q 1340 -7 1385 -7 q 1248 27 1277 -7 q 1225 106 1225 55 q 1225 148 1225 133 l 1238 193 q 1138 82 1219 154 q 973 -7 1037 -7 q 877 27 908 -7 q 853 103 853 56 q 854 139 853 128 q 864 171 855 151 q 791 72 837 122 q 652 -7 718 -7 q 526 40 569 -7 q 490 155 490 83 q 492 198 490 176 q 505 251 494 220 q 609 469 530 325 q 670 564 644 522 q 709 629 696 607 q 762 793 762 719 q 725 897 762 855 q 614 939 688 939 q 344 805 460 939 q 240 558 240 684 q 269 463 240 501 q 360 429 299 429 q 510 559 452 429 q 558 770 558 666 l 556 793 l 556 798 l 562 809 l 562 814 l 567 809 l 574 791 q 590 673 590 734 q 539 492 590 560 q 359 412 478 412 q 256 453 290 412 q 222 560 222 494 q 328 818 222 694 q 613 956 448 956 q 798 883 731 956 q 858 714 858 815 q 828 572 858 650 q 756 428 806 512 l 680 300 q 590 82 590 148 q 652 14 590 14 q 831 159 724 14 q 903 276 874 219 l 1213 890 l 1344 900 l 976 173 q 942 59 942 104 q 986 14 942 14 q 1129 109 1027 14 q 1268 277 1232 205 l 1580 890 l 1709 900 l 1340 173 q 1308 59 1308 104 q 1351 14 1308 14 q 1427 52 1392 14 l 1466 106 l 1478 120 l 1483 122 l 1488 114 q 1478 49 1488 90 l 1466 -7 l 1505 14 q 1542 40 1526 25 m 1441 -40 l 1378 -90 q 1349 -130 1358 -112 q 1340 -172 1340 -149 q 1366 -205 1340 -205 q 1409 -158 1385 -205 l 1424 -109 q 1441 -40 1433 -83 "},"З":{"x_min":144,"x_max":851,"ha":822,"o":"m 144 166 q 190 313 144 248 q 311 378 237 378 q 400 350 366 378 q 435 276 435 322 q 405 200 435 235 q 322 151 376 164 l 318 151 l 322 158 q 374 213 352 177 q 393 280 393 247 q 373 338 393 317 q 312 360 356 360 q 209 300 253 360 q 165 170 165 240 q 208 54 165 101 q 348 7 252 7 q 571 177 483 7 q 635 411 635 309 q 612 482 635 459 l 565 466 q 539 460 547 461 q 514 459 531 459 q 473 481 473 459 q 493 506 473 498 q 546 515 513 515 l 602 511 q 708 651 673 558 q 736 798 736 723 q 716 875 736 847 q 638 909 692 909 q 496 863 563 909 q 395 747 428 817 q 375 726 388 726 l 369 737 q 374 762 369 751 q 471 878 403 831 q 638 933 546 933 q 794 884 737 933 q 851 748 851 835 q 803 594 851 659 q 645 499 750 516 q 726 433 693 490 q 759 312 759 377 q 675 101 759 192 q 349 -17 566 -17 q 191 40 243 -17 q 144 166 144 90 "},"¢":{"x_min":-101,"x_max":650.390625,"ha":638,"o":"m 277 640 q 287 669 277 657 q 317 681 297 681 q 355 639 355 681 q 336 599 355 618 q 434 563 376 563 q 539 595 490 563 q 530 629 532 607 q 542 665 530 649 q 574 681 554 681 q 600 669 589 681 q 613 639 613 661 q 600 608 613 625 q 564 578 588 591 q 497 548 528 558 q 433 539 467 539 q 315 577 371 539 q 277 640 277 608 m 180 31 q 201 6 180 6 q 341 121 240 6 l 419 219 l 510 396 l 621 408 l 403 -16 q 541 73 481 14 q 632 184 582 112 q 643 193 639 191 l 650 186 l 643 172 q 551 59 596 101 q 395 -38 490 1 l 278 -268 q 169 -383 242 -343 q 16 -424 97 -424 q -68 -394 -35 -424 q -101 -315 -101 -365 q 29 -145 -101 -225 q 277 -51 131 -84 l 380 147 q 291 41 330 76 q 186 -13 234 -13 q 112 7 141 -13 q 87 76 87 28 q 107 172 87 122 q 153 266 126 222 l 187 325 q 205 366 204 353 q 187 379 205 379 q 69 261 157 379 l -2 162 l -12 158 l -19 164 l -16 171 l 124 358 q 158 383 139 373 q 203 396 176 393 q 262 375 235 396 q 290 312 290 355 q 240 163 290 259 l 200 93 l 186 61 l 180 31 m 272 -70 q 23 -193 115 -112 q -51 -329 -51 -260 q -31 -384 -51 -364 q 15 -405 -14 -405 q 94 -373 58 -405 q 175 -255 129 -342 l 272 -70 "},"é":{"x_min":44.4375,"x_max":616.671875,"ha":597,"o":"m 222 473 q 262 513 222 513 q 300 472 300 513 q 281 431 300 454 q 380 395 322 395 q 484 427 434 395 q 473 461 476 440 q 487 496 473 481 q 519 511 501 511 q 545 500 534 511 q 558 470 558 491 q 545 440 558 455 q 509 411 531 425 q 443 381 473 391 q 379 372 412 372 q 261 411 312 372 q 222 473 222 438 m 612 205 l 616 200 q 611 183 613 186 q 526 63 558 100 q 408 -8 462 -8 q 329 12 354 -8 q 305 76 305 33 q 309 115 305 94 q 325 165 313 137 q 336 195 329 177 q 355 236 344 212 l 329 190 l 297 137 q 227 47 255 76 q 137 -8 176 -8 q 44 93 44 -8 q 53 153 44 119 q 79 225 62 187 l 154 395 l 286 404 l 170 173 l 134 98 q 120 41 120 61 q 150 12 120 12 q 211 51 172 12 q 283 145 240 80 l 345 251 l 391 336 l 419 395 l 555 404 l 412 123 q 386 43 386 68 q 412 8 386 8 q 537 106 461 8 q 595 191 559 133 l 605 201 l 612 205 "},"B":{"x_min":28,"x_max":1031,"ha":986,"o":"m 968 299 q 898 94 968 190 q 697 -15 818 -15 q 618 7 642 -15 q 595 75 595 30 q 636 200 595 136 q 737 275 677 265 q 652 202 691 261 q 614 75 614 143 q 629 23 614 40 q 672 7 644 7 q 822 144 761 7 q 871 341 871 256 q 849 423 871 402 l 815 408 l 785 408 q 733 433 733 408 q 792 461 733 461 q 823 461 812 461 q 858 451 842 461 q 911 520 890 474 q 932 634 932 566 q 912 741 932 701 q 861 803 895 782 q 757 655 805 747 q 666 414 709 563 q 447 56 595 159 q 207 -15 347 -15 q 77 19 126 -15 q 28 115 28 53 q 53 184 28 159 q 108 210 78 210 q 155 191 133 210 q 178 136 178 173 q 156 81 178 107 q 91 50 134 56 q 83 43 84 46 q 119 15 83 33 q 198 0 158 0 q 330 57 267 0 q 454 225 393 115 q 568 468 492 296 q 675 664 621 588 q 836 818 747 768 q 764 840 806 832 q 668 849 722 849 q 309 725 445 849 q 195 494 195 620 q 219 407 195 439 q 312 373 250 373 q 476 492 416 373 q 522 699 522 587 l 523 709 l 528 709 q 537 652 533 682 q 541 595 541 621 q 493 431 541 492 q 310 356 435 356 q 209 394 244 356 q 174 493 174 432 q 294 734 174 623 q 663 864 436 864 q 881 835 799 864 q 929 845 904 845 q 954 841 945 845 q 920 838 929 841 q 897 829 912 838 q 995 752 959 804 q 1031 634 1031 700 q 989 507 1031 560 q 886 439 955 469 q 968 299 968 406 m 750 432 q 781 419 750 419 q 812 424 799 419 l 836 434 q 784 448 812 448 q 750 432 751 448 "},"…":{"x_min":58,"x_max":546,"ha":579,"o":"m 157 52 q 143 13 157 31 q 102 -5 129 -5 q 69 7 81 -5 q 58 40 60 18 q 72 79 58 61 q 112 98 87 98 q 144 84 131 98 q 157 52 157 71 m 351 52 q 337 13 351 31 q 296 -5 323 -5 q 263 7 275 -5 q 252 40 254 18 q 266 79 252 61 q 306 98 281 98 q 338 84 325 98 q 351 52 351 71 m 546 52 q 532 13 546 31 q 491 -5 518 -5 q 458 7 470 -5 q 447 40 449 18 q 461 79 447 61 q 501 98 476 98 q 533 84 520 98 q 546 52 546 71 "},"В":{"x_min":34,"x_max":1108,"ha":1060,"o":"m 34 113 q 98 218 34 176 q 243 261 163 261 l 263 261 q 274 261 271 261 l 277 255 q 124 215 192 255 q 56 114 56 175 q 101 33 56 64 q 212 2 146 2 q 361 66 291 2 q 487 243 419 120 q 610 502 535 328 q 724 716 666 635 q 898 879 800 826 q 822 903 864 895 q 717 912 780 912 q 332 778 480 912 q 209 531 209 666 q 239 435 209 470 q 320 401 270 401 q 510 530 443 401 q 560 751 560 628 l 563 765 l 568 753 l 578 698 l 582 638 q 529 463 582 529 q 324 382 464 382 q 221 420 260 382 q 185 530 185 461 q 315 790 185 672 q 490 894 392 859 q 713 929 589 929 q 783 927 751 929 q 856 920 815 926 q 940 899 897 915 q 997 908 973 908 l 1029 905 l 1018 905 q 987 902 998 905 q 959 893 974 902 q 1067 810 1028 868 q 1108 680 1108 754 q 1070 560 1108 612 q 952 473 1032 507 q 1040 322 1040 437 q 966 101 1040 204 q 759 -17 881 -17 q 665 8 697 -17 q 638 78 638 33 q 671 201 638 138 q 791 295 713 280 q 702 217 745 283 q 671 155 682 187 q 660 91 660 123 q 724 12 660 12 q 883 169 816 12 q 936 385 936 295 q 913 456 936 433 l 877 443 q 843 439 864 439 q 788 468 788 439 q 851 499 788 499 l 883 494 l 922 485 q 981 559 960 509 q 1002 682 1002 609 q 981 798 1002 752 q 925 864 960 843 q 815 708 864 799 q 715 445 767 617 q 475 56 636 167 q 214 -17 368 -17 q 82 16 135 -17 q 34 113 34 49 m 850 482 q 806 464 806 482 q 839 452 806 452 q 870 456 858 452 l 898 468 l 879 477 q 850 482 868 482 "},"І":{"x_min":34,"x_max":910.390625,"ha":706,"o":"m 34 127 q 58 198 34 172 q 121 225 83 225 q 171 203 150 225 q 192 143 192 182 q 165 83 192 110 q 92 56 139 56 q 147 16 115 33 q 179 6 161 10 q 215 2 197 2 q 367 88 294 2 q 481 319 440 174 q 378 378 421 337 q 323 509 323 434 q 541 823 323 698 q 910 926 721 926 q 852 871 881 909 q 753 695 804 810 q 641 326 690 544 q 745 375 707 326 q 784 490 784 424 q 779 530 784 513 l 778 543 l 784 550 l 784 552 l 788 547 l 794 530 l 799 484 q 765 373 799 423 q 636 311 721 311 q 468 52 596 140 q 235 -17 365 -17 q 99 17 156 -17 q 34 127 34 58 m 852 909 q 512 749 640 868 q 384 484 384 631 q 417 384 384 426 q 486 337 442 351 q 660 743 536 576 q 852 909 760 879 "},"H":{"x_min":7,"x_max":1274,"ha":1008,"o":"m 257 295 l 254 298 l 258 308 q 350 370 288 337 q 469 422 411 402 l 491 486 l 525 562 q 559 622 541 600 l 593 659 l 619 689 l 643 728 q 576 688 616 707 q 493 670 536 670 q 466 672 475 670 q 437 683 458 673 q 416 719 416 693 q 423 759 416 740 l 432 787 q 413 800 432 800 q 336 758 386 800 q 265 680 291 720 l 252 663 l 250 661 l 245 662 l 248 669 l 255 683 q 354 793 295 754 q 457 833 412 833 q 491 821 480 833 q 503 766 503 809 q 509 720 503 734 q 537 705 515 706 q 638 745 562 705 q 769 848 727 791 q 786 858 775 858 q 794 847 794 858 l 790 833 q 740 752 759 788 l 693 648 l 657 540 l 629 464 l 718 487 l 786 504 q 991 774 877 681 q 1182 858 1091 858 q 1251 834 1228 858 q 1274 773 1274 810 q 1158 608 1274 681 q 927 518 1072 557 l 868 376 q 796 180 818 249 q 775 71 775 111 q 820 6 775 6 q 908 53 859 6 q 1008 181 968 109 q 1015 191 1011 188 l 1020 194 l 1026 187 l 1025 180 l 1016 165 q 933 54 963 87 q 815 -8 875 -8 q 668 155 668 -8 q 702 324 668 229 q 773 483 719 368 l 691 464 q 619 443 654 455 q 518 224 569 310 q 375 58 454 120 q 177 -8 284 -8 q 54 27 102 -8 q 7 122 7 62 q 27 182 7 158 q 90 206 48 206 q 140 184 119 206 q 161 132 161 162 q 136 78 161 100 q 70 56 112 56 l 58 56 q 102 18 72 36 q 173 6 132 6 q 325 96 257 6 q 408 262 368 152 l 462 402 q 352 352 422 390 q 262 298 290 320 l 257 295 m 1228 768 q 1214 820 1228 801 q 1173 839 1201 839 q 1059 775 1111 839 q 933 540 1007 711 q 1169 650 1098 587 q 1228 768 1228 700 "},"î":{"x_min":-8.328125,"x_max":410.375,"ha":418,"o":"m 370 304 q 315 131 365 218 q 226 25 265 45 q 313 70 275 37 q 373 133 352 104 q 409 125 415 170 q 270 29 343 66 q 175 -9 198 -8 q 123 -12 152 -12 q 29 31 68 -12 q -8 143 -8 76 q 84 333 -8 250 q 265 408 170 408 q 344 379 318 408 q 370 304 370 351 m 281 391 q 158 270 226 391 q 90 66 90 150 q 99 20 90 37 q 133 4 108 4 q 279 118 215 4 q 336 318 336 220 q 323 370 336 350 q 281 391 311 391 "},"¥":{"x_min":26,"x_max":1382,"ha":856,"o":"m 896 826 l 763 861 q 627 879 676 879 q 320 762 443 879 q 216 543 216 662 q 242 462 216 493 q 320 431 268 431 q 481 555 416 431 q 532 765 532 662 l 534 778 l 538 771 q 546 750 544 758 q 555 723 549 743 q 562 692 560 704 q 563 657 563 680 q 510 493 563 558 q 321 414 448 414 q 228 448 261 414 q 198 543 198 486 q 314 787 198 670 q 652 919 449 919 q 709 917 689 919 q 813 906 728 916 q 945 897 898 897 q 1009 897 977 897 q 1053 891 1039 893 l 1182 882 q 1296 907 1259 882 q 1333 971 1333 932 q 1319 1018 1333 996 q 1284 1053 1306 1040 q 1352 1019 1320 1053 q 1382 940 1382 986 q 1326 843 1382 882 q 1129 796 1258 796 l 1111 796 q 1015 801 1045 796 q 955 813 985 807 q 896 826 924 819 m 547 333 l 631 538 q 720 697 677 648 q 788 760 756 738 q 867 801 820 781 q 769 622 816 758 l 678 352 q 595 176 641 248 q 469 51 541 93 q 348 5 417 22 q 280 -3 317 0 q 210 -8 244 -8 q 63 33 112 -8 q 26 121 26 66 q 94 227 26 183 q 241 271 162 271 l 257 271 l 269 265 l 271 263 q 116 224 184 263 q 48 122 48 186 q 97 38 48 69 q 200 13 138 13 q 414 110 322 13 q 547 333 482 182 "},"U":{"x_min":207,"x_max":1250.484375,"ha":1085,"o":"m 1129 827 l 1250 837 l 908 161 q 875 55 875 94 q 916 14 875 14 q 1025 98 957 14 l 1083 178 l 1090 185 l 1098 179 l 1093 164 q 1009 51 1030 75 q 894 -8 954 -8 q 816 19 843 -8 q 793 94 793 47 l 793 126 q 802 158 793 134 q 714 42 754 79 q 603 -8 659 -8 q 490 33 528 -8 q 456 143 456 76 q 516 350 456 232 l 595 483 l 677 623 q 710 737 710 684 q 678 833 710 799 q 572 872 641 872 q 319 754 428 872 q 224 520 224 647 q 249 433 224 466 q 334 400 275 400 q 476 523 417 400 q 522 720 522 624 l 518 740 l 518 745 l 522 757 l 522 757 q 537 736 529 757 l 549 683 l 549 626 q 500 459 549 524 q 335 383 444 383 q 238 420 274 383 q 207 522 207 459 q 305 768 207 656 q 571 889 414 889 q 743 820 680 889 q 785 752 771 789 q 799 664 799 715 q 776 543 799 604 q 706 398 754 482 l 600 220 q 562 140 576 178 q 549 75 549 103 q 564 30 549 47 q 607 14 579 14 q 745 108 667 14 q 841 256 805 178 l 1129 827 "},"Ñ":{"x_min":94,"x_max":1024,"ha":846,"o":"m 94 693 q 179 869 94 800 q 416 938 264 938 q 448 938 433 938 q 480 938 463 938 q 520 931 505 938 l 524 927 l 519 920 l 497 920 q 241 857 326 920 q 157 675 157 794 q 206 544 157 601 q 316 477 252 494 q 545 771 403 651 q 901 913 715 913 q 991 884 958 913 q 1024 807 1024 856 q 960 658 1024 736 q 761 516 887 572 q 603 461 679 480 q 459 443 527 443 q 405 298 427 377 q 383 158 383 219 q 410 51 383 92 q 507 13 441 13 q 720 118 628 13 q 781 214 760 165 q 802 311 802 262 q 725 399 802 399 q 620 339 658 399 q 593 225 593 292 q 595 188 593 203 q 600 167 597 174 l 600 160 l 600 156 q 551 258 551 187 q 591 364 551 322 q 724 414 636 414 q 795 385 770 414 q 820 309 820 357 q 733 107 820 205 q 507 -4 638 -4 q 307 66 374 -4 q 265 138 279 98 q 252 234 252 178 q 266 350 252 294 q 308 464 280 407 q 171 533 232 479 q 94 693 94 600 m 745 529 q 908 662 841 569 q 952 745 937 705 q 968 822 968 784 q 905 892 968 892 q 659 751 790 892 q 468 461 545 629 q 595 475 544 461 q 745 529 649 487 "},"F":{"x_min":19,"x_max":1057.890625,"ha":758,"o":"m 180 507 q 204 429 180 457 q 277 402 228 402 q 424 516 366 402 q 472 710 472 615 l 472 722 q 500 611 500 677 q 447 455 500 516 q 277 385 386 385 q 190 418 222 385 q 161 507 161 451 q 266 733 161 628 q 585 856 391 856 l 659 851 l 752 836 l 834 825 l 913 821 q 1007 844 969 821 q 1057 888 1034 857 q 1003 793 1035 828 q 868 740 953 740 q 802 748 830 740 l 737 774 l 664 809 q 610 826 635 820 q 555 832 585 832 q 277 718 389 832 q 180 507 180 617 m 784 745 q 728 662 753 722 l 663 418 q 688 420 679 418 l 709 427 q 739 500 717 468 q 808 539 767 539 q 831 526 820 539 q 840 495 840 514 q 820 451 840 469 q 777 429 809 440 l 777 387 q 784 337 777 366 l 696 314 q 696 358 696 344 l 709 409 l 682 404 l 659 400 q 591 209 638 295 q 435 47 528 94 q 386 26 412 36 q 327 8 360 16 q 260 -3 294 0 q 195 -8 227 -8 q 66 29 113 -8 q 19 121 19 66 q 41 184 19 162 q 64 201 52 195 q 96 207 77 207 q 147 186 124 207 q 170 137 170 166 q 144 80 170 107 q 77 53 118 53 q 186 11 109 11 q 377 129 285 11 q 512 384 442 218 q 389 350 443 376 q 296 294 350 333 q 400 366 342 337 q 519 405 459 395 q 646 648 588 577 q 784 745 695 709 m 825 495 q 806 521 825 521 q 784 501 794 521 q 778 481 780 490 q 777 454 777 472 l 777 447 l 809 462 q 825 495 822 472 "},"*":{"x_min":219,"x_max":457,"ha":458,"o":"m 345 583 l 400 565 q 448 527 448 548 q 427 507 448 507 q 366 545 406 507 l 341 573 l 345 525 q 340 482 345 497 q 318 465 335 467 q 292 491 292 465 q 302 529 292 508 l 335 577 l 282 536 q 240 520 257 520 q 219 540 219 520 q 267 575 219 561 l 328 587 l 295 600 q 239 647 241 625 q 259 667 239 665 q 306 634 278 667 l 337 594 l 335 642 q 339 689 335 673 q 362 708 344 706 q 385 685 384 708 q 374 642 385 666 q 345 593 366 620 l 384 625 q 438 653 417 650 q 457 634 455 653 q 406 598 457 615 l 345 583 "},"†":{"x_min":197.609375,"x_max":424,"ha":340,"o":"m 417 639 l 422 635 l 424 631 q 417 624 421 626 q 412 622 414 622 l 360 627 l 342 627 l 274 461 l 232 346 q 214 321 225 321 q 197 345 197 321 l 199 358 q 262 511 215 412 l 320 626 l 260 613 l 250 612 l 243 614 l 240 617 l 259 631 l 287 638 l 329 645 l 344 672 l 360 701 l 370 710 l 374 710 l 379 703 l 376 694 l 351 647 l 389 646 q 417 639 404 646 "},"Ќ":{"x_min":7,"x_max":1286.171875,"ha":1085,"o":"m 1045 1059 q 1076 1078 1058 1076 q 1105 1065 1093 1078 q 1118 1036 1118 1052 q 1098 1007 1118 1015 l 1036 973 l 983 945 l 970 940 l 966 945 l 972 958 l 1045 1059 m 957 690 q 1065 850 1037 822 q 1258 926 1141 926 q 1279 923 1273 926 l 1286 919 l 1280 916 l 1262 912 q 1111 829 1151 902 l 1050 694 q 958 566 1012 616 q 838 496 904 516 q 852 455 846 482 q 858 397 858 427 l 863 251 q 865 150 863 194 q 872 61 866 105 q 901 18 877 18 q 1008 91 943 18 q 1086 197 1044 133 q 1095 211 1090 207 l 1100 213 l 1105 206 l 1104 199 l 1095 183 q 1045 111 1066 139 q 1004 62 1020 78 q 873 -8 937 -8 q 710 130 710 -8 q 710 157 710 144 q 713 187 710 171 l 728 253 l 756 350 q 789 489 789 464 q 722 500 747 489 q 698 530 698 512 q 708 545 698 537 q 734 554 719 554 q 789 544 765 554 q 826 516 815 536 q 957 690 864 537 m 438 281 l 495 430 q 576 611 530 519 q 646 723 605 672 q 710 793 664 747 l 623 753 q 516 728 560 728 q 461 744 479 728 q 443 797 443 761 l 443 819 q 439 845 443 838 q 422 854 436 852 q 352 811 397 854 q 284 731 318 777 l 270 713 l 266 711 q 275 734 268 723 q 381 853 318 811 q 491 896 445 896 q 527 882 515 896 q 540 826 540 869 q 547 774 540 784 q 577 761 555 763 q 705 804 635 761 q 808 898 763 837 q 829 911 816 911 q 836 904 832 909 q 838 901 836 902 l 833 890 q 773 790 798 840 l 733 683 l 631 391 q 564 237 594 287 q 403 53 501 124 q 192 -17 305 -17 q 62 16 112 -17 q 7 115 7 55 q 77 221 7 179 q 225 263 147 263 l 238 263 l 254 258 l 243 255 q 104 218 166 255 q 32 114 32 175 q 80 32 32 64 q 193 2 133 2 q 349 102 276 2 q 438 281 394 164 m 730 540 q 715 535 722 540 l 715 531 q 731 511 715 522 q 789 503 748 503 q 774 527 789 515 q 730 540 759 540 "},"°":{"x_min":73,"x_max":213,"ha":275,"o":"m 73 597 q 94 646 73 623 q 150 669 115 669 q 196 653 179 669 q 213 612 213 637 q 191 561 213 584 q 135 539 170 539 q 88 556 104 539 q 73 597 73 573 m 94 598 q 136 558 94 558 q 176 573 161 558 q 192 610 189 588 q 149 650 192 650 q 107 633 124 650 q 94 598 96 619 "},"å":{"x_min":-5,"x_max":400.5625,"ha":390,"o":"m 383 359 q 344 282 383 329 q 255 213 306 236 q 232 205 241 208 q 196 195 223 202 l 135 187 l 113 131 q 106 74 106 99 q 119 23 106 42 q 164 4 132 4 q 293 65 228 4 q 383 181 328 99 l 393 192 l 400 181 l 395 168 q 301 49 338 85 q 167 -13 239 -13 q 42 28 89 -13 q -5 145 -5 70 q 77 319 -5 238 q 306 410 170 410 q 383 359 383 410 m 144 205 q 191 209 169 205 q 223 218 213 214 q 251 230 234 221 q 330 293 296 252 q 365 362 365 334 q 326 393 365 393 q 293 385 310 393 q 251 353 276 377 q 189 280 226 328 q 144 205 160 238 "},"0":{"x_min":36,"x_max":486,"ha":497,"o":"m 486 434 q 399 165 486 312 q 170 -8 299 -8 q 75 55 115 -8 q 36 203 36 119 q 36 230 36 216 q 39 264 36 243 q 52 308 42 284 q 188 492 86 414 q 380 571 290 571 q 457 534 429 571 q 486 434 486 497 m 117 91 q 180 7 117 7 q 359 139 276 7 q 442 446 442 271 q 428 529 442 501 q 379 560 415 560 q 193 361 285 560 q 117 91 117 189 "},"”":{"x_min":191,"x_max":495,"ha":424,"o":"m 495 734 q 488 702 495 716 q 428 630 477 674 q 391 598 406 611 q 353 569 376 586 l 332 559 l 341 569 q 415 635 397 613 q 432 674 432 656 q 429 690 432 687 l 420 709 l 416 733 q 425 759 416 749 q 457 772 435 769 q 495 734 495 772 m 353 734 q 346 702 353 716 q 285 630 335 674 q 247 598 263 611 q 209 569 232 586 l 191 559 l 200 569 q 273 635 256 613 q 291 674 291 656 q 288 690 291 687 l 278 709 l 274 733 q 283 759 274 749 q 315 772 293 769 q 353 734 353 772 "},"ö":{"x_min":-11.109375,"x_max":622.21875,"ha":594,"o":"m 412 -6 q 340 14 370 -6 q 311 76 311 36 q 312 113 311 101 q 323 155 313 125 q 355 236 333 186 l 297 137 q 204 27 247 62 q 131 -8 162 -8 q 65 20 88 -8 q 41 95 41 50 l 44 131 q 61 181 48 155 l 134 344 q 5 173 75 269 l 0 166 l -11 175 l -5 186 l 75 300 l 145 395 l 286 404 l 147 130 l 131 86 q 123 43 123 61 q 145 12 123 13 q 209 51 170 12 q 283 145 241 83 l 329 222 l 388 336 l 415 395 l 554 404 l 412 123 l 393 80 q 384 40 384 56 q 418 8 384 8 q 527 76 472 13 l 612 184 q 622 187 619 188 q 620 179 622 176 l 544 50 l 529 -8 l 558 6 q 588 26 575 13 l 594 22 l 591 16 q 561 -6 584 5 l 525 -30 l 516 -80 q 498 -138 512 -109 q 447 -184 481 -184 q 411 -144 411 -184 q 419 -106 411 -125 q 449 -65 427 -88 q 511 -18 470 -41 l 530 56 q 473 6 502 20 q 446 -3 458 0 q 412 -6 434 -6 m 508 -37 q 480 -57 495 -45 q 458 -77 465 -69 q 435 -109 443 -94 q 427 -143 427 -125 q 448 -169 427 -166 q 481 -133 465 -169 l 497 -87 l 508 -37 "},"Õ":{"x_min":75,"x_max":1224,"ha":1179,"o":"m 703 182 q 738 53 703 102 q 858 4 773 4 q 1084 125 988 4 q 1169 361 1169 235 q 1132 482 1169 435 q 1024 529 1096 529 q 895 429 955 529 q 836 203 836 329 l 840 138 l 841 124 l 836 118 q 824 140 829 126 q 800 284 800 219 q 861 471 800 398 q 1020 544 923 544 q 1146 492 1103 544 q 1190 360 1190 441 q 1099 112 1190 227 q 858 -14 998 -14 q 719 44 765 -14 q 682 180 682 94 q 690 263 682 218 q 699 307 693 283 q 713 354 705 331 q 556 119 656 215 q 233 -14 416 -14 l 226 -14 q 113 19 151 -14 q 75 95 75 52 q 95 158 75 129 q 156 200 115 187 l 173 203 l 180 198 q 169 190 176 191 q 114 152 134 177 q 96 98 96 127 q 126 31 96 61 q 162 10 141 17 q 215 4 183 4 q 464 140 346 4 q 638 480 576 268 q 670 615 659 554 q 682 722 682 676 q 638 861 682 818 q 552 893 606 893 q 275 769 386 893 q 175 530 175 658 q 212 415 175 460 q 259 383 231 394 q 323 372 286 372 q 454 474 398 372 q 495 588 481 529 q 509 722 509 647 l 508 760 l 509 780 l 512 780 l 516 775 l 523 757 l 538 682 l 544 612 q 485 426 544 495 q 326 357 426 357 q 193 409 236 357 q 156 536 156 455 q 261 783 156 669 q 562 910 380 910 q 650 894 604 910 q 730 846 697 879 q 795 650 795 776 q 794 610 795 632 q 788 563 793 588 q 844 700 823 663 q 958 840 884 778 q 1100 892 1018 892 q 1189 858 1154 892 q 1224 780 1224 825 q 1206 720 1224 747 q 1150 678 1189 694 l 1137 674 l 1131 678 l 1139 687 q 1206 777 1206 712 q 1176 845 1206 815 q 1096 875 1146 875 q 969 829 1030 875 q 832 633 889 760 l 750 409 q 716 295 730 356 q 707 238 711 270 q 703 182 703 206 "},"№":{"x_min":-21,"x_max":1357,"ha":1350,"o":"m 1357 471 q 1293 316 1357 390 q 1137 235 1223 235 q 1060 264 1090 235 q 1030 346 1030 294 q 1097 501 1030 425 q 1251 578 1163 578 q 1333 544 1304 578 q 1357 471 1357 514 m 980 144 l 965 134 l 961 134 l 966 147 q 999 180 974 168 q 1051 193 1023 193 l 1076 192 q 1123 178 1087 192 l 1198 156 q 1244 178 1226 156 l 1252 185 l 1260 178 l 1258 170 q 1221 138 1249 151 q 1165 125 1192 125 q 1094 134 1117 125 l 1058 150 q 1013 160 1035 157 q 980 144 997 160 m 429 279 q 545 493 492 375 l 630 702 l 746 702 l 746 64 q 836 302 791 207 q 969 536 898 443 q 1162 709 1054 647 q 1197 722 1177 718 l 1243 728 q 1309 683 1309 728 q 1294 653 1309 666 q 1250 640 1279 640 q 1202 651 1223 640 q 1169 680 1182 662 q 982 505 1069 629 q 913 394 948 458 q 843 252 877 330 q 746 0 809 175 l 617 0 l 617 590 q 582 506 598 544 q 550 437 565 469 q 450 259 507 344 q 302 82 376 147 q 102 -8 201 -8 q 13 16 48 -8 q -21 86 -21 41 q 3 151 -21 125 q 73 178 27 178 q 131 154 107 178 q 155 94 155 130 q 102 20 155 36 q 270 93 184 20 q 429 279 348 157 m 1304 511 q 1290 546 1304 531 q 1244 561 1276 561 q 1176 531 1204 561 q 1144 473 1158 513 l 1102 353 l 1088 300 q 1099 265 1088 278 q 1138 252 1109 252 q 1209 279 1181 252 q 1247 339 1233 300 l 1281 433 q 1304 511 1301 491 "},"þ":{"x_min":-8.328125,"x_max":748.609375,"ha":733,"o":"m 156 0 l 41 0 l 212 325 q 223 363 220 344 q 198 391 223 391 q 147 360 176 391 q 69 265 118 330 l 12 183 l 0 175 l -4 174 l -8 178 l -2 192 l 54 278 q 140 382 106 351 q 173 405 155 397 q 219 414 191 414 q 275 388 252 414 q 298 333 298 362 q 276 244 298 288 l 260 215 l 334 215 q 438 349 360 291 q 597 408 516 408 q 677 377 651 408 q 700 303 700 351 q 675 192 700 255 q 622 100 650 129 q 676 122 651 104 q 731 193 701 141 l 738 200 l 748 194 q 743 177 745 180 q 681 105 719 131 q 611 78 654 87 q 540 12 572 31 q 454 -13 498 -13 q 357 31 394 -13 q 320 143 320 75 l 322 170 l 326 194 l 253 193 l 156 0 m 668 317 q 655 370 668 349 q 613 391 643 391 q 524 328 573 391 q 462 220 495 291 l 431 138 q 420 63 420 94 q 431 21 420 38 q 463 4 441 4 q 565 53 516 4 q 636 174 601 94 l 656 238 q 668 317 668 282 "},"]":{"x_min":-156.9375,"x_max":490.28125,"ha":401,"o":"m -145 -75 l -51 -75 l 427 896 l 313 896 l 323 917 l 490 917 l -11 -99 l -156 -99 l -145 -75 "},"А":{"x_min":14,"x_max":1177.890625,"ha":1032,"o":"m 465 158 q 619 337 552 248 l 572 339 q 543 348 543 339 l 549 351 l 568 356 l 637 356 l 940 731 q 1172 957 1144 957 l 1177 947 q 1169 907 1177 934 q 1141 836 1161 880 l 1056 644 l 969 447 l 930 350 l 979 346 l 1029 346 q 1043 337 1041 346 q 1023 325 1043 326 l 920 325 l 875 197 q 850 73 850 114 q 870 36 850 36 q 938 73 897 36 q 1030 192 979 110 q 1038 199 1036 198 l 1043 201 l 1048 194 l 1043 182 q 948 51 990 94 q 811 -17 880 -17 q 733 6 756 -17 q 710 75 710 29 q 760 263 710 146 l 790 326 l 643 339 q 462 132 575 245 q 348 33 400 68 q 198 -17 273 -17 q 57 12 102 -17 q 14 115 14 42 q 78 221 14 179 q 223 264 143 264 l 243 263 q 254 260 251 263 l 257 257 q 103 217 173 257 q 33 115 33 177 q 74 26 33 55 q 198 0 119 0 q 347 51 270 0 q 465 158 397 86 m 802 356 l 858 461 q 994 696 941 612 q 1130 909 1054 798 l 1029 805 l 948 719 l 802 538 l 660 358 l 802 356 "},"Ы":{"x_min":105,"x_max":1321,"ha":1151,"o":"m 1145 187 l 1153 196 l 1163 190 l 1156 175 q 1070 58 1091 78 q 934 -13 1003 -13 q 854 15 883 -13 q 825 94 825 44 q 849 191 825 138 l 1188 890 l 1321 904 l 964 173 q 929 58 929 97 q 934 29 929 38 q 958 19 940 20 q 1067 83 1008 19 q 1145 187 1098 116 m 486 901 l 619 915 l 522 726 q 432 554 460 602 l 497 576 q 532 583 514 580 q 571 586 550 586 q 702 541 648 586 q 778 359 778 480 q 678 92 778 202 q 426 -17 578 -17 q 268 31 325 -17 q 199 206 199 88 q 249 429 199 312 l 334 597 l 212 490 q 124 422 164 450 l 114 418 l 110 416 l 105 419 l 105 425 l 116 436 q 251 551 180 479 l 368 673 l 486 901 m 293 174 q 329 56 293 105 q 413 7 365 7 q 611 169 528 7 q 681 433 681 308 q 650 530 681 499 q 563 561 619 561 q 527 559 539 561 q 492 549 515 558 q 421 524 454 541 l 347 370 q 293 174 293 248 "},"8":{"x_min":12,"x_max":423,"ha":432,"o":"m 423 457 q 396 379 423 411 q 290 318 370 347 q 366 224 342 262 q 387 179 380 202 q 394 131 394 156 q 337 25 394 65 q 193 -14 281 -14 q 64 21 117 -14 q 12 118 12 56 q 49 215 12 174 q 180 284 86 255 l 138 336 q 111 415 111 375 q 163 520 111 476 q 299 564 215 564 q 387 534 352 564 q 423 457 423 504 m 394 460 q 370 525 394 499 q 298 551 346 551 q 216 530 254 551 q 182 470 182 507 q 222 389 182 435 l 278 330 q 362 377 331 346 q 394 460 394 409 m 47 118 q 87 37 47 71 q 193 3 128 3 q 287 20 254 3 q 320 79 320 37 q 290 155 320 109 q 189 275 261 201 q 78 211 109 250 q 47 118 47 172 "},"R":{"x_min":33,"x_max":1020.328125,"ha":1007,"o":"m 721 390 q 675 411 676 390 q 734 438 675 438 q 767 433 754 438 l 792 420 q 847 477 825 440 q 880 626 880 534 q 859 728 880 689 q 806 787 838 767 q 716 639 759 731 q 677 539 698 599 q 638 414 657 478 q 445 70 570 174 q 191 -13 345 -13 q 80 23 128 -13 q 33 119 33 59 q 54 184 33 158 q 110 210 76 210 q 162 188 142 210 q 183 133 183 166 q 158 72 183 98 q 85 46 134 46 q 128 18 101 30 q 191 6 155 6 q 376 134 286 6 q 537 469 459 249 q 654 697 585 608 q 774 801 709 767 l 718 813 l 644 821 q 287 698 423 821 q 170 468 170 593 q 197 380 170 412 q 278 348 224 348 q 439 472 370 348 q 497 675 497 578 l 497 688 l 498 683 q 516 587 516 644 q 466 417 516 488 q 277 331 403 331 q 184 368 220 331 q 151 468 151 406 q 273 711 151 601 q 645 838 416 838 q 686 838 668 838 q 741 832 703 838 q 809 819 784 827 q 870 838 843 838 l 896 831 q 861 827 878 831 q 832 813 843 822 q 932 750 889 796 q 976 640 976 705 q 941 514 976 567 q 802 411 900 451 q 833 311 833 380 q 813 212 833 255 q 787 92 787 145 q 837 11 787 11 q 931 75 873 11 q 1005 178 960 110 l 1012 183 l 1020 178 l 1016 165 q 932 52 957 80 q 802 -13 870 -13 q 668 99 668 -13 q 687 195 668 146 q 703 235 694 213 q 725 283 712 256 l 754 333 q 774 398 774 365 l 745 390 l 721 390 m 690 411 q 725 400 690 400 q 774 412 745 400 q 734 425 765 425 q 690 411 691 425 "},"o":{"x_min":-8.328125,"x_max":390.28125,"ha":375,"o":"m 343 283 q 319 176 343 231 q 272 93 298 120 q 328 122 304 101 q 373 179 352 144 l 380 186 l 390 180 l 383 165 q 316 95 355 122 q 259 73 293 79 l 213 26 q 115 -11 168 -11 q 28 31 65 -11 q -8 133 -8 73 q 61 291 -8 216 q 247 379 140 379 q 320 353 298 379 q 343 283 343 327 m 122 205 l 93 129 q 86 95 88 111 q 83 61 83 78 q 123 6 83 6 q 216 50 173 6 q 283 161 251 89 l 302 221 q 311 258 308 244 q 314 291 314 273 q 262 361 314 361 q 179 302 225 361 q 154 262 166 284 q 122 205 141 241 "},"5":{"x_min":23,"x_max":528.5625,"ha":507,"o":"m 278 333 q 213 326 237 333 q 159 298 189 319 l 149 293 l 145 295 l 149 309 l 253 561 l 331 550 l 418 544 q 513 560 489 544 l 523 568 l 527 568 l 528 563 l 523 554 q 477 481 498 501 q 361 447 438 447 l 290 451 q 257 456 268 454 q 232 462 246 458 l 175 324 q 279 350 216 350 q 416 301 368 350 q 461 187 461 256 q 392 48 461 103 q 195 -6 324 -6 q 69 29 116 -6 q 23 113 23 64 q 40 160 23 141 q 86 180 57 180 q 125 164 109 180 q 141 126 141 149 q 85 68 141 68 q 57 76 74 68 q 88 37 57 59 q 185 11 128 11 q 319 101 270 11 q 358 251 358 174 q 278 333 358 333 "},"Ѕ":{"x_min":26,"x_max":1112,"ha":874,"o":"m 488 332 q 273 393 359 332 q 169 606 169 466 q 275 859 169 752 q 570 972 388 972 l 588 972 l 595 969 l 588 966 l 570 960 q 296 813 380 944 q 240 592 240 724 q 316 407 240 471 q 495 349 385 349 l 531 349 l 578 508 q 670 721 620 632 q 794 871 720 810 q 995 951 889 951 q 1076 918 1041 951 q 1112 827 1112 885 q 1081 713 1112 774 q 1038 642 1064 678 q 974 567 1012 606 q 796 420 891 480 q 681 364 739 385 q 609 188 648 251 q 470 42 555 92 q 221 -17 367 -17 q 70 31 124 -17 q 26 122 26 72 q 51 192 26 166 q 112 218 76 218 q 163 197 140 218 q 186 143 186 177 q 160 73 186 106 q 91 43 134 43 l 142 13 q 173 6 158 9 q 210 4 188 4 q 420 124 326 4 q 524 333 487 212 l 488 332 m 687 384 q 798 441 748 411 q 953 572 881 492 q 1025 692 997 619 q 1054 825 1054 764 q 1036 902 1054 875 q 978 930 1019 930 q 938 925 958 930 q 895 910 919 921 q 817 850 855 892 q 742 637 773 800 q 687 384 705 430 "},"õ":{"x_min":-12,"x_max":569,"ha":553,"o":"m 6 173 l 0 167 l -12 173 l -3 187 l 99 329 q 222 401 158 401 q 285 378 262 401 q 325 298 308 355 q 354 339 342 322 q 378 365 367 356 q 453 401 416 401 q 505 385 485 401 q 526 345 526 373 q 516 316 526 325 q 485 305 507 307 q 451 339 451 305 q 458 361 451 350 q 482 373 466 371 q 471 384 477 382 l 451 384 q 381 343 418 384 q 332 270 356 315 l 338 202 l 338 121 l 338 109 q 345 34 338 56 q 379 12 352 12 q 440 47 401 12 q 552 190 478 83 l 560 199 l 569 197 l 569 193 l 560 175 q 475 58 506 93 q 372 -7 417 -7 q 272 21 308 -7 q 222 119 236 49 q 168 35 197 65 q 79 -7 127 -7 q 22 6 45 -7 q 0 47 0 20 q 11 81 0 69 q 40 93 23 93 q 79 55 79 93 q 51 18 79 18 q 79 8 62 9 q 157 54 116 8 q 217 150 175 76 l 211 207 l 212 253 l 222 303 l 228 331 l 230 355 q 204 384 230 384 q 135 343 173 384 l 6 173 "},",":{"x_min":-29.5625,"x_max":151,"ha":174,"o":"m 151 52 q 142 13 151 33 q 76 -66 130 -16 q -10 -134 32 -105 l -29 -145 l -19 -134 l 45 -79 q 81 -18 81 -43 l 77 -1 q 62 46 62 20 q 73 87 62 73 q 107 101 84 101 q 137 88 127 101 q 151 52 148 76 "},"d":{"x_min":-14,"x_max":659.296875,"ha":479,"o":"m 474 174 l 480 181 l 488 178 l 491 174 l 487 162 q 409 59 437 88 q 294 -13 344 -13 q 235 3 252 -13 q 219 48 219 20 q 219 73 219 60 q 224 93 223 87 q 161 24 194 51 q 83 -7 120 -7 q 12 25 38 -7 q -14 108 -14 58 q 65 291 -14 208 q 273 380 151 380 q 320 367 303 380 q 341 332 337 355 l 555 751 l 659 763 l 309 72 q 291 21 291 39 q 304 7 291 8 q 403 78 341 7 l 474 174 m 135 216 q 59 38 59 75 q 82 7 59 7 q 173 59 120 7 q 246 154 206 95 q 288 230 267 191 q 324 305 305 262 l 329 319 q 318 350 329 337 q 285 365 308 363 q 221 340 251 365 q 135 216 185 308 "},"\"":{"x_min":200,"x_max":450,"ha":354,"o":"m 202 556 l 200 560 l 202 569 q 243 656 223 605 l 268 726 q 297 751 276 751 q 315 744 306 751 q 323 726 323 737 q 312 698 323 710 l 263 641 q 212 562 241 614 l 202 556 m 329 556 l 325 560 l 329 569 q 368 655 351 608 l 393 726 q 422 751 401 751 q 441 743 434 746 q 450 726 448 739 q 437 698 450 713 l 388 641 q 337 562 366 614 l 329 556 "},"ê":{"x_min":-22.921875,"x_max":533,"ha":517,"o":"m 82 0 l -22 0 l 165 370 l 99 294 q 4 170 46 229 l 0 165 q -10 173 -4 165 l -4 184 q 45 253 18 219 q 111 332 72 287 l 178 407 l 190 419 l 302 432 l 82 0 m 533 377 q 521 347 533 359 q 492 336 510 336 q 461 345 474 336 q 450 376 452 353 l 454 399 q 414 338 433 395 q 389 293 403 306 q 353 276 375 280 q 395 199 395 255 q 389 161 395 177 l 372 120 q 353 58 353 86 q 371 35 353 36 q 454 100 404 35 l 515 187 l 522 194 l 526 196 l 533 190 l 533 184 l 526 173 q 417 35 464 79 q 330 -8 370 -8 q 274 10 292 -8 q 259 61 259 28 q 271 132 259 94 q 309 195 284 169 l 335 226 q 343 251 341 238 q 335 272 343 263 l 304 266 l 290 265 q 239 285 241 265 q 280 308 239 308 q 312 301 297 308 l 339 286 q 403 344 383 286 q 413 371 408 360 q 424 389 418 381 q 447 408 429 398 q 488 419 464 419 q 521 406 509 419 q 533 377 530 395 "},"„":{"x_min":7,"x_max":339,"ha":424,"o":"m 254 140 q 264 176 254 161 q 298 191 274 191 q 339 145 339 191 q 333 111 339 127 q 276 45 322 82 l 197 -12 l 164 -31 l 161 -31 l 173 -22 l 226 15 q 275 81 275 56 l 269 96 q 254 140 254 116 m 100 140 q 110 176 100 161 q 144 191 120 191 q 185 145 185 191 q 179 111 185 127 q 122 45 168 82 l 43 -12 l 11 -31 l 7 -31 l 19 -22 l 72 15 q 120 81 120 56 l 115 96 q 100 140 100 116 "},"ч":{"x_min":-12,"x_max":482.4375,"ha":465,"o":"m 4 170 l -3 164 q -8 168 -6 165 q -12 173 -10 172 l -6 184 l 106 343 l 100 376 q 112 416 100 400 q 143 432 124 432 q 169 405 169 432 q 163 384 169 395 q 144 362 156 373 q 206 299 160 299 q 342 358 252 299 l 375 388 l 404 411 q 425 419 415 419 q 443 398 440 419 q 396 280 443 365 l 333 173 l 283 87 q 263 25 263 45 q 281 7 263 8 q 399 101 326 7 l 465 194 l 478 203 l 482 198 l 476 182 q 371 43 426 97 q 321 5 344 18 q 276 -8 297 -8 q 210 15 233 -8 q 188 75 188 41 q 236 225 188 148 q 319 329 265 270 q 188 264 242 264 q 114 323 135 264 l 64 255 l 4 170 "},"Â":{"x_min":34,"x_max":1108,"ha":1060,"o":"m 34 113 q 98 218 34 176 q 243 261 163 261 l 263 261 q 274 261 271 261 l 277 255 q 124 215 192 255 q 56 114 56 175 q 101 33 56 64 q 212 2 146 2 q 361 66 291 2 q 487 243 419 120 q 610 502 535 328 q 724 716 666 635 q 898 879 800 826 q 822 903 864 895 q 717 912 780 912 q 332 778 480 912 q 209 531 209 666 q 239 435 209 470 q 320 401 270 401 q 510 530 443 401 q 560 751 560 628 l 563 765 l 568 753 l 578 698 l 582 638 q 529 463 582 529 q 324 382 464 382 q 221 420 260 382 q 185 530 185 461 q 315 790 185 672 q 490 894 392 859 q 713 929 589 929 q 783 927 751 929 q 856 920 815 926 q 940 899 897 915 q 997 908 973 908 l 1029 905 l 1018 905 q 987 902 998 905 q 959 893 974 902 q 1067 810 1028 868 q 1108 680 1108 754 q 1070 560 1108 612 q 952 473 1032 507 q 1040 322 1040 437 q 966 101 1040 204 q 759 -17 881 -17 q 665 8 697 -17 q 638 78 638 33 q 671 201 638 138 q 791 295 713 280 q 702 217 745 283 q 671 155 682 187 q 660 91 660 123 q 724 12 660 12 q 883 169 816 12 q 936 385 936 295 q 913 456 936 433 l 877 443 q 843 439 864 439 q 788 468 788 439 q 851 499 788 499 l 883 494 l 922 485 q 981 559 960 509 q 1002 682 1002 609 q 981 798 1002 752 q 925 864 960 843 q 815 708 864 799 q 715 445 767 617 q 475 56 636 167 q 214 -17 368 -17 q 82 16 135 -17 q 34 113 34 49 m 850 482 q 806 464 806 482 q 839 452 806 452 q 870 456 858 452 l 898 468 l 879 477 q 850 482 868 482 "},"Í":{"x_min":105,"x_max":1405,"ha":1146,"o":"m 126 105 q 150 37 126 66 q 221 11 177 11 q 343 66 288 11 q 439 216 389 112 q 476 303 450 240 q 530 433 502 366 q 477 413 505 425 q 410 380 450 401 q 314 320 338 344 l 307 318 l 303 320 l 310 331 q 400 395 339 361 q 535 454 460 429 q 610 631 571 563 q 724 781 655 712 l 648 748 q 549 727 585 727 q 498 740 518 727 q 477 786 477 753 l 479 830 q 459 854 479 851 q 385 813 429 854 q 317 731 348 777 l 303 713 l 300 711 l 298 715 l 304 734 q 417 855 349 809 q 521 896 477 896 q 560 882 548 896 q 573 825 573 869 l 574 788 q 610 758 581 758 q 728 807 643 758 q 856 910 820 860 l 868 918 l 874 920 q 886 910 884 920 l 879 895 l 826 809 l 775 697 l 735 586 q 721 538 727 555 q 708 498 716 522 l 788 520 l 876 541 q 1112 848 981 747 q 1303 926 1213 926 q 1376 900 1348 926 q 1405 831 1405 875 q 1388 764 1405 793 q 1336 700 1371 735 q 1186 611 1284 655 q 1028 556 1106 576 l 964 405 q 927 309 942 350 q 896 221 911 268 q 864 76 864 118 q 914 11 864 11 q 1055 74 984 11 q 1142 189 1102 117 l 1152 198 l 1157 201 l 1163 195 l 1153 175 q 1032 32 1089 73 q 909 -8 975 -8 q 789 36 832 -8 q 749 167 749 84 q 868 519 749 278 q 817 510 836 513 q 776 500 798 506 q 698 475 740 491 q 498 121 606 237 q 221 -8 377 -8 q 135 23 167 -8 q 112 57 120 39 q 105 100 105 76 q 168 205 105 170 l 181 211 l 186 205 l 177 194 q 139 158 153 181 q 126 105 126 136 m 1302 701 q 1351 819 1351 745 q 1336 882 1351 860 q 1291 904 1321 904 q 1173 838 1221 904 q 1035 580 1134 787 q 1167 624 1089 588 q 1302 701 1259 665 "},"´":{"x_min":-84.234375,"x_max":529.890625,"ha":361,"o":"m 317 298 q 261 68 317 140 q 71 -4 206 -4 q -29 30 -2 -4 l -67 -65 q -74 -74 -71 -72 q -78 -77 -76 -76 q -84 -66 -85 -77 l -42 46 l -42 60 q -18 86 -42 86 q 0 68 0 86 q -18 47 0 58 q 66 14 5 14 q 187 109 142 14 q 209 175 197 130 q 240 295 221 220 q 287 431 264 401 q 393 476 319 476 l 452 472 q 507 484 486 472 q 529 507 516 488 q 504 457 529 475 q 436 440 478 440 l 402 440 l 378 447 q 331 413 347 447 q 317 298 317 376 "},"Ú":{"x_min":159,"x_max":919,"ha":929,"o":"m 178 691 q 197 625 178 648 q 256 603 217 603 q 335 638 306 603 q 365 736 365 673 l 365 780 l 365 792 l 369 792 q 389 715 389 754 q 353 624 389 660 q 260 589 317 589 q 185 615 211 589 q 159 689 159 641 q 171 760 159 723 q 195 818 183 797 q 217 855 200 827 q 326 976 263 933 q 429 1014 381 1014 q 469 1001 456 1014 q 488 955 483 989 q 494 895 488 911 q 524 879 500 879 q 635 909 568 879 q 771 1015 720 947 q 795 1028 778 1028 q 813 1014 811 1028 l 807 1000 l 763 918 l 700 776 l 663 691 l 599 554 l 655 577 q 718 586 680 586 q 850 533 793 586 q 919 359 919 469 q 818 90 919 198 q 581 -17 718 -17 q 421 31 479 -17 q 349 210 349 91 q 371 342 349 274 q 435 490 393 409 l 527 656 q 580 747 554 705 q 642 840 606 788 l 690 909 q 584 863 638 883 q 471 839 513 839 q 393 901 393 839 l 398 955 q 379 975 398 973 q 304 933 350 975 q 232 848 258 891 q 178 691 178 761 m 468 163 q 488 52 468 97 q 554 7 509 7 q 749 168 666 7 q 820 433 820 305 q 792 527 820 494 q 707 561 764 561 q 669 559 680 561 q 637 549 657 558 l 589 524 q 501 337 526 404 q 468 163 468 247 "},"Ý":{"x_min":101,"x_max":848,"ha":776,"o":"m 510 548 q 546 527 534 548 q 570 502 553 511 q 607 493 586 493 q 663 502 635 493 q 685 515 674 505 l 692 515 l 689 508 q 629 476 677 498 q 600 465 624 473 q 560 458 577 458 q 518 481 534 458 q 498 499 513 493 q 456 508 482 505 l 420 504 l 382 493 l 374 493 l 370 493 l 379 501 l 438 528 q 510 548 488 548 m 101 179 q 146 324 101 268 q 269 380 191 380 q 359 352 325 380 q 394 278 394 325 q 365 203 394 239 q 282 154 336 167 l 278 154 l 283 161 q 332 216 312 180 q 352 283 352 251 q 334 342 352 322 q 271 363 317 363 q 167 310 209 363 q 125 182 125 257 q 170 57 125 106 q 308 8 216 8 q 603 211 471 8 q 727 626 727 406 q 688 835 727 777 q 571 893 650 893 q 401 835 467 893 q 336 695 336 778 q 352 644 336 664 q 394 624 369 624 q 467 660 431 624 q 509 773 509 704 q 514 787 509 782 l 514 787 l 520 774 q 477 649 520 699 q 374 600 435 600 q 309 624 338 600 q 283 689 283 651 q 367 849 283 781 q 575 917 452 917 q 778 823 709 917 q 848 570 848 729 q 682 167 848 349 q 310 -14 517 -14 q 153 40 206 -14 q 101 179 101 95 "},"И":{"x_min":141,"x_max":1263.28125,"ha":1094,"o":"m 824 276 l 1132 890 l 1263 900 l 895 173 q 860 60 860 103 q 904 11 860 11 q 1001 72 944 11 q 1089 187 1040 117 l 1097 195 l 1102 197 l 1107 190 q 1102 173 1107 180 q 1015 61 1049 94 q 891 -8 948 -8 q 797 21 823 -8 q 772 97 772 50 q 772 133 772 122 l 783 171 q 679 40 736 89 q 571 -8 622 -8 q 445 39 487 -8 q 409 154 409 82 q 413 203 409 178 q 428 261 417 228 q 495 410 446 318 q 554 513 518 455 q 635 643 589 571 q 681 792 681 715 q 644 897 681 855 q 533 939 607 939 q 263 807 378 939 q 159 560 159 687 q 188 466 159 502 q 279 430 218 430 q 429 560 371 430 q 477 771 477 667 l 475 798 l 481 809 l 481 814 l 486 809 l 493 791 q 509 672 509 734 q 458 493 509 561 q 278 413 397 413 q 175 453 209 413 q 141 561 141 494 q 247 818 141 694 q 532 956 367 956 q 717 885 652 956 q 761 810 746 851 q 777 715 777 769 q 770 641 777 677 q 733 539 763 605 q 661 397 704 473 l 550 211 q 509 81 509 140 q 571 11 509 11 q 753 157 646 11 q 824 276 792 211 "},"р":{"x_min":-221.8125,"x_max":555.78125,"ha":542,"o":"m 224 251 l -120 -414 l -221 -414 l 239 484 l 105 305 l 8 171 l -4 161 q -13 170 -12 161 l -7 183 l 116 355 q 277 560 199 466 l 332 668 l 444 688 l 274 349 q 321 389 300 376 q 386 408 353 408 q 463 374 432 408 q 495 293 495 341 q 469 209 495 252 q 393 133 444 165 q 314 39 314 83 q 352 9 314 9 q 459 81 393 9 q 539 190 504 132 l 548 196 q 555 186 553 193 l 548 171 q 459 53 483 79 q 339 -8 401 -8 q 263 11 287 -8 q 239 62 239 30 q 298 162 239 118 q 389 261 357 207 q 419 345 419 306 q 380 393 419 393 q 301 352 345 393 q 224 251 257 312 "},"т":{"x_min":-11.0625,"x_max":837.171875,"ha":828,"o":"m 424 411 q 497 384 470 411 q 517 330 517 361 l 515 306 q 578 376 545 345 q 655 411 621 411 q 708 387 688 411 q 727 327 727 363 q 714 261 727 296 q 673 186 701 225 q 627 108 645 147 q 610 47 610 69 q 646 14 610 14 q 749 93 684 14 l 817 184 l 831 196 l 837 187 l 830 171 q 794 119 812 143 q 763 78 777 96 q 630 -8 694 -8 q 555 10 582 -8 q 528 72 528 28 q 551 163 528 111 l 632 305 q 662 376 662 356 q 646 392 662 390 q 563 335 617 392 q 475 222 517 285 l 362 0 l 256 0 l 423 326 l 433 348 l 437 372 q 417 392 437 390 q 359 357 394 392 q 326 318 351 348 q 263 237 302 289 l 142 0 l 33 0 l 209 332 l 219 354 l 224 374 q 209 386 224 384 q 91 291 168 386 l 4 173 l -2 169 l -11 176 l -6 183 l 115 345 q 222 411 177 411 q 279 387 259 411 q 298 331 298 363 l 295 309 q 351 374 327 352 q 424 411 390 411 "},"П":{"x_min":26,"x_max":1466.28125,"ha":1238,"o":"m 906 830 l 748 872 q 626 893 673 893 q 322 776 441 893 q 218 548 218 673 q 242 466 218 499 q 317 436 269 436 q 480 558 416 436 q 533 764 533 659 l 533 776 q 564 656 564 728 q 511 493 564 558 q 322 414 448 414 q 197 548 197 414 q 309 794 197 685 q 652 919 438 919 q 705 919 678 919 q 746 913 733 914 q 959 897 920 897 q 1038 894 981 897 q 1105 891 1095 891 l 1280 880 q 1391 896 1351 880 q 1466 954 1432 912 q 1381 831 1431 865 q 1189 793 1320 793 q 1033 803 1106 793 q 906 830 960 813 m 978 -8 q 858 51 902 -8 q 815 211 815 110 q 892 468 815 330 q 1062 697 953 576 q 1127 755 1092 733 q 1149 768 1130 756 q 1188 788 1169 780 l 1194 790 q 1107 693 1149 751 q 1023 551 1065 634 q 932 228 932 369 q 958 103 932 146 q 1066 51 991 51 q 1092 51 1078 51 q 1124 57 1113 55 l 1159 63 l 1163 61 l 1148 47 q 1067 7 1119 26 q 978 -8 1019 -8 m 570 389 q 670 615 640 558 q 867 801 740 747 l 871 800 l 869 797 q 778 651 823 763 l 706 425 q 660 299 682 352 q 613 204 638 246 q 463 50 553 103 q 210 -8 363 -8 q 69 33 119 -8 q 26 119 26 69 q 97 229 26 187 q 246 271 169 271 l 257 271 l 269 267 l 271 263 q 116 224 184 263 q 48 122 48 186 q 79 50 48 81 q 200 13 121 13 q 384 81 306 13 q 570 389 471 158 "},"Ö":{"x_min":107,"x_max":1229.21875,"ha":1124,"o":"m 750 171 q 645 41 702 90 q 537 -7 588 -7 q 411 40 454 -7 q 375 155 375 83 q 393 258 375 202 q 429 347 406 298 q 491 463 452 395 q 601 641 530 531 q 649 793 649 719 q 614 895 649 857 q 500 939 573 939 q 229 806 344 939 q 125 559 125 687 q 155 465 125 501 q 246 429 185 429 q 398 559 339 429 q 445 771 445 666 l 441 799 l 445 813 l 452 813 l 459 794 q 475 674 475 737 q 424 493 475 562 q 244 412 363 412 q 141 452 177 412 q 107 560 107 495 q 213 818 107 694 q 498 956 333 956 q 684 885 618 956 q 743 715 743 822 q 736 639 743 677 q 698 537 729 601 q 599 352 662 456 l 516 212 q 475 82 475 137 q 537 12 475 12 q 719 158 612 12 q 790 276 758 212 l 1098 890 l 1229 900 l 860 173 q 828 59 828 107 q 872 12 828 12 q 948 51 914 12 l 987 106 l 1000 120 l 1004 122 l 1009 114 q 1000 49 1009 90 l 988 -7 l 1025 12 q 1063 40 1041 21 l 1069 34 l 1066 25 q 1025 -7 1057 15 l 988 -31 l 975 -95 q 952 -165 966 -139 q 887 -224 931 -224 q 841 -174 841 -224 q 885 -79 841 -124 q 966 -17 915 -46 l 977 27 l 987 69 q 932 10 957 28 q 906 0 925 6 q 859 -7 887 -7 q 768 21 797 -7 q 739 97 739 50 l 739 132 l 750 171 m 961 -40 l 898 -90 q 860 -172 860 -129 q 887 -205 860 -205 q 930 -158 907 -205 l 948 -100 l 961 -40 "},"z":{"x_min":-108,"x_max":458.65625,"ha":442,"o":"m 78 79 l 28 11 q -3 -6 13 -5 q -18 6 -17 -6 q 1 46 -18 26 q 60 85 21 66 l 154 191 l 232 284 q 196 287 212 286 q 172 291 180 288 q 116 312 144 295 l 66 246 l 11 167 l 1 163 l -5 169 l -1 181 l 99 319 q 68 358 68 332 q 98 377 68 377 q 124 365 112 377 q 136 340 133 356 l 128 323 q 240 301 168 301 q 329 380 286 358 q 382 396 360 396 q 410 373 408 396 q 366 316 410 343 q 257 284 328 295 l 86 94 l 128 101 l 176 105 q 267 89 235 105 q 308 25 300 73 q 385 95 343 41 l 442 179 l 450 186 l 458 181 l 454 170 q 374 62 403 93 q 313 11 339 23 q 232 -238 313 -106 q 11 -394 135 -394 q -69 -375 -38 -394 q -108 -298 -108 -352 q -15 -137 -108 -212 q 224 -8 60 -78 l 224 7 q 205 66 224 48 q 138 85 186 85 l 108 83 l 78 79 m -86 -300 q -73 -348 -86 -328 q -2 -373 -54 -373 q 130 -235 55 -373 q 218 -26 191 -122 q -24 -169 47 -97 q -86 -300 -86 -230 "},"™":{"x_min":147,"x_max":503,"ha":454,"o":"m 285 782 l 285 789 q 262 810 285 810 l 238 810 l 199 663 l 219 663 l 217 656 l 153 656 l 156 663 l 174 663 l 213 810 l 191 810 q 153 782 166 810 l 147 782 l 160 817 l 297 817 l 292 782 l 285 782 m 291 663 l 308 663 l 348 810 l 331 810 l 332 817 l 372 817 l 384 695 l 456 817 l 503 817 l 501 810 l 483 809 l 442 662 l 461 663 l 460 656 l 399 656 l 400 663 l 418 662 l 454 798 l 369 656 l 363 656 l 351 789 l 316 663 l 335 663 l 334 656 l 289 656 l 291 663 "},"ã":{"x_min":19,"x_max":374.5625,"ha":361,"o":"m 67 312 l 62 316 l 63 320 l 71 333 q 139 380 96 359 q 224 401 181 401 q 319 375 287 401 q 351 303 351 349 q 312 209 351 248 q 223 161 284 181 q 110 112 136 130 q 84 56 84 94 q 139 7 84 7 q 280 87 203 7 l 356 187 l 370 199 l 374 193 q 367 175 370 180 q 292 73 331 117 q 134 -8 214 -8 q 55 15 87 -8 q 19 90 19 43 q 57 193 19 150 q 143 249 85 223 l 229 286 q 273 324 271 302 q 258 360 273 349 q 216 372 244 372 q 148 356 183 372 q 84 319 115 345 l 73 313 l 67 312 "},"æ":{"x_min":-21,"x_max":1017.890625,"ha":1008,"o":"m 829 383 l 801 309 l 768 204 l 744 121 l 735 58 q 782 11 735 11 q 906 67 845 11 q 999 181 954 109 l 1008 189 l 1017 182 l 1015 173 q 885 30 949 76 q 778 -8 830 -8 q 672 87 672 -8 q 699 222 672 157 l 728 291 l 759 354 q 630 245 701 324 q 535 127 567 179 q 484 0 503 75 l 372 0 l 431 172 q 470 276 455 237 q 497 334 477 293 q 370 220 429 278 q 256 92 322 171 q 185 17 227 43 q 73 -8 142 -8 q 3 13 27 -8 q -21 73 -21 34 q -3 127 -21 107 q 41 147 13 147 q 81 131 66 147 q 97 91 97 119 q 81 51 97 66 q 42 36 66 36 q 0 60 15 36 q 76 11 4 11 q 186 84 138 11 q 216 147 198 105 q 255 250 233 188 l 272 301 l 278 334 q 269 371 278 355 q 226 393 257 393 q 165 366 195 393 q 123 301 136 340 q 110 282 119 284 q 101 296 102 282 q 145 379 101 334 q 251 424 188 424 q 311 403 287 424 q 335 339 335 383 q 322 255 335 300 q 275 143 309 211 q 355 234 302 184 q 425 299 388 267 q 508 367 461 330 l 522 401 l 609 401 l 523 146 l 577 218 l 640 284 q 772 382 705 349 q 906 415 839 415 q 943 402 931 415 q 955 373 952 391 q 942 344 955 356 q 913 332 930 332 q 883 341 896 332 q 872 372 872 352 q 878 397 872 385 q 829 383 852 397 "},"É":{"x_min":141.671875,"x_max":1263.890625,"ha":1094,"o":"m 825 276 l 1133 890 l 1263 900 l 895 173 q 861 59 861 104 q 904 8 861 8 q 1026 101 950 8 q 1090 187 1061 141 l 1098 195 l 1102 197 l 1108 190 l 1102 173 q 1016 61 1050 94 q 893 -8 950 -8 q 799 25 825 -8 q 773 102 773 58 q 780 158 773 133 l 784 170 q 680 41 737 90 q 572 -6 623 -6 q 445 40 488 -6 q 409 155 409 83 q 413 204 409 179 q 429 262 418 229 q 495 411 447 319 q 554 513 519 455 q 636 643 590 572 q 681 793 681 715 q 645 897 681 855 q 534 938 608 938 l 529 938 q 262 806 376 938 q 159 559 159 687 q 189 465 159 501 q 280 429 219 429 q 430 559 372 429 q 477 770 477 666 l 476 793 l 476 798 l 479 809 l 481 813 q 495 791 490 813 q 512 672 512 734 q 461 493 512 561 q 280 412 400 412 q 176 453 211 412 q 141 561 141 494 q 248 818 141 694 q 533 955 368 955 q 718 884 652 955 q 762 810 747 851 q 777 715 777 769 l 777 676 l 772 650 q 637 354 755 548 l 551 212 q 509 81 509 141 q 524 27 509 47 q 570 8 538 8 q 720 113 633 8 q 825 276 783 188 m 700 913 q 736 961 702 952 q 806 948 769 969 q 831 919 806 940 q 830 895 815 918 q 823 869 816 883 q 866 825 802 852 q 1033 850 920 786 q 1030 881 1033 863 q 1047 915 1030 901 q 1084 931 1065 929 q 1127 898 1118 930 q 1112 833 1138 900 q 1075 804 1090 811 q 920 763 1012 775 q 772 804 800 768 q 700 913 731 833 "},"и":{"x_min":44,"x_max":616.234375,"ha":597,"o":"m 612 206 l 616 200 q 610 183 613 186 q 525 64 557 100 q 407 -8 462 -8 q 329 12 353 -8 q 305 76 305 33 q 309 116 305 94 q 324 165 313 137 q 336 195 328 177 q 355 236 343 212 l 328 190 l 296 137 q 227 47 255 76 q 137 -8 175 -8 q 44 93 44 -8 q 53 153 44 119 q 79 224 62 187 l 154 395 l 285 404 l 170 173 l 134 98 q 120 42 120 61 q 149 13 120 13 q 210 51 171 13 q 282 146 239 80 l 345 251 l 391 336 l 418 395 l 555 404 l 412 124 q 386 43 386 68 q 412 9 386 9 q 537 107 460 9 q 595 192 559 133 l 605 201 l 612 206 "},"~":{"x_min":79.5625,"x_max":312.890625,"ha":371,"o":"m 79 294 l 82 304 q 108 334 90 325 q 150 345 126 343 l 175 344 l 203 336 l 229 323 q 264 312 246 315 q 299 333 286 312 l 305 340 l 312 336 l 310 323 q 279 294 301 306 q 236 284 260 287 l 204 286 q 178 295 196 286 l 155 308 q 130 315 147 312 q 94 297 107 315 l 87 290 l 79 294 "},"³":{"x_min":-11,"x_max":339,"ha":314,"o":"m 145 395 l 272 404 l 101 79 q 93 41 93 59 q 100 15 93 26 q 123 6 108 7 q 232 79 170 6 q 304 181 261 112 l 313 188 l 319 193 l 325 186 l 319 173 q 247 75 270 104 q 120 -8 176 -8 q 45 20 70 -8 q 19 91 19 48 q 34 150 19 124 l 125 337 l 7 175 l 0 169 l -11 174 l -2 191 l 70 294 l 145 395 m 292 619 q 326 605 313 619 q 339 570 339 592 q 322 527 339 546 q 276 508 306 508 q 238 521 251 508 q 226 553 226 534 q 243 599 226 580 q 292 619 260 619 "},"¡":{"x_min":123,"x_max":1116.0625,"ha":929,"o":"m 735 1007 q 747 1035 735 1022 q 778 1048 760 1048 q 804 1035 792 1048 q 816 1007 813 1024 q 796 972 816 983 q 894 933 839 933 q 1002 969 949 933 q 991 997 993 979 q 1003 1032 991 1018 q 1034 1048 1016 1046 q 1073 1008 1073 1048 q 1062 978 1073 996 q 1023 942 1052 960 q 962 914 995 923 q 894 905 929 905 q 775 944 826 905 q 735 1007 735 973 m 342 204 l 385 204 l 392 200 l 382 199 q 251 176 306 199 q 181 86 181 147 q 215 10 181 34 q 319 -14 249 -14 q 468 15 401 -14 q 646 173 564 58 q 731 330 671 208 l 824 520 l 657 315 q 503 235 570 235 q 415 266 445 235 q 385 348 385 297 q 391 391 385 369 q 404 441 395 419 q 485 584 424 494 l 534 655 q 579 738 563 700 q 596 809 596 776 q 567 870 596 845 q 475 893 538 893 q 228 788 328 893 q 142 593 142 695 q 164 518 142 546 q 232 491 187 491 q 372 587 314 491 q 420 751 420 669 l 420 775 l 420 785 l 420 792 q 427 787 424 790 q 436 769 431 783 q 445 731 441 755 q 449 689 449 707 q 399 538 449 597 q 232 472 342 472 q 150 505 182 472 q 123 595 123 540 q 213 801 123 706 q 480 910 317 910 q 648 854 592 910 q 694 733 694 808 q 692 704 694 719 q 686 668 691 689 q 649 593 681 647 q 586 495 634 565 l 529 411 q 492 344 504 373 q 477 291 479 315 q 517 257 477 257 q 663 353 571 257 q 850 602 754 450 q 960 738 892 672 q 1093 845 1028 805 l 1111 852 l 1116 848 l 1113 843 q 1102 829 1109 834 q 1006 712 1043 781 q 947 569 977 656 l 893 391 q 815 224 859 284 q 572 14 711 77 q 324 -31 468 -31 q 131 70 131 -31 q 196 167 131 131 q 342 204 261 204 "},"[":{"x_min":-106.9375,"x_max":538.890625,"ha":315,"o":"m 529 895 l 433 895 l -44 -75 l 68 -75 l 58 -96 l -106 -96 l 393 919 l 538 919 l 529 895 "},"":{"x_min":-14,"x_max":615.171875,"ha":601,"o":"m 440 326 q 377 400 440 400 q 280 331 338 400 q 191 198 241 284 l 89 0 l -14 0 l 301 619 l 190 619 l 199 640 l 313 640 q 371 805 371 758 q 319 856 371 856 q 233 819 265 856 q 209 783 217 803 q 201 738 201 764 q 194 725 196 729 l 191 722 q 179 740 179 722 q 215 830 179 788 q 319 878 258 878 q 377 871 354 878 q 420 845 401 864 q 450 766 450 818 q 418 640 450 705 l 552 640 l 540 619 l 404 618 l 259 336 q 331 406 296 388 q 370 421 353 418 q 404 425 387 425 q 497 386 462 425 q 532 279 532 347 q 477 91 532 204 q 418 -17 461 55 q 515 68 459 0 q 599 193 558 120 l 608 199 l 615 190 l 612 179 q 526 57 558 94 q 402 -40 459 -26 q 263 -224 352 -135 q 27 -350 140 -350 q -14 -322 -14 -350 q 93 -180 -14 -275 q 299 -52 201 -86 q 345 38 321 -11 q 390 143 365 80 q 440 326 440 268 m 4 -316 q 27 -333 4 -333 q 176 -238 90 -333 q 236 -163 206 -205 q 291 -76 266 -121 q 199 -121 245 -92 q 102 -195 152 -151 q 4 -316 4 -278 "},"К":{"x_min":7,"x_max":1286.171875,"ha":1085,"o":"m 957 690 q 1065 849 1037 821 q 1258 926 1141 926 q 1279 926 1273 926 l 1286 921 l 1280 919 l 1262 914 q 1111 831 1151 905 l 1050 695 q 958 567 1012 617 q 838 496 904 516 q 852 455 846 482 q 858 397 858 427 l 863 251 q 865 150 863 194 q 872 61 866 105 q 901 18 877 18 q 1008 91 943 18 q 1086 197 1044 133 q 1095 211 1090 207 l 1100 213 l 1105 206 l 1104 199 l 1095 183 q 1045 111 1066 139 q 1004 62 1020 78 q 873 -8 937 -8 q 710 130 710 -8 q 710 157 710 144 q 713 187 710 171 l 728 253 l 756 350 q 789 489 789 464 q 722 500 747 489 q 698 530 698 512 q 708 545 698 537 q 734 554 719 554 q 789 544 765 554 q 826 516 815 536 q 957 690 864 537 m 438 281 l 495 430 q 576 611 530 519 q 646 723 605 672 q 710 793 664 747 l 623 753 q 516 728 560 728 q 461 744 479 728 q 443 797 443 761 l 443 819 q 439 845 443 838 q 422 854 436 852 q 352 811 397 854 q 284 731 318 777 l 270 713 l 266 711 q 275 734 268 723 q 381 853 318 811 q 491 896 445 896 q 527 882 515 896 q 540 826 540 869 q 547 774 540 784 q 577 761 555 763 q 705 804 635 761 q 808 898 763 837 q 829 911 816 911 q 836 904 832 909 q 838 901 836 902 l 833 890 q 773 790 798 840 l 733 683 l 631 391 q 564 237 594 287 q 403 53 501 124 q 192 -17 305 -17 q 62 16 112 -17 q 7 115 7 55 q 77 221 7 179 q 225 263 147 263 l 238 263 l 254 258 l 243 255 q 104 218 166 255 q 32 114 32 175 q 80 32 32 64 q 193 2 133 2 q 349 102 276 2 q 438 281 394 164 m 730 540 q 715 535 722 540 l 715 531 q 731 511 715 522 q 789 503 748 503 q 774 527 789 515 q 730 540 759 540 "},"%":{"x_min":65,"x_max":509,"ha":556,"o":"m 71 2 l 65 4 q 73 28 65 11 q 184 207 126 121 l 282 336 l 368 447 q 454 570 415 508 l 469 581 l 476 573 l 472 561 q 432 490 450 520 q 386 420 414 461 l 310 313 l 204 183 q 85 15 141 103 q 76 2 81 6 l 71 2 m 509 220 q 463 89 509 163 q 339 4 407 4 q 287 34 309 4 q 266 107 266 64 q 275 161 266 137 q 347 251 292 209 q 452 290 403 290 q 494 271 479 290 q 509 220 509 252 m 310 522 q 263 390 310 465 q 139 306 207 306 q 86 335 108 306 q 65 410 65 365 q 74 462 65 442 q 147 552 91 512 q 252 592 203 592 q 295 573 280 592 q 310 522 310 554 m 310 52 q 343 10 310 10 q 438 75 393 10 q 484 225 484 141 q 477 264 484 249 q 450 282 470 279 q 351 183 401 282 q 310 52 310 99 m 108 355 q 143 314 108 314 q 239 379 193 314 q 285 529 285 444 q 277 566 285 551 q 251 584 270 581 q 150 486 200 584 q 108 355 108 403 "},"P":{"x_min":32,"x_max":947,"ha":750,"o":"m 758 794 q 691 812 730 806 q 635 820 652 819 q 609 821 619 821 q 254 696 390 821 q 139 468 139 592 q 166 380 139 412 q 244 348 193 348 q 408 472 336 348 q 470 675 470 580 l 470 688 l 471 683 q 480 644 477 664 q 484 598 484 623 q 436 423 484 492 q 250 331 375 331 q 154 368 187 331 q 121 468 121 406 q 241 708 121 596 q 611 838 383 838 q 665 838 641 838 q 715 832 688 838 q 750 826 738 829 q 794 814 762 824 q 874 832 833 832 l 892 832 l 897 832 l 893 830 q 857 823 875 830 q 821 805 840 819 q 899 750 876 776 q 947 637 947 700 q 844 456 947 533 q 623 367 754 391 q 444 70 561 166 q 191 -13 341 -13 q 88 17 136 -13 q 32 120 32 55 q 56 180 32 154 q 112 207 81 207 q 183 132 183 207 q 159 70 183 95 q 90 46 135 46 q 111 30 99 38 q 143 13 122 21 q 194 6 163 6 q 377 135 286 6 q 483 336 426 203 q 383 297 434 325 l 375 295 l 380 304 l 437 336 q 464 342 443 338 q 491 348 486 347 l 536 467 q 656 700 584 607 q 758 794 706 763 m 630 383 q 791 458 741 412 q 850 630 850 515 q 834 721 850 686 q 793 774 823 753 q 700 601 741 708 q 630 383 659 494 "},"_":{"x_min":0,"x_max":383.328125,"ha":374,"o":"m 0 -16 l 383 -16 l 383 -33 l 0 -33 l 0 -16 "},"ñ":{"x_min":0,"x_max":402.78125,"ha":397,"o":"m 390 345 q 376 312 390 327 q 340 298 363 298 q 315 304 326 298 q 297 339 297 316 q 306 369 297 357 q 339 383 316 381 l 346 383 q 320 393 338 390 q 177 272 258 393 q 97 65 97 151 q 151 9 97 9 q 290 64 222 9 q 384 178 343 106 l 394 186 l 398 188 l 402 182 l 397 164 q 270 29 341 72 q 143 -8 209 -8 q 39 30 79 -8 q 0 128 0 68 q 87 319 0 229 q 295 410 174 410 q 390 345 390 410 "},"‚":{"x_min":-52.78125,"x_max":164,"ha":186,"o":"m 60 52 q 72 94 60 77 q 114 111 84 111 q 151 95 140 111 q 164 56 164 83 q 155 15 164 40 q 86 -65 143 -18 q -8 -135 48 -96 l -47 -156 l -52 -156 l -37 -144 q -2 -122 -13 -130 q 27 -98 1 -119 q 86 -20 86 -52 l 77 -2 l 65 24 l 60 52 "},"Æ":{"x_min":-21,"x_max":1454,"ha":1289,"o":"m 1244 853 l 1186 675 q 1147 549 1168 620 q 1116 441 1133 500 q 1091 329 1100 371 q 1073 240 1082 288 q 1066 177 1069 206 q 1064 122 1064 149 q 1076 42 1064 72 q 1122 13 1088 13 q 1222 87 1165 13 l 1288 194 l 1297 201 l 1301 203 l 1308 196 l 1304 184 l 1233 69 q 1116 -8 1175 -8 q 998 46 1040 -8 q 960 193 960 101 q 1007 436 960 298 q 1056 563 1029 501 q 1111 680 1083 626 q 1144 742 1125 709 q 1193 818 1163 775 q 1102 740 1151 788 q 1038 673 1069 706 q 972 594 1004 634 q 798 337 852 443 q 685 0 735 215 l 563 0 q 624 185 594 95 q 692 377 655 275 q 852 768 774 597 q 794 702 824 740 q 727 611 764 665 q 596 416 672 534 l 484 242 q 432 166 456 199 q 392 112 409 133 q 272 16 339 49 q 99 -17 205 -17 q 13 10 47 -17 q -21 79 -21 37 q -14 116 -21 101 q 0 135 -9 133 q 6 123 5 132 l 4 108 l 0 79 q 29 21 0 45 q 101 2 59 2 q 260 59 194 2 q 381 228 326 117 q 484 480 413 295 q 534 645 518 581 q 557 789 557 739 q 458 894 557 894 q 357 846 401 894 q 314 722 314 799 q 302 702 314 704 q 293 731 295 709 q 349 867 293 813 q 480 921 405 921 q 587 886 548 921 q 633 750 633 844 q 594 529 633 658 q 561 430 581 484 q 517 325 541 376 q 737 657 658 542 l 880 851 l 919 921 l 1008 921 q 960 815 983 866 q 909 690 938 763 q 787 359 842 527 q 904 538 827 434 q 1037 701 970 629 q 1213 861 1137 812 q 1355 911 1290 911 q 1427 873 1399 911 q 1454 781 1454 833 q 1434 695 1454 733 q 1416 675 1426 675 l 1413 680 q 1420 701 1413 690 q 1436 778 1436 736 q 1415 858 1436 822 q 1362 894 1395 894 q 1297 884 1322 894 q 1244 853 1273 875 "},"ы":{"x_min":-7,"x_max":795.765625,"ha":788,"o":"m 476 175 q 416 118 441 133 q 374 103 391 103 q 351 108 360 103 q 279 30 324 67 q 172 -13 223 -13 q 84 20 116 -13 q 53 104 53 53 q 71 186 53 147 l 172 400 l 97 301 l 8 177 l 1 171 l -7 177 l -4 187 q 154 401 93 329 l 294 418 l 170 173 q 131 48 131 92 q 175 2 131 2 q 212 7 196 2 q 255 29 229 13 q 340 116 305 61 q 280 173 306 134 q 254 249 254 212 q 261 277 254 265 q 284 290 269 290 q 340 256 311 290 q 369 171 369 221 l 366 147 l 361 122 l 376 120 q 411 133 390 120 q 467 187 433 146 l 545 291 l 622 398 l 630 405 l 765 418 l 643 176 l 611 103 q 592 31 594 55 q 607 8 592 9 q 707 81 646 8 q 776 179 732 111 l 786 190 l 790 192 l 795 183 l 790 169 q 701 46 733 81 q 593 -13 646 -13 q 535 2 554 -13 q 516 56 516 17 q 545 180 516 99 q 641 388 575 260 l 563 286 l 476 175 "},"ª":{"x_min":144,"x_max":923,"ha":813,"o":"m 670 676 q 699 643 670 643 q 811 701 753 643 q 870 824 870 759 q 850 875 870 856 q 792 895 831 895 q 557 759 688 895 q 352 456 439 634 q 266 158 266 279 q 297 52 266 92 q 395 13 328 13 q 598 101 513 13 q 672 267 672 182 q 651 333 672 310 q 585 356 631 356 q 500 321 530 356 q 479 285 486 304 q 473 240 473 265 q 489 167 473 201 l 489 160 l 489 156 q 437 253 437 187 q 472 335 437 300 q 581 371 507 371 q 665 345 637 371 q 694 262 694 319 q 617 89 694 171 q 395 -4 528 -4 q 205 68 267 -4 q 144 273 144 140 q 350 685 144 466 q 789 917 567 917 q 885 887 848 917 q 923 816 923 858 q 843 690 923 753 q 700 628 763 628 q 666 640 681 628 q 655 675 657 651 q 672 737 655 703 q 724 798 690 771 l 735 805 l 739 805 l 742 805 l 737 799 q 690 741 711 778 q 670 676 670 704 m 528 570 q 570 547 557 570 q 591 520 575 532 q 628 514 602 516 q 672 520 649 514 q 707 536 695 527 l 713 536 l 719 530 l 716 523 q 657 494 700 512 q 587 477 614 477 q 549 492 559 477 q 521 516 539 508 q 481 525 503 525 q 438 519 460 525 l 407 512 l 400 511 l 394 516 l 402 525 l 473 555 q 528 570 503 568 "},"ї":{"x_min":-11,"x_max":399,"ha":314,"o":"m 145 395 l 272 404 l 101 79 q 93 41 93 59 q 100 15 93 26 q 123 6 108 7 q 232 79 170 6 q 304 181 261 112 l 313 188 l 319 193 l 325 186 l 319 173 q 247 75 270 104 q 120 -8 176 -8 q 45 20 70 -8 q 19 91 19 48 q 34 150 19 124 l 125 337 l 7 175 l 0 169 l -11 174 l -2 191 l 70 294 l 145 395 m 107 557 q 124 600 107 581 q 169 619 141 619 q 206 603 192 619 q 220 569 218 592 q 203 527 220 546 q 158 508 187 508 q 120 522 133 508 q 107 557 107 537 m 286 557 q 303 600 286 581 q 348 619 320 619 q 385 603 371 619 q 399 569 397 592 q 382 527 399 546 q 337 508 366 508 q 299 522 312 508 q 286 557 286 537 "},"Œ":{"x_min":107,"x_max":1367,"ha":1386,"o":"m 1070 930 l 1207 943 l 1017 563 q 1040 570 1026 565 q 1088 582 1054 575 q 1148 589 1122 589 q 1311 519 1250 589 q 1367 359 1367 455 q 1250 87 1367 199 q 1002 -17 1141 -17 q 827 41 889 -17 q 766 201 766 99 q 793 347 766 269 q 868 519 814 411 l 765 494 q 723 484 740 488 q 698 475 706 479 q 649 355 673 408 q 595 251 626 302 q 443 68 523 129 q 222 -8 341 -8 q 137 23 168 -8 q 115 58 123 39 q 107 101 107 77 q 122 160 107 134 q 169 205 137 186 l 182 211 l 187 205 l 177 194 q 139 158 153 181 q 126 105 126 136 q 151 37 126 68 q 221 7 176 7 q 405 145 326 7 q 530 433 424 179 q 478 413 505 425 q 410 380 451 401 q 315 320 338 344 l 308 318 l 304 320 l 311 331 q 412 401 336 359 q 536 454 468 429 q 570 545 554 506 q 605 622 586 584 q 725 781 655 716 l 648 748 q 548 727 586 727 q 483 774 483 727 l 484 793 l 491 818 l 497 847 q 477 859 497 859 q 392 813 447 859 q 318 731 348 776 l 304 713 l 300 711 l 297 715 l 305 734 q 417 855 349 809 q 521 896 477 896 q 561 882 549 896 q 573 826 573 869 q 581 772 573 786 q 610 758 589 758 q 728 806 645 758 q 856 909 820 859 l 868 918 l 876 920 q 887 911 886 920 l 879 895 q 779 706 822 809 q 708 498 756 648 l 790 522 l 876 541 l 1070 930 m 879 175 q 911 52 879 97 q 1002 7 944 7 q 1204 179 1123 7 q 1268 433 1268 319 q 1141 563 1268 563 q 1061 550 1105 563 l 1004 535 q 913 330 947 429 q 879 175 879 230 "},"T":{"x_min":19,"x_max":1057.890625,"ha":697,"o":"m 178 504 q 202 428 178 456 q 276 400 227 400 q 423 516 362 400 q 472 710 472 613 l 472 722 q 500 611 500 677 q 451 459 500 520 q 276 385 393 385 q 190 416 220 385 q 161 503 161 448 q 270 732 161 623 q 585 856 397 856 q 651 851 613 856 q 749 836 688 847 l 824 824 l 895 819 q 991 834 956 819 q 1025 855 1010 844 q 1057 888 1041 867 q 1003 791 1045 832 q 871 740 949 740 q 783 756 828 740 l 706 791 l 622 822 q 555 832 587 832 q 275 716 388 832 q 178 504 178 615 m 481 272 l 560 483 q 646 648 605 599 q 708 707 678 687 q 784 745 738 727 q 731 670 755 719 q 696 559 716 637 l 670 441 q 659 394 663 408 q 634 311 648 351 q 472 73 580 154 q 195 -8 364 -8 q 69 28 120 -8 q 19 122 19 64 q 39 181 19 157 q 92 206 60 206 q 163 132 163 206 q 139 76 163 100 q 74 53 115 53 q 124 22 93 34 q 154 13 138 16 q 196 11 170 11 q 373 88 299 11 q 481 272 430 147 "},"š":{"x_min":-41,"x_max":680,"ha":681,"o":"m 235 174 q 318 294 285 241 q 348 345 331 313 q 380 404 366 376 l 499 414 l 470 354 l 436 275 q 485 305 456 293 q 549 317 514 317 q 636 289 603 317 q 680 190 680 254 q 627 56 680 115 q 462 -14 564 -14 q 344 24 388 -14 q 301 124 301 62 q 317 228 301 179 q 380 359 334 277 l 314 256 l 242 154 l 171 68 q 28 -7 100 -7 q -21 8 -2 -7 q -41 55 -41 24 q -25 92 -41 77 q 14 108 -10 108 q 67 55 67 108 q 61 26 67 37 q 37 8 55 16 q 161 84 90 8 l 235 174 m 387 100 q 457 3 387 3 q 553 74 504 3 q 602 220 602 145 q 536 293 602 293 q 474 276 507 293 q 424 238 452 263 l 399 169 q 387 100 387 127 "},"є":{"x_min":-7,"x_max":402.71875,"ha":397,"o":"m 390 344 q 377 312 390 328 q 340 298 363 298 q 315 304 326 298 q 297 339 297 316 q 346 383 297 383 q 320 393 338 390 q 174 275 252 393 q 97 65 97 157 q 145 6 97 6 q 284 59 213 6 q 386 178 342 105 l 397 187 l 402 178 l 398 164 q 287 41 354 90 q 143 -8 220 -8 q 33 28 73 -8 q -7 135 -7 64 q 74 316 -7 230 q 295 410 165 410 q 390 344 390 410 m 236 251 q 276 219 259 251 q 315 187 288 187 q 341 194 329 187 l 362 206 l 370 206 l 373 206 l 369 199 l 329 172 q 308 163 317 166 q 284 161 298 161 q 245 191 263 161 q 199 221 226 221 l 177 216 l 154 204 l 145 201 l 151 212 q 173 227 166 223 q 198 239 190 235 q 236 251 216 248 "},"Þ":{"x_min":43,"x_max":1512,"ha":1429,"o":"m 562 602 q 630 713 588 659 q 691 781 659 751 l 612 747 q 518 728 556 728 q 467 738 486 728 q 448 773 448 748 l 456 813 l 465 847 q 444 859 465 859 q 359 813 413 859 q 284 731 315 776 l 270 713 l 266 711 q 274 734 268 723 q 381 853 317 811 q 491 896 445 896 q 527 882 515 896 q 540 825 540 869 q 546 772 540 787 q 577 758 553 758 q 698 807 611 758 q 825 910 785 856 q 843 920 833 918 q 853 913 850 920 l 853 897 q 785 789 805 827 q 745 697 765 751 l 683 523 l 767 544 l 855 562 q 956 712 899 645 q 1130 856 1035 802 q 1381 920 1249 920 q 1484 882 1448 920 q 1512 800 1512 851 q 1512 771 1512 776 q 1502 755 1512 762 l 1502 752 l 1498 759 l 1498 771 l 1501 799 q 1476 866 1501 837 q 1385 903 1444 903 q 1170 819 1266 903 q 965 501 1062 723 q 923 398 939 439 q 887 299 907 357 q 853 118 853 186 q 874 33 853 64 q 948 3 896 3 q 1167 128 1062 3 q 1331 443 1273 254 l 1364 568 q 1383 698 1383 654 q 1369 767 1383 741 q 1324 793 1356 793 q 1105 579 1209 793 q 1034 385 1058 480 q 1011 197 1011 290 l 1011 171 l 1011 154 l 1011 145 l 1006 145 l 1000 163 l 1000 204 q 1101 605 1000 400 q 1326 810 1203 810 q 1396 776 1373 810 q 1413 739 1407 759 q 1419 687 1419 718 q 1403 566 1419 632 l 1370 440 q 1201 127 1320 258 q 952 -14 1077 -14 q 799 47 850 -14 q 749 213 749 109 q 822 494 749 341 q 782 486 801 490 q 739 475 764 481 l 657 451 l 623 368 q 576 273 602 320 q 425 79 507 150 q 191 -8 320 -8 q 80 24 118 -8 q 43 105 43 57 q 63 175 43 143 q 122 224 83 208 l 134 229 l 140 226 l 143 223 l 131 213 q 83 170 104 199 q 65 111 65 141 q 96 36 65 66 q 191 7 127 7 q 376 148 292 7 q 438 281 409 205 l 562 602 "},"j":{"x_min":-413.890625,"x_max":293.0625,"ha":281,"o":"m 6 162 l -1 155 l -11 161 l -4 175 l 134 368 l 247 375 l 51 -12 q 163 40 116 4 q 276 173 209 77 l 286 180 l 293 175 l 288 162 q 177 25 226 62 q 40 -33 127 -11 l -15 -145 l -48 -209 q -173 -338 -94 -287 q -249 -377 -211 -363 q -322 -391 -287 -391 q -388 -370 -363 -391 q -413 -313 -413 -350 q -318 -176 -413 -238 q -179 -97 -248 -133 l -62 -43 l 122 320 l 65 241 l 6 162 m 276 416 q 262 377 276 395 q 220 359 248 359 q 184 372 200 359 q 173 406 176 383 q 188 447 173 430 q 230 463 204 463 q 263 450 251 463 q 276 416 276 437 m -273 -173 q -350 -243 -323 -205 q -370 -280 -363 -262 q -377 -319 -377 -298 q -363 -362 -377 -348 q -325 -376 -350 -376 q -233 -331 -279 -376 q -152 -226 -187 -290 l -119 -161 l -76 -68 l -177 -119 l -273 -173 "},"1":{"x_min":22.609375,"x_max":439.28125,"ha":389,"o":"m 22 0 l 392 533 l 211 411 l 53 309 l 37 304 l 32 308 l 35 313 l 43 323 q 294 484 100 355 l 429 574 l 435 578 l 439 573 q 282 208 343 373 q 232 0 232 68 l 22 0 "},"›":{"x_min":36.109375,"x_max":271,"ha":299,"o":"m 271 278 q 176 189 271 260 l 61 106 l 50 101 l 43 101 l 36 106 q 52 128 36 116 q 142 210 90 153 q 190 270 187 259 q 164 334 190 283 q 105 428 138 386 q 91 453 94 441 l 98 460 l 105 460 l 122 450 q 216 353 158 419 q 271 278 271 293 "},"ћ":{"x_min":-14,"x_max":672.109375,"ha":660,"o":"m 371 805 q 319 856 371 856 q 233 819 265 856 q 209 783 217 803 q 201 738 201 764 q 191 725 195 729 l 191 722 q 179 740 179 722 q 215 830 179 788 q 319 878 258 878 q 377 871 354 878 q 420 845 401 864 q 450 766 450 818 q 417 640 450 705 l 552 640 l 541 619 l 403 618 l 235 282 q 308 366 275 338 q 440 419 372 419 q 564 305 564 419 q 555 241 564 277 q 545 207 552 227 q 527 170 538 187 l 469 62 q 456 20 456 37 q 472 4 456 4 q 573 77 509 4 q 649 179 617 129 l 659 190 l 666 193 l 672 186 l 670 180 l 663 169 q 622 111 644 141 q 590 69 599 80 q 465 -14 519 -14 q 399 6 420 -14 q 381 59 381 29 q 402 140 381 91 l 435 213 l 466 281 q 479 345 479 315 q 429 397 479 397 q 276 308 359 397 q 161 140 222 248 l 91 0 l -14 -1 l 302 619 l 190 619 l 199 640 l 313 640 q 371 805 371 758 "},"<":{"x_min":68,"x_max":302.78125,"ha":336,"o":"m 68 268 q 127 329 68 281 l 279 439 l 293 447 l 297 447 l 302 440 q 298 433 300 435 q 286 417 293 424 q 193 330 250 388 q 142 266 144 277 q 169 208 142 251 q 190 176 180 190 q 234 119 209 147 q 243 104 241 108 q 247 94 245 100 l 241 88 l 234 88 l 218 97 q 123 191 177 131 q 68 268 69 252 "},"Ц":{"x_min":107,"x_max":1229.21875,"ha":1124,"o":"m 750 171 q 645 41 702 90 q 537 -7 588 -7 q 411 40 454 -7 q 375 155 375 83 q 393 258 375 202 q 429 347 406 298 q 491 463 452 395 q 601 641 530 531 q 649 793 649 719 q 614 895 649 857 q 500 939 573 939 q 229 806 344 939 q 125 559 125 687 q 155 465 125 501 q 246 429 185 429 q 398 559 339 429 q 445 771 445 666 l 441 799 l 445 813 l 452 813 l 459 794 q 475 674 475 737 q 424 493 475 562 q 244 412 363 412 q 141 452 177 412 q 107 560 107 495 q 213 818 107 694 q 498 956 333 956 q 684 885 618 956 q 743 715 743 822 q 736 639 743 677 q 698 537 729 601 q 599 352 662 456 l 516 212 q 475 82 475 137 q 537 12 475 12 q 719 158 612 12 q 790 276 758 212 l 1098 890 l 1229 900 l 860 173 q 828 59 828 107 q 872 12 828 12 q 948 51 914 12 l 987 106 l 1000 120 l 1004 122 l 1009 114 q 1000 49 1009 90 l 988 -7 l 1025 12 q 1063 40 1041 21 l 1069 34 l 1066 25 q 1025 -7 1057 15 l 988 -31 l 975 -95 q 952 -165 966 -139 q 887 -224 931 -224 q 841 -174 841 -224 q 885 -79 841 -124 q 966 -17 915 -46 l 977 27 l 987 69 q 932 10 957 28 q 906 0 925 6 q 859 -7 887 -7 q 768 21 797 -7 q 739 97 739 50 l 739 132 l 750 171 m 961 -40 l 898 -90 q 860 -172 860 -129 q 887 -205 860 -205 q 930 -158 907 -205 l 948 -100 l 961 -40 "},"t":{"x_min":-8.328125,"x_max":432.53125,"ha":296,"o":"m 299 630 l 401 639 l 324 487 l 420 488 l 431 483 l 432 479 l 417 473 l 316 472 l 125 97 l 112 66 l 108 38 q 131 8 108 8 q 238 98 169 8 l 293 175 l 298 182 l 305 175 l 301 161 q 216 47 248 82 q 116 -11 162 -11 q 49 10 70 -11 q 27 71 27 32 q 44 138 27 101 l 179 397 l 5 161 l -2 156 l -8 162 l -3 174 l 82 295 l 219 475 l 299 630 "},"¬":{"x_min":77.78125,"x_max":400,"ha":488,"o":"m 400 286 l 337 286 l 337 348 l 77 348 l 77 411 l 400 411 l 400 286 "},"ù":{"x_min":-11.109375,"x_max":894.453125,"ha":853,"o":"m 686 -6 q 609 15 636 -6 q 581 90 581 38 q 601 173 581 123 l 627 236 l 570 137 q 502 44 529 72 q 412 -6 455 -6 q 311 86 311 -6 q 329 172 311 119 l 355 236 l 297 137 q 204 27 247 62 q 131 -8 162 -8 q 65 20 88 -8 q 41 95 41 50 q 72 205 41 143 l 137 344 l 76 268 l 5 173 l 0 166 l -11 175 l -5 186 l 58 272 l 151 395 l 286 404 l 147 130 l 131 86 q 123 43 123 61 q 145 12 123 13 q 209 51 170 12 q 283 145 241 83 l 345 250 l 391 336 l 419 395 l 554 404 l 412 123 q 390 43 390 83 q 415 8 390 8 q 502 69 454 8 l 556 145 l 618 248 l 663 336 l 691 395 l 827 404 l 686 123 l 666 83 q 656 40 659 61 q 690 8 656 8 q 751 25 726 8 q 771 42 761 31 q 819 113 781 52 l 873 220 l 887 229 l 894 213 l 797 -8 l 859 23 l 865 25 l 868 20 l 863 12 l 831 -8 l 794 -27 q 784 -84 788 -61 q 775 -118 779 -106 q 715 -186 755 -186 q 688 -174 698 -186 q 677 -140 677 -162 q 716 -66 677 -105 q 780 -18 734 -48 l 793 45 q 747 4 773 15 q 686 -6 722 -6 m 694 -140 q 716 -172 694 -170 q 751 -134 736 -172 q 776 -37 763 -98 q 713 -91 726 -77 q 694 -140 694 -118 "},"Ф":{"x_min":12,"x_max":1188,"ha":1203,"o":"m 694 224 q 503 27 605 84 q 197 -35 391 -35 q 12 70 12 -35 q 73 168 12 131 q 214 205 135 205 l 264 201 q 138 177 189 201 q 62 83 62 145 q 93 14 62 35 q 199 -7 125 -7 q 356 18 298 -7 q 527 173 445 55 q 582 273 549 206 l 625 368 q 546 318 592 339 q 441 292 489 292 q 338 328 380 292 q 297 421 297 364 q 363 611 297 515 q 589 729 448 729 q 693 705 650 729 q 753 648 739 684 q 782 698 764 669 q 821 756 800 727 q 952 893 878 829 q 885 848 914 868 q 832 816 855 829 q 680 768 742 768 q 622 781 643 768 q 601 826 601 794 l 601 865 q 595 880 601 875 q 577 885 589 885 q 549 878 566 885 q 505 848 532 872 q 439 773 466 815 l 430 762 l 427 759 l 423 768 l 428 778 q 535 895 471 853 q 645 937 599 937 q 681 924 669 937 q 694 864 694 911 q 701 814 694 830 q 732 799 709 799 q 858 851 773 799 q 980 951 943 904 q 998 960 988 960 q 1017 947 1014 960 l 1012 935 q 916 779 959 878 l 859 641 q 945 690 893 669 q 1045 708 999 708 q 1149 673 1110 708 q 1188 581 1188 638 q 1134 377 1188 466 q 935 258 1065 258 q 840 280 883 258 q 765 363 790 308 l 737 302 l 694 224 m 635 686 q 573 674 602 686 q 514 635 544 662 q 451 536 484 608 q 418 418 418 463 q 438 358 418 384 q 492 332 459 332 q 559 351 520 332 q 642 413 608 375 l 738 622 q 702 667 731 649 q 635 686 673 686 m 899 298 q 1020 400 967 298 q 1069 602 1069 495 q 993 672 1069 672 q 849 603 923 672 q 835 546 841 566 q 818 499 824 516 q 780 395 796 431 q 841 317 802 343 q 899 298 871 298 "},"ï":{"x_min":-12,"x_max":621.328125,"ha":610,"o":"m 262 237 l 140 0 l 31 0 l 207 332 l 218 355 l 225 377 q 211 390 225 390 q 92 288 175 390 q 3 170 51 240 l -5 164 l -12 172 l -6 183 l 72 297 q 217 411 161 411 q 285 384 267 411 q 297 327 297 365 l 294 306 q 364 380 328 349 q 435 411 400 411 q 485 388 467 411 q 504 326 504 365 q 493 259 504 293 q 453 186 482 224 q 404 109 424 147 q 384 46 384 71 q 424 14 384 14 q 522 76 464 14 q 600 182 554 112 l 615 194 l 621 187 l 615 173 q 497 25 546 65 q 415 -8 457 -8 q 336 11 360 -8 q 313 83 313 30 q 326 147 313 108 q 368 238 339 186 l 419 320 q 443 371 440 353 q 421 390 443 388 q 337 334 392 390 q 262 237 283 278 "},"Ò":{"x_min":26,"x_max":1682.9375,"ha":1421,"o":"m 945 844 l 766 876 q 631 893 671 893 q 328 770 452 893 q 249 663 275 717 q 223 548 223 609 q 248 466 223 499 q 323 436 274 436 q 485 558 423 436 q 538 764 538 660 l 541 776 l 544 776 q 553 757 551 764 q 562 728 556 749 q 569 695 567 707 q 570 660 570 683 q 519 495 570 560 q 328 414 455 414 q 234 448 267 414 q 204 543 204 486 q 322 787 204 670 q 659 919 458 919 l 1013 900 q 1126 896 1049 900 q 1227 893 1202 893 l 1489 881 q 1598 893 1562 881 q 1682 954 1634 905 q 1671 918 1677 933 q 1650 884 1664 904 q 1584 820 1627 845 q 1509 797 1556 806 q 1396 793 1467 793 q 1175 805 1282 793 q 1069 820 1120 812 q 945 844 1018 829 m 1187 -8 q 1078 29 1116 -8 q 1029 197 1029 78 q 1105 468 1029 323 q 1277 697 1171 598 q 1308 722 1289 709 q 1338 743 1326 736 q 1414 782 1377 766 l 1419 776 l 1412 769 q 1229 532 1319 699 q 1139 224 1139 364 q 1175 90 1139 131 q 1273 49 1211 49 l 1326 53 l 1367 61 l 1355 47 q 1187 -8 1271 -8 m 689 0 q 835 363 728 120 q 997 711 931 577 q 1054 761 1009 737 l 1132 794 l 1132 787 q 1015 566 1086 725 q 892 258 961 444 q 853 147 874 206 q 806 0 826 63 l 689 0 m 547 333 l 631 538 q 720 697 677 648 q 788 760 756 738 q 867 801 820 781 q 769 622 816 758 l 678 352 q 595 176 641 248 q 469 51 541 93 q 348 5 417 22 q 280 -3 317 0 q 210 -8 244 -8 q 63 33 112 -8 q 26 121 26 66 q 94 227 26 183 q 241 271 162 271 l 257 271 l 269 265 l 271 263 q 116 224 184 263 q 48 122 48 186 q 97 38 48 69 q 200 13 138 13 q 414 110 322 13 q 547 333 482 182 "},"О":{"x_min":76,"x_max":833,"ha":682,"o":"m 819 798 q 795 864 819 836 q 705 900 766 900 q 463 793 568 900 q 282 499 371 701 q 204 290 236 391 q 173 119 173 190 q 194 32 173 62 q 268 3 216 3 q 475 115 368 3 q 652 443 589 237 l 685 576 q 702 697 702 647 q 688 766 702 740 q 642 793 674 793 q 424 577 526 793 q 332 196 332 376 l 332 164 q 326 142 332 143 l 323 147 l 319 165 l 319 204 q 342 400 319 304 q 417 598 366 496 q 645 810 521 810 q 714 776 691 810 q 737 687 737 740 q 723 576 737 637 l 689 440 q 520 127 634 258 q 271 -14 396 -14 q 121 60 174 -14 q 76 241 76 127 q 93 381 76 306 q 137 513 110 456 q 330 774 212 672 q 541 890 427 854 q 699 917 628 917 q 803 879 767 917 q 833 801 833 848 l 828 770 q 821 755 827 761 l 817 752 l 813 759 l 814 770 q 819 798 819 781 "},"&":{"x_min":39,"x_max":760,"ha":761,"o":"m 290 577 q 328 669 290 637 q 418 701 366 701 q 512 662 473 701 q 552 570 552 623 q 521 487 552 523 q 378 401 478 437 q 408 345 390 379 q 444 273 426 311 q 494 157 481 198 l 534 295 q 595 375 559 351 q 672 400 629 400 q 734 383 709 400 q 760 335 760 366 q 747 303 760 315 q 710 290 734 292 q 674 300 689 290 q 659 334 659 310 l 659 349 l 664 370 l 659 376 q 555 290 601 376 l 531 214 l 508 125 q 547 3 531 69 q 563 -118 563 -62 q 471 -321 563 -250 q 257 -381 390 -381 q 93 -342 147 -381 q 39 -243 39 -304 q 84 -138 39 -183 q 209 -90 129 -98 l 219 -90 q 234 -97 233 -90 q 227 -102 232 -98 q 212 -106 222 -105 q 99 -155 141 -115 q 58 -241 58 -196 q 103 -322 58 -289 q 240 -356 149 -356 q 435 -296 361 -356 q 519 -93 519 -229 l 514 -16 l 491 93 q 417 16 466 46 q 303 -13 369 -13 q 138 42 199 -13 q 86 164 86 91 q 145 305 86 242 q 342 415 204 369 q 304 501 318 458 q 290 577 290 545 m 528 571 q 496 646 528 614 q 418 680 466 680 q 350 657 380 680 q 314 577 314 630 q 368 422 314 512 q 473 473 434 442 q 528 571 528 514 m 165 174 q 195 71 165 116 q 310 15 235 15 q 413 43 371 15 q 480 119 455 72 q 425 256 466 165 q 354 393 384 348 q 219 312 266 363 q 165 174 165 255 "},"":{"x_min":244,"x_max":1070.390625,"ha":1054,"o":"m 933 463 q 873 541 933 541 q 740 469 817 541 q 583 269 658 393 l 468 0 l 345 0 l 614 618 l 531 619 l 541 640 l 625 640 l 659 718 q 680 775 675 757 l 675 784 l 670 781 l 591 741 q 496 717 532 717 q 455 728 471 717 q 431 773 431 743 q 437 815 431 791 l 444 846 q 424 860 444 858 q 346 818 395 860 q 269 730 312 788 l 255 717 l 249 711 l 244 717 l 253 736 q 359 850 299 805 q 470 896 419 896 q 500 889 492 896 q 513 866 507 883 q 519 820 519 850 q 525 773 519 788 q 556 758 532 758 q 674 805 589 758 q 806 909 766 856 l 816 915 l 825 905 q 803 794 814 830 q 794 765 800 783 q 775 722 788 748 l 742 639 l 877 640 l 867 619 l 734 618 l 631 372 q 724 482 677 436 q 887 563 809 563 q 999 522 959 563 q 1040 411 1040 482 q 996 237 1040 354 q 889 14 953 121 q 977 87 931 32 q 1053 197 1009 127 l 1063 203 l 1070 196 l 1067 184 q 989 73 1021 111 q 876 -12 933 4 q 815 -106 848 -62 q 735 -195 783 -150 q 500 -321 611 -321 q 457 -291 457 -321 q 554 -149 457 -240 q 752 -23 652 -59 q 802 80 776 21 q 863 226 828 140 q 933 463 933 407 m 475 -285 q 499 -304 475 -304 q 601 -253 547 -304 q 742 -46 669 -189 q 565 -163 656 -80 q 475 -285 475 -246 "},"I":{"x_min":32,"x_max":847.28125,"ha":656,"o":"m 111 209 q 158 189 137 209 q 179 134 179 170 q 155 75 179 99 q 86 51 131 51 q 205 3 123 3 q 343 77 277 3 q 448 297 409 152 q 349 354 385 318 q 301 473 301 402 q 484 754 301 634 q 847 861 652 861 q 791 812 823 852 q 699 647 744 752 q 597 304 647 516 q 691 347 650 304 q 731 454 731 390 l 726 493 l 725 504 l 727 511 l 731 513 l 734 509 l 742 483 l 746 452 q 715 347 746 390 q 592 289 673 289 q 435 48 555 126 q 204 -15 337 -15 q 93 15 141 -15 q 32 119 32 52 q 55 185 32 161 q 111 209 79 209 m 358 451 q 391 352 358 393 q 452 313 416 323 q 615 691 499 533 q 793 845 706 816 q 453 675 570 798 q 358 451 358 575 "},"G":{"x_min":112,"x_max":976,"ha":915,"o":"m 569 187 q 771 287 667 187 q 891 437 831 342 l 900 443 q 912 434 909 443 l 909 429 q 835 294 878 390 q 739 1 787 180 q 848 83 792 17 l 914 177 l 924 183 l 930 177 l 925 169 l 834 46 q 738 -15 785 -2 q 689 -154 712 -107 q 587 -294 648 -246 q 439 -376 506 -354 q 298 -399 371 -399 q 189 -372 228 -399 q 151 -293 151 -346 q 246 -155 151 -221 q 585 -31 356 -82 q 625 111 600 52 q 692 203 650 171 q 635 177 662 186 q 568 169 609 169 q 414 212 473 169 q 338 330 355 256 q 171 405 234 341 q 112 575 112 471 q 195 785 112 703 q 436 901 279 867 l 435 895 q 251 787 316 853 q 175 572 175 702 q 205 430 175 483 q 333 351 245 362 l 331 395 q 474 723 331 572 q 863 890 632 890 q 946 860 917 890 q 976 777 976 830 q 914 602 976 694 q 717 417 843 496 q 653 385 689 402 q 567 354 617 369 q 449 331 518 339 q 569 187 449 187 m 198 -291 q 311 -375 198 -375 q 357 -371 343 -375 q 384 -363 370 -368 q 411 -354 398 -359 q 535 -220 493 -319 q 580 -51 552 -181 q 286 -159 375 -101 q 198 -291 198 -218 m 957 777 q 936 845 957 819 q 867 872 915 872 q 581 674 724 872 q 449 350 449 490 q 512 358 485 352 q 571 373 539 363 q 707 434 642 394 q 895 608 828 506 q 957 777 957 701 "},"`":{"x_min":43.0625,"x_max":181.9375,"ha":239,"o":"m 181 447 l 175 440 l 165 443 l 62 498 q 43 529 45 509 q 52 555 43 545 q 80 568 62 565 q 111 550 94 568 l 177 456 l 181 447 "},"·":{"x_min":158,"x_max":265,"ha":376,"o":"m 265 303 q 249 261 265 280 q 206 242 233 242 q 171 255 184 242 q 158 290 158 268 q 173 333 158 315 q 216 352 189 352 q 251 338 238 352 q 265 303 265 325 "},"¿":{"x_min":-11,"x_max":399,"ha":314,"o":"m 145 395 l 272 404 l 101 79 q 93 41 93 59 q 100 15 93 26 q 123 6 108 7 q 232 79 170 6 q 304 181 261 112 l 313 188 l 319 193 l 325 186 l 319 173 q 247 75 270 104 q 120 -8 176 -8 q 45 20 70 -8 q 19 91 19 48 q 34 150 19 124 l 125 337 l 7 175 l 0 169 l -11 174 l -2 191 l 70 294 l 145 395 m 107 557 q 124 600 107 581 q 169 619 141 619 q 206 603 192 619 q 220 569 218 592 q 203 527 220 546 q 158 508 187 508 q 120 522 133 508 q 107 557 107 537 m 286 557 q 303 600 286 581 q 348 619 320 619 q 385 603 371 619 q 399 569 397 592 q 382 527 399 546 q 337 508 366 508 q 299 522 312 508 q 286 557 286 537 "},"ý":{"x_min":-8.328125,"x_max":491.515625,"ha":457,"o":"m 206 380 q 225 369 216 379 q 236 341 233 359 q 223 311 236 323 q 194 301 213 304 q 152 341 152 301 q 175 387 152 370 q 277 412 206 412 q 390 368 341 412 q 438 258 438 323 q 363 80 438 159 q 122 -12 273 -12 q 22 13 52 -12 q -8 83 -8 40 q 13 139 -8 118 q 68 161 34 161 l 95 156 q 105 144 102 156 q 101 139 104 141 q 97 136 98 137 l 86 138 l 66 141 q 29 126 44 141 q 13 87 13 113 q 37 29 13 51 q 120 8 61 8 q 277 119 212 8 q 336 318 336 218 q 320 372 336 352 q 276 393 308 393 q 234 390 245 393 q 206 380 222 390 m 163 266 q 207 235 194 266 q 254 204 220 204 q 281 209 269 204 l 304 223 l 313 226 l 316 223 l 311 216 l 266 188 q 239 179 248 181 q 218 177 230 177 q 176 198 188 177 q 154 227 168 220 q 126 237 141 234 l 102 231 l 77 219 l 70 216 l 66 219 l 73 229 l 112 252 q 163 266 140 263 m 372 100 l 483 229 q 462 169 506 222 q 341 59 431 130 l 287 29 l 372 100 "},"Ђ":{"x_min":244,"x_max":1070.390625,"ha":1054,"o":"m 933 463 q 873 541 933 541 q 740 469 817 541 q 583 269 658 393 l 468 0 l 345 0 l 614 618 l 531 619 l 541 640 l 625 640 l 659 718 q 680 775 675 757 l 675 784 l 670 781 l 591 741 q 496 717 532 717 q 455 728 471 717 q 431 773 431 743 q 437 815 431 791 l 444 846 q 424 860 444 858 q 346 818 395 860 q 269 730 312 788 l 255 717 l 249 711 l 244 717 l 253 736 q 359 850 299 805 q 470 896 419 896 q 500 889 492 896 q 513 866 507 883 q 519 820 519 850 q 525 773 519 788 q 556 758 532 758 q 674 805 589 758 q 806 909 766 856 l 816 915 l 825 905 q 803 794 814 830 q 794 765 800 783 q 775 722 788 748 l 742 639 l 877 640 l 867 619 l 734 618 l 631 372 q 724 482 677 436 q 887 563 809 563 q 999 522 959 563 q 1040 411 1040 482 q 996 237 1040 354 q 889 14 953 121 q 977 87 931 32 q 1053 197 1009 127 l 1063 203 l 1070 196 l 1067 184 q 989 73 1021 111 q 876 -12 933 4 q 815 -106 848 -62 q 735 -195 783 -150 q 500 -321 611 -321 q 457 -291 457 -321 q 554 -149 457 -240 q 752 -23 652 -59 q 802 80 776 21 q 863 226 828 140 q 933 463 933 407 m 475 -285 q 499 -304 475 -304 q 601 -253 547 -304 q 742 -46 669 -189 q 565 -163 656 -80 q 475 -285 475 -246 "},"º":{"x_min":-7,"x_max":402.71875,"ha":397,"o":"m 390 344 q 377 312 390 328 q 340 298 363 298 q 315 304 326 298 q 297 339 297 316 q 346 383 297 383 q 320 393 338 390 q 174 275 252 393 q 97 65 97 157 q 145 6 97 6 q 284 59 213 6 q 386 178 342 105 l 397 187 l 402 178 l 398 164 q 287 41 354 90 q 143 -8 220 -8 q 33 28 73 -8 q -7 135 -7 64 q 74 316 -7 230 q 295 410 165 410 q 390 344 390 410 m 236 251 q 276 219 259 251 q 315 187 288 187 q 341 194 329 187 l 362 206 l 370 206 l 373 206 l 369 199 l 329 172 q 308 163 317 166 q 284 161 298 161 q 245 191 263 161 q 199 221 226 221 l 177 216 l 154 204 l 145 201 l 151 212 q 173 227 166 223 q 198 239 190 235 q 236 251 216 248 "},"я":{"x_min":-47,"x_max":554.109375,"ha":540,"o":"m 40 5 q 105 31 75 5 q 152 97 125 50 q 231 197 190 164 q 298 232 245 208 q 230 250 263 232 q 185 318 185 273 q 218 397 185 363 q 321 436 257 436 q 385 425 358 436 q 428 391 413 415 l 440 417 l 547 418 l 396 120 l 376 75 q 368 35 368 50 q 380 17 368 19 q 459 79 405 17 q 537 184 498 126 l 547 194 q 554 184 551 191 l 551 176 q 476 71 511 112 q 361 -8 409 -8 q 303 8 328 -8 q 283 61 283 25 q 303 134 283 87 l 418 374 q 360 408 402 408 q 297 375 328 408 q 267 304 267 342 q 279 266 267 284 q 310 239 291 248 q 335 253 321 250 q 348 240 348 253 l 344 232 l 334 227 l 330 227 q 231 81 302 214 q 158 14 206 36 q 59 -8 111 -8 q -23 7 0 -8 q -47 55 -47 22 q -30 91 -47 75 q 8 107 -14 107 q 46 93 30 107 q 63 53 63 80 q 57 24 63 35 q 33 6 51 14 l 40 5 "},"Ё":{"x_min":150,"x_max":880,"ha":756,"o":"m 558 579 q 668 562 628 579 q 709 515 709 545 q 658 483 709 483 q 579 499 622 483 q 504 552 536 516 q 350 429 408 518 q 285 181 285 328 q 322 50 285 101 q 431 0 360 0 q 650 101 557 0 q 733 288 733 191 q 706 359 733 333 q 638 386 680 386 q 548 336 581 386 q 523 233 523 294 l 526 188 l 535 154 l 535 147 l 535 143 l 530 144 q 490 195 510 158 q 474 270 474 233 q 507 361 474 323 q 624 403 547 403 q 748 288 748 403 q 664 85 748 180 q 435 -17 572 -17 q 215 59 291 -17 q 150 230 150 127 q 239 456 150 360 q 485 574 329 552 l 474 600 l 426 600 q 266 627 328 600 q 182 738 182 663 q 270 898 182 836 q 483 959 358 959 l 497 955 l 487 951 q 301 891 364 938 q 239 754 239 844 q 315 640 239 674 q 450 615 369 615 l 464 615 l 455 642 l 455 669 q 529 834 455 763 q 733 906 604 906 q 817 884 790 906 q 845 826 845 862 q 792 708 845 765 q 641 623 734 645 l 558 609 l 558 579 m 650 1018 q 662 1053 650 1038 q 698 1069 675 1069 q 738 1025 738 1069 q 726 994 738 1009 q 690 977 714 979 q 650 1018 650 977 m 792 1018 q 804 1053 792 1038 q 840 1069 817 1069 q 880 1025 880 1069 q 863 986 880 1002 q 832 977 853 979 q 801 986 812 977 q 792 1018 793 996 m 563 562 q 602 514 575 528 q 657 500 629 500 q 691 516 691 500 q 657 545 691 528 q 586 562 624 562 l 563 562 m 627 636 q 774 718 715 657 q 827 825 827 773 q 806 869 827 850 q 787 881 800 874 q 753 888 774 888 q 618 819 678 888 q 555 623 555 743 l 627 636 "},";":{"x_min":-30,"x_max":195,"ha":199,"o":"m 195 318 q 181 279 195 297 q 140 261 167 261 q 109 273 119 261 q 96 308 98 286 q 110 347 96 330 q 150 364 125 364 q 182 350 169 364 q 195 318 195 337 m 151 52 q 142 13 151 33 q 75 -66 130 -16 q -10 -134 32 -105 l -30 -146 l -20 -134 l 45 -79 q 81 -18 81 -43 l 77 -1 q 62 46 62 20 q 73 87 62 73 q 107 101 84 101 q 137 88 127 101 q 151 52 148 76 "},"Г":{"x_min":26,"x_max":1376,"ha":856,"o":"m 877 825 q 842 833 857 829 q 798 848 827 837 q 627 879 684 879 q 320 762 443 879 q 216 543 216 662 q 242 462 216 493 q 320 431 268 431 q 480 546 416 431 q 532 752 532 644 l 534 776 l 537 776 q 563 658 563 729 q 510 493 563 559 q 321 414 448 414 q 228 448 261 414 q 198 543 198 486 q 314 789 198 674 q 652 919 448 919 q 785 911 702 919 q 834 906 799 911 q 916 895 870 902 l 1080 881 l 1145 881 q 1209 885 1180 881 q 1269 900 1238 889 q 1376 954 1323 918 q 1346 908 1367 933 q 1285 849 1319 873 q 1251 827 1270 836 q 1206 808 1232 818 q 1155 799 1185 803 q 1092 795 1125 795 q 995 799 1038 795 q 877 825 952 804 m 26 122 q 92 229 26 187 q 257 271 159 271 l 275 263 l 278 263 l 270 261 q 115 224 182 261 q 48 122 48 187 q 88 44 48 76 q 200 13 128 13 q 381 79 299 13 q 565 377 472 155 l 640 561 q 719 695 679 650 q 794 765 759 740 q 869 801 830 791 l 869 797 q 776 630 817 759 l 698 376 q 544 105 638 193 q 210 -8 421 -8 q 73 29 123 -8 q 26 122 26 68 "},"6":{"x_min":15,"x_max":471,"ha":485,"o":"m 430 186 q 370 54 430 112 q 292 5 337 22 q 189 -11 248 -11 q 63 48 112 -11 q 15 199 15 108 q 115 446 15 324 q 343 569 215 569 q 434 544 398 569 q 471 483 471 520 q 428 440 471 440 q 385 481 385 440 q 397 513 385 501 q 428 524 408 521 q 398 543 423 534 q 344 552 372 552 q 194 417 256 552 q 151 297 170 367 q 203 327 170 315 q 275 339 235 339 q 384 296 339 339 q 430 186 430 254 m 334 241 q 270 318 334 318 q 195 302 230 318 q 139 259 160 287 l 123 189 q 115 113 115 152 q 192 6 115 6 q 296 90 253 6 q 334 241 334 164 "},"Ь":{"x_min":87,"x_max":761,"ha":792,"o":"m 463 931 l 593 944 l 400 554 q 466 576 424 566 q 507 583 487 580 q 551 586 528 586 q 702 524 644 586 q 761 359 761 462 q 660 89 761 196 q 412 -17 559 -17 q 250 33 313 -17 q 180 205 180 91 q 228 426 180 294 q 248 479 234 442 q 298 594 263 515 l 227 520 q 174 473 205 498 q 106 422 143 448 l 96 418 l 92 416 l 87 419 l 89 425 l 100 436 q 242 565 166 481 l 335 673 l 463 931 m 276 173 q 312 54 276 102 q 398 7 348 7 q 600 173 517 7 q 647 305 630 240 q 664 433 664 370 q 634 529 664 497 q 543 561 604 561 q 462 551 499 561 q 388 524 424 542 q 317 362 353 461 q 276 173 276 245 "},"n":{"x_min":-11,"x_max":573.71875,"ha":564,"o":"m 130 0 l 27 0 l 193 308 l 205 333 l 210 351 q 196 363 210 361 q 83 265 162 363 l 2 158 l -4 153 l -11 159 q -6 171 -11 166 q 32 226 12 198 q 75 283 61 266 q 201 382 152 382 q 257 358 237 382 q 276 304 276 334 l 273 284 q 337 352 312 332 q 404 382 373 382 q 470 304 470 382 q 422 175 470 241 q 375 100 391 131 q 357 43 359 68 q 394 13 357 13 q 479 64 432 13 q 555 166 511 98 q 569 176 559 174 l 573 171 q 566 153 569 159 q 483 44 512 75 q 376 -8 433 -8 q 315 7 334 -8 q 290 77 290 26 q 303 141 290 104 q 338 215 316 177 l 387 293 q 413 344 413 330 q 396 363 413 360 q 317 313 367 363 q 244 220 268 263 l 130 0 "},"¤":{"x_min":0,"x_max":741.671875,"ha":833,"o":"m 557 144 q 469 93 521 115 q 368 75 418 75 q 182 142 265 75 l 40 0 l 0 40 l 140 180 q 88 268 108 218 q 72 370 72 316 q 88 471 72 422 q 140 559 105 520 l 0 700 l 39 740 l 180 600 q 368 667 262 667 q 469 648 423 667 q 558 597 518 632 l 698 741 l 737 699 l 598 556 q 664 370 664 476 q 597 184 664 268 l 741 40 l 701 0 l 557 144 m 368 611 q 198 540 268 611 q 128 371 128 470 q 198 200 128 269 q 368 131 269 131 q 537 201 467 131 q 608 371 608 271 q 537 540 608 469 q 368 611 467 611 "},"p":{"x_min":-207,"x_max":516.609375,"ha":504,"o":"m -112 -384 l -207 -385 l 221 452 l 87 277 l 4 159 l -4 151 l -11 151 l -13 156 l -8 169 l 141 379 q 208 464 190 441 q 256 522 216 475 l 308 620 l 408 638 l 254 324 q 274 344 261 333 q 296 360 287 355 q 359 379 328 379 q 432 350 404 379 q 460 279 460 322 q 439 195 460 233 q 365 123 418 156 q 292 36 292 79 q 325 7 292 7 q 412 57 364 7 q 501 176 443 88 l 511 182 l 516 175 l 512 162 q 419 43 454 77 q 317 -8 368 -8 q 223 65 223 -8 q 244 129 223 98 q 310 193 266 159 q 374 259 354 227 q 395 319 395 291 q 358 361 395 361 q 280 323 325 361 q 191 200 234 281 l -112 -384 "},"‡":{"x_min":218.0625,"x_max":437.5,"ha":340,"o":"m 400 575 l 405 570 l 397 559 l 351 565 l 331 559 l 279 441 q 263 401 269 418 q 247 351 256 384 q 231 337 243 338 q 218 354 219 337 q 250 447 218 382 l 308 561 l 286 559 l 244 549 l 236 548 l 229 551 l 226 554 l 240 565 l 281 577 l 315 582 l 338 627 l 309 617 l 276 613 l 266 612 l 259 617 l 256 617 l 272 627 l 309 637 l 347 644 l 365 674 l 381 700 l 391 707 l 395 707 l 402 701 l 390 680 l 370 646 l 401 644 l 431 639 l 437 632 q 432 628 436 630 q 427 627 429 627 l 390 627 l 361 627 l 340 582 q 375 582 363 582 l 400 575 "},"Ю":{"x_min":43,"x_max":1512,"ha":1429,"o":"m 562 602 q 630 713 588 659 q 691 781 659 751 l 612 747 q 518 728 556 728 q 467 738 486 728 q 448 773 448 748 l 456 813 l 465 847 q 444 859 465 859 q 359 813 413 859 q 284 731 315 776 l 270 713 l 266 711 q 274 734 268 723 q 381 853 317 811 q 491 896 445 896 q 527 882 515 896 q 540 825 540 869 q 546 772 540 787 q 577 758 553 758 q 698 807 611 758 q 825 910 785 856 q 843 920 833 918 q 853 913 850 920 l 853 897 q 785 789 805 827 q 745 697 765 751 l 683 523 l 767 544 l 855 562 q 956 712 899 645 q 1130 856 1035 802 q 1381 920 1249 920 q 1484 882 1448 920 q 1512 800 1512 851 q 1512 771 1512 776 q 1502 755 1512 762 l 1502 752 l 1498 759 l 1498 771 l 1501 799 q 1476 866 1501 837 q 1385 903 1444 903 q 1170 819 1266 903 q 965 501 1062 723 q 923 398 939 439 q 887 299 907 357 q 853 118 853 186 q 874 33 853 64 q 948 3 896 3 q 1167 128 1062 3 q 1331 443 1273 254 l 1364 568 q 1383 698 1383 654 q 1369 767 1383 741 q 1324 793 1356 793 q 1105 579 1209 793 q 1034 385 1058 480 q 1011 197 1011 290 l 1011 171 l 1011 154 l 1011 145 l 1006 145 l 1000 163 l 1000 204 q 1101 605 1000 400 q 1326 810 1203 810 q 1396 776 1373 810 q 1413 739 1407 759 q 1419 687 1419 718 q 1403 566 1419 632 l 1370 440 q 1201 127 1320 258 q 952 -14 1077 -14 q 799 47 850 -14 q 749 213 749 109 q 822 494 749 341 q 782 486 801 490 q 739 475 764 481 l 657 451 l 623 368 q 576 273 602 320 q 425 79 507 150 q 191 -8 320 -8 q 80 24 118 -8 q 43 105 43 57 q 63 175 43 143 q 122 224 83 208 l 134 229 l 140 226 l 143 223 l 131 213 q 83 170 104 199 q 65 111 65 141 q 96 36 65 66 q 191 7 127 7 q 376 148 292 7 q 438 281 409 205 l 562 602 "},"S":{"x_min":23,"x_max":1034,"ha":813,"o":"m 529 904 l 550 904 l 553 900 l 548 897 l 529 893 q 400 865 459 893 q 300 788 342 837 q 223 548 223 698 q 295 379 223 437 q 460 329 357 329 l 495 329 l 539 517 q 609 694 570 624 q 736 840 668 795 q 814 873 772 862 q 910 885 856 885 q 999 853 965 885 q 1034 769 1034 822 q 911 526 1034 655 q 634 340 789 397 q 496 85 579 166 q 206 -15 392 -15 q 74 22 128 -15 q 23 118 23 61 q 44 177 23 151 q 98 203 66 203 q 176 122 176 203 q 155 66 176 92 q 93 40 134 40 q 139 15 114 26 q 195 7 164 7 q 395 123 307 7 q 488 309 449 198 l 454 308 q 247 370 331 308 q 156 563 156 441 q 257 802 156 705 q 529 904 365 904 m 980 767 q 910 861 980 861 q 837 843 873 861 q 774 792 802 826 q 695 591 728 738 q 639 361 649 384 q 881 529 791 427 q 980 767 980 640 "},"/":{"x_min":4.171875,"x_max":418.0625,"ha":286,"o":"m 11 -97 l 4 -84 l 8 -60 q 36 22 20 -19 q 72 111 51 64 q 144 269 112 208 l 221 414 q 320 610 276 515 q 395 805 365 705 q 411 826 402 826 l 418 812 l 416 798 q 337 593 387 702 l 241 404 q 109 134 158 247 q 27 -73 59 21 q 11 -97 22 -94 "},"ђ":{"x_min":-14,"x_max":615.171875,"ha":601,"o":"m 440 326 q 377 400 440 400 q 280 331 338 400 q 191 198 241 284 l 89 0 l -14 0 l 301 619 l 190 619 l 199 640 l 313 640 q 371 805 371 758 q 319 856 371 856 q 233 819 265 856 q 209 783 217 803 q 201 738 201 764 q 194 725 196 729 l 191 722 q 179 740 179 722 q 215 830 179 788 q 319 878 258 878 q 377 871 354 878 q 420 845 401 864 q 450 766 450 818 q 418 640 450 705 l 552 640 l 540 619 l 404 618 l 259 336 q 331 406 296 388 q 370 421 353 418 q 404 425 387 425 q 497 386 462 425 q 532 279 532 347 q 477 91 532 204 q 418 -17 461 55 q 515 68 459 0 q 599 193 558 120 l 608 199 l 615 190 l 612 179 q 526 57 558 94 q 402 -40 459 -26 q 263 -224 352 -135 q 27 -350 140 -350 q -14 -322 -14 -350 q 93 -180 -14 -275 q 299 -52 201 -86 q 345 38 321 -11 q 390 143 365 80 q 440 326 440 268 m 4 -316 q 27 -333 4 -333 q 176 -238 90 -333 q 236 -163 206 -205 q 291 -76 266 -121 q 199 -121 245 -92 q 102 -195 152 -151 q 4 -316 4 -278 "},"y":{"x_min":-96,"x_max":602.609375,"ha":593,"o":"m 389 204 l 473 368 l 577 379 l 376 -15 q 491 50 449 12 q 535 97 512 68 q 587 172 559 127 l 597 179 l 602 173 l 598 159 q 509 45 551 84 q 447 1 481 20 q 369 -33 413 -18 l 245 -266 q 144 -366 212 -331 q 6 -401 76 -401 q -64 -372 -33 -401 q -96 -300 -96 -344 q -10 -157 -96 -223 q 258 -45 81 -88 l 353 133 q 264 32 299 62 q 173 -11 214 -11 q 107 8 133 -11 q 81 70 81 27 q 95 149 81 108 q 131 228 109 191 l 172 295 q 185 320 180 309 q 191 338 190 331 q 174 351 191 351 q 66 247 144 351 l -2 151 l -11 146 l -18 154 l -15 159 l 77 291 q 179 368 138 368 q 242 348 217 368 q 266 284 266 329 q 258 236 266 265 q 224 155 251 206 l 181 77 q 166 30 169 49 q 187 11 166 13 q 268 63 213 11 q 389 204 323 116 m -54 -314 q 6 -384 -54 -384 q 75 -354 38 -384 q 161 -237 117 -318 l 251 -65 q 25 -174 104 -107 q -54 -314 -54 -241 "},"g":{"x_min":-175,"x_max":493.0625,"ha":479,"o":"m 205 72 q 155 22 180 41 q 73 -7 115 -7 q 4 23 29 -7 q -16 102 -16 52 q 62 284 -16 197 q 158 356 105 331 q 273 382 211 382 q 324 368 306 382 q 341 334 341 355 l 359 370 l 465 382 l 265 -14 q 369 40 323 1 q 477 177 401 67 l 484 183 l 491 178 l 493 174 l 487 160 l 405 51 q 256 -33 343 -15 l 206 -134 l 147 -249 q 47 -353 113 -312 q -84 -394 -18 -394 q -152 -368 -129 -394 q -175 -303 -175 -342 q -76 -141 -175 -210 q 145 -45 6 -80 l 205 72 m 120 187 l 79 98 q 61 31 63 56 q 83 7 61 7 q 159 44 113 7 q 238 140 204 81 l 294 241 l 329 310 q 320 345 329 330 q 279 365 308 365 q 120 187 219 365 m -136 -321 q -84 -377 -136 -377 q -21 -349 -52 -377 q 61 -216 9 -322 l 138 -63 q -61 -172 12 -102 q -136 -321 -136 -242 "},"":{"x_min":-22.90625,"x_max":533,"ha":517,"o":"m 450 591 q 480 610 462 608 q 509 597 496 610 q 521 568 521 584 q 502 537 521 547 l 385 476 l 374 472 l 370 476 l 375 490 l 450 591 m 82 0 l -22 0 l 165 370 l 99 294 q 4 170 46 229 l 0 165 q -10 173 -4 165 l -4 184 q 45 253 18 219 q 111 332 72 287 l 178 407 l 190 419 l 302 431 l 82 0 m 533 377 q 521 347 533 359 q 492 336 510 336 q 461 345 474 336 q 450 376 452 353 l 454 399 q 414 338 433 395 q 389 293 403 306 q 353 276 375 280 q 395 199 395 255 q 389 161 395 177 l 372 120 q 353 58 353 86 q 371 35 353 36 q 454 100 404 35 l 515 187 l 522 194 l 526 196 l 533 190 l 533 184 l 526 173 q 417 35 464 79 q 330 -8 370 -8 q 274 10 292 -8 q 259 61 259 28 q 271 132 259 94 q 309 195 284 169 l 335 226 q 343 251 341 238 q 335 272 343 263 l 304 266 l 290 265 q 239 285 241 265 q 280 308 239 308 q 312 301 297 308 l 339 286 q 403 344 383 286 q 413 371 408 360 q 424 389 418 381 q 447 408 429 398 q 488 419 464 419 q 521 406 509 419 q 533 377 530 395 "},"²":{"x_min":34,"x_max":910.390625,"ha":706,"o":"m 34 127 q 58 198 34 172 q 121 225 83 225 q 171 203 150 225 q 192 143 192 182 q 165 83 192 110 q 92 56 139 56 q 147 16 115 33 q 179 6 161 10 q 215 2 197 2 q 367 88 294 2 q 481 319 440 174 q 378 378 421 337 q 323 509 323 434 q 541 823 323 698 q 910 926 721 926 q 852 871 881 909 q 753 695 804 810 q 641 326 690 544 q 745 375 707 326 q 784 490 784 424 q 779 530 784 513 l 778 543 l 784 550 l 784 552 l 788 547 l 794 530 l 799 484 q 765 373 799 423 q 636 311 721 311 q 468 52 596 140 q 235 -17 365 -17 q 99 17 156 -17 q 34 127 34 58 m 852 909 q 512 749 640 868 q 384 484 384 631 q 417 384 384 426 q 486 337 442 351 q 660 743 536 576 q 852 909 760 879 "},"–":{"x_min":36.109375,"x_max":425,"ha":456,"o":"m 180 286 q 247 277 206 286 l 309 263 l 356 258 q 415 272 387 258 l 420 274 l 425 271 l 420 262 q 365 236 404 250 q 286 222 326 222 l 250 224 q 212 233 237 224 l 155 249 q 101 257 126 257 q 48 246 70 257 l 40 244 l 36 246 l 45 258 q 101 276 59 265 q 140 283 122 280 q 180 286 159 286 "},"ë":{"x_min":-43,"x_max":548.671875,"ha":535,"o":"m 236 173 q 314 284 279 229 q 345 338 327 306 q 380 404 364 370 l 500 414 l 427 205 q 393 67 393 96 q 404 44 393 45 q 530 186 443 44 q 536 192 533 192 l 548 185 l 544 178 q 447 45 487 87 q 356 -1 400 -1 q 313 15 327 -1 q 300 77 300 31 q 322 209 300 129 q 347 286 333 250 q 379 359 361 323 q 245 154 338 279 l 182 73 q 37 -7 108 -7 q -19 8 4 -7 q -43 54 -43 23 q -26 94 -43 77 q 14 111 -10 111 q 67 55 67 111 q 61 26 67 37 q 37 8 55 16 q 114 39 71 8 q 236 173 157 70 "},"ƒ":{"x_min":19,"x_max":442.625,"ha":361,"o":"m 370 591 q 400 610 382 608 q 430 597 417 610 q 442 568 442 584 q 423 537 442 547 l 307 476 l 295 472 l 291 476 l 296 490 l 370 591 m 67 312 l 62 316 l 63 320 l 71 333 q 139 380 96 359 q 224 401 181 401 q 319 375 287 401 q 351 303 351 349 q 312 209 351 248 q 223 161 284 181 q 110 112 136 130 q 84 56 84 94 q 139 7 84 7 q 280 87 203 7 l 356 187 l 370 199 l 374 193 q 367 175 370 180 q 292 73 331 117 q 134 -8 214 -8 q 55 15 87 -8 q 19 90 19 43 q 57 193 19 150 q 143 249 85 223 l 229 286 q 273 324 271 302 q 258 360 273 349 q 216 372 244 372 q 148 356 183 372 q 84 319 115 345 l 73 313 l 67 312 "},"б":{"x_min":-15.28125,"x_max":1002.78125,"ha":515,"o":"m 90 -6 q 12 26 44 -6 q -15 116 -15 61 q 70 315 -15 225 q 294 409 162 409 q 345 393 326 409 q 365 354 363 377 l 469 551 l 616 838 q 672 897 637 880 q 756 915 706 915 q 795 915 776 915 q 827 909 818 911 l 940 897 q 998 911 979 897 l 1002 912 l 998 901 q 945 865 975 880 q 918 856 927 858 q 897 854 909 854 q 831 869 870 854 q 805 877 825 872 q 777 884 786 883 q 747 873 759 884 q 720 836 736 866 q 648 694 698 787 l 534 476 l 419 240 q 284 54 363 118 q 90 -6 204 -8 m 352 343 q 341 377 352 361 q 308 393 330 393 q 240 366 272 393 q 145 233 197 330 q 85 101 106 152 q 63 31 63 50 q 87 6 63 6 q 211 84 147 6 q 241 127 225 102 q 265 165 254 147 l 308 243 l 350 329 l 352 343 m 259 51 q 441 136 345 90 q 516 193 494 162 q 547 195 550 220 q 468 126 522 158 q 201 11 298 40 l 259 51 "},"у":{"x_min":-101.390625,"x_max":716.671875,"ha":638,"o":"m 180 31 q 201 6 180 6 q 341 122 240 6 l 419 219 l 509 395 l 620 408 l 404 -16 q 541 73 481 13 q 644 198 594 126 q 712 295 651 205 l 716 280 l 655 186 q 551 59 595 101 q 395 -38 490 1 l 279 -269 q 170 -383 243 -343 q 16 -423 97 -423 q -68 -394 -36 -423 q -101 -315 -101 -365 q 29 -145 -101 -225 q 277 -51 131 -84 l 380 147 q 291 41 330 76 q 186 -12 234 -12 q 112 8 141 -12 q 87 76 87 29 q 106 172 87 122 q 152 265 126 222 l 187 325 q 205 365 204 352 q 187 377 205 377 q 69 261 156 377 l -2 162 l -12 158 l -19 165 l -16 172 l 123 358 q 157 383 138 373 q 202 395 176 393 q 262 375 234 395 q 290 312 290 355 q 240 163 290 259 l 200 94 l 186 62 l 180 31 m 272 -70 q 23 -193 115 -112 q -51 -329 -51 -259 q -31 -383 -51 -363 q 15 -404 -15 -404 q 93 -372 58 -404 q 175 -255 129 -341 l 272 -70 "},"J":{"x_min":-184,"x_max":728.5,"ha":519,"o":"m 667 841 q 316 681 451 812 q 193 430 193 565 q 219 345 193 376 q 285 312 239 325 q 293 305 292 308 l 285 297 q 188 333 224 304 q 137 457 137 376 q 293 732 137 629 q 706 861 436 827 l 728 861 q 577 698 638 815 q 488 440 534 617 q 413 160 430 210 l 357 -3 q 442 -25 411 -3 q 473 -85 473 -48 q 453 -138 473 -111 q 396 -187 434 -165 l 386 -193 l 379 -187 l 391 -177 q 435 -136 416 -163 q 447 -115 440 -130 q 454 -87 454 -101 q 428 -38 454 -58 q 350 -18 402 -18 q 188 -252 295 -149 q 63 -341 127 -310 q -63 -372 0 -372 q -148 -339 -113 -372 q -184 -251 -184 -307 q -96 -84 -184 -153 q 207 -3 9 -3 l 217 -3 l 306 262 q 399 502 349 388 q 500 683 449 615 q 581 776 538 734 q 667 841 625 818 m -123 -250 q -53 -350 -123 -350 q 107 -237 29 -350 q 213 -18 151 -170 q -40 -76 42 -18 q -123 -250 -123 -135 "},"Ã":{"x_min":26,"x_max":1376,"ha":856,"o":"m 877 825 q 842 833 857 829 q 798 848 827 837 q 627 879 684 879 q 320 762 443 879 q 216 543 216 662 q 242 462 216 493 q 320 431 268 431 q 480 546 416 431 q 532 752 532 644 l 534 776 l 537 776 q 563 658 563 729 q 510 493 563 559 q 321 414 448 414 q 228 448 261 414 q 198 543 198 486 q 314 789 198 674 q 652 919 448 919 q 785 911 702 919 q 834 906 799 911 q 916 895 870 902 l 1080 881 l 1145 881 q 1209 885 1180 881 q 1269 900 1238 889 q 1376 954 1323 918 q 1346 908 1367 933 q 1285 849 1319 873 q 1251 827 1270 836 q 1206 808 1232 818 q 1155 799 1185 803 q 1092 795 1125 795 q 995 799 1038 795 q 877 825 952 804 m 26 122 q 92 229 26 187 q 257 271 159 271 l 275 263 l 278 263 l 270 261 q 115 224 182 261 q 48 122 48 187 q 88 44 48 76 q 200 13 128 13 q 381 79 299 13 q 565 377 472 155 l 640 561 q 719 695 679 650 q 794 765 759 740 q 869 801 830 791 l 869 797 q 776 630 817 759 l 698 376 q 544 105 638 193 q 210 -8 421 -8 q 73 29 123 -8 q 26 122 26 68 "},"Ј":{"x_min":-198,"x_max":779.78125,"ha":558,"o":"m 533 722 q 576 779 558 758 q 620 826 593 800 q 717 905 677 884 q 306 697 443 858 q 206 440 206 580 q 242 359 206 386 q 306 336 260 347 q 317 325 315 334 l 308 319 l 301 319 q 207 355 233 336 q 146 493 146 397 q 278 756 146 649 q 772 928 439 889 l 779 928 l 774 921 q 652 805 703 883 q 572 639 610 743 q 493 348 550 575 q 443 173 468 244 l 402 48 l 381 -5 l 400 -1 q 480 -24 451 -1 q 510 -85 510 -48 q 489 -147 510 -115 q 425 -204 468 -178 l 415 -207 l 408 -202 q 420 -191 413 -195 q 470 -145 450 -175 q 491 -90 491 -116 q 468 -40 491 -61 q 400 -22 446 -22 l 375 -23 q 320 -123 346 -83 q 222 -246 278 -189 q 50 -372 139 -333 q -67 -399 -16 -399 q -153 -372 -117 -399 q -198 -270 -198 -339 q -162 -154 -198 -212 q -66 -65 -127 -97 q 106 -10 4 -27 q 169 -3 138 -6 q 232 -1 200 -1 l 324 272 q 421 523 379 430 q 533 722 474 640 m 229 -18 q 101 -26 170 -18 q -21 -64 32 -34 q -103 -152 -74 -94 q -133 -269 -133 -211 q -112 -349 -133 -316 q -56 -382 -92 -382 q 44 -338 -6 -382 q 86 -297 67 -322 q 129 -234 106 -272 q 179 -134 151 -197 l 229 -18 "},"©":{"x_min":65,"x_max":557,"ha":593,"o":"m 557 408 q 476 218 557 299 q 277 138 395 138 q 121 192 178 138 q 65 334 65 247 q 146 529 65 444 q 344 614 227 614 q 500 560 443 614 q 557 408 557 506 m 89 338 q 139 208 89 257 q 282 160 190 160 q 459 233 384 160 q 535 405 535 307 q 483 545 535 496 q 337 595 432 595 q 163 514 237 595 q 89 338 89 433 m 320 466 q 241 435 270 466 q 220 403 227 420 q 214 362 214 386 q 298 278 214 278 q 356 293 331 278 l 396 323 l 390 294 q 342 268 360 276 q 297 261 323 261 q 193 361 193 261 q 229 448 193 412 q 327 485 265 485 q 386 473 365 485 q 414 450 398 468 l 408 425 q 379 454 398 443 q 320 466 359 466 "},"ґ":{"x_min":-84.234375,"x_max":529.890625,"ha":361,"o":"m 317 298 q 261 68 317 140 q 71 -4 206 -4 q -29 30 -2 -4 l -67 -65 q -74 -74 -71 -72 q -78 -77 -76 -76 q -84 -66 -85 -77 l -42 46 l -42 60 q -18 86 -42 86 q 0 68 0 86 q -18 47 0 58 q 66 14 5 14 q 187 109 142 14 q 209 175 197 130 q 240 295 221 220 q 287 431 264 401 q 393 476 319 476 l 452 472 q 507 484 486 472 q 529 507 516 488 q 504 457 529 475 q 436 440 478 440 l 402 440 l 378 447 q 331 413 347 447 q 317 298 317 376 "},"D":{"x_min":133,"x_max":998.28125,"ha":1014,"o":"m 133 54 q 160 94 133 79 q 228 109 187 109 q 424 68 322 109 q 533 227 483 126 l 611 417 q 687 599 654 538 q 790 737 731 687 l 856 788 q 598 877 763 877 q 352 760 451 877 q 265 531 265 656 q 298 416 265 461 q 399 373 333 373 q 549 456 491 373 q 601 622 601 531 q 599 663 601 650 q 589 696 598 675 q 556 746 581 725 l 551 753 l 555 756 l 560 756 q 603 701 588 739 q 618 619 618 664 q 562 444 618 520 q 399 358 499 358 q 252 411 304 358 q 200 546 200 464 q 302 775 200 672 q 597 892 419 892 q 770 865 697 892 q 880 807 824 846 l 941 840 q 971 852 953 847 q 998 858 988 858 q 967 842 983 851 q 935 817 952 833 l 901 786 q 997 494 997 677 q 888 128 997 265 q 609 -8 780 -8 q 440 25 515 -8 q 361 -1 406 9 q 322 -10 341 -7 q 276 -13 304 -13 q 217 -8 242 -13 q 170 5 191 -4 q 133 54 133 22 m 225 92 q 152 53 152 92 q 185 18 152 34 q 256 6 218 6 q 346 20 309 6 l 397 44 q 351 64 374 55 q 303 80 328 73 q 225 92 259 92 m 633 16 q 869 145 766 16 q 948 296 922 214 q 975 484 975 379 q 884 765 975 656 q 813 631 845 710 q 741 385 804 606 q 672 208 712 272 q 537 74 622 122 l 485 45 l 554 25 q 593 18 575 21 q 633 16 611 16 "},"ÿ":{"x_min":-47,"x_max":554.109375,"ha":540,"o":"m 40 5 q 105 31 75 5 q 152 97 125 50 q 231 197 190 164 q 298 232 245 208 q 230 250 263 232 q 185 318 185 273 q 218 397 185 363 q 321 436 257 436 q 385 425 358 436 q 428 391 413 415 l 440 417 l 547 418 l 396 120 l 376 75 q 368 35 368 50 q 380 17 368 19 q 459 79 405 17 q 537 184 498 126 l 547 194 q 554 184 551 191 l 551 176 q 476 71 511 112 q 361 -8 409 -8 q 303 8 328 -8 q 283 61 283 25 q 303 134 283 87 l 418 374 q 360 408 402 408 q 297 375 328 408 q 267 304 267 342 q 279 266 267 284 q 310 239 291 248 q 335 253 321 250 q 348 240 348 253 l 344 232 l 334 227 l 330 227 q 231 81 302 214 q 158 14 206 36 q 59 -8 111 -8 q -23 7 0 -8 q -47 55 -47 22 q -30 91 -47 75 q 8 107 -14 107 q 46 93 30 107 q 63 53 63 80 q 57 24 63 35 q 33 6 51 14 l 40 5 "},"ц":{"x_min":-11.109375,"x_max":622.21875,"ha":594,"o":"m 412 -6 q 340 14 370 -6 q 311 76 311 36 q 312 113 311 101 q 323 155 313 125 q 355 236 333 186 l 297 137 q 204 27 247 62 q 131 -8 162 -8 q 65 20 88 -8 q 41 95 41 50 l 44 131 q 61 181 48 155 l 134 344 q 5 173 75 269 l 0 166 l -11 175 l -5 186 l 75 300 l 145 395 l 286 404 l 147 130 l 131 86 q 123 43 123 61 q 145 12 123 13 q 209 51 170 12 q 283 145 241 83 l 329 222 l 388 336 l 415 395 l 554 404 l 412 123 l 393 80 q 384 40 384 56 q 418 8 384 8 q 527 76 472 13 l 612 184 q 622 187 619 188 q 620 179 622 176 l 544 50 l 529 -8 l 558 6 q 588 26 575 13 l 594 22 l 591 16 q 561 -6 584 5 l 525 -30 l 516 -80 q 498 -138 512 -109 q 447 -184 481 -184 q 411 -144 411 -184 q 419 -106 411 -125 q 449 -65 427 -88 q 511 -18 470 -41 l 530 56 q 473 6 502 20 q 446 -3 458 0 q 412 -6 434 -6 m 508 -37 q 480 -57 495 -45 q 458 -77 465 -69 q 435 -109 443 -94 q 427 -143 427 -125 q 448 -169 427 -166 q 481 -133 465 -169 l 497 -87 l 508 -37 "},"Л":{"x_min":22,"x_max":1187.28125,"ha":1024,"o":"m 719 52 q 764 233 719 114 q 869 458 809 352 q 949 601 916 544 q 1024 729 991 674 q 1142 911 1102 859 l 1052 819 l 958 719 q 809 541 910 668 l 634 322 q 472 130 530 190 q 358 33 415 70 q 209 -17 283 -17 q 69 19 117 -17 q 22 111 22 55 q 91 220 22 178 q 240 263 160 263 l 253 263 l 263 260 l 266 257 q 110 216 180 257 q 41 108 41 176 q 82 31 41 68 q 209 0 125 0 q 357 51 281 0 q 412 95 384 69 q 474 158 441 120 q 637 349 533 220 l 802 556 q 951 731 901 680 l 1095 887 q 1181 958 1162 958 l 1187 949 q 1151 834 1187 923 l 1067 644 l 982 447 l 899 226 q 855 61 855 100 q 867 39 855 41 l 873 40 q 955 98 914 52 q 1020 196 971 119 l 1031 203 l 1038 193 l 1035 183 q 959 71 998 116 q 876 0 913 16 q 799 -17 839 -17 q 730 9 750 -17 q 719 52 719 23 "},"$":{"x_min":30,"x_max":576,"ha":579,"o":"m 476 176 q 391 30 476 84 q 228 -14 318 -14 q 168 -5 193 -14 l 123 -112 l 110 -124 q 102 -115 102 -124 l 105 -104 l 149 -1 q 60 54 93 15 q 30 137 30 96 q 48 190 30 171 q 94 210 67 210 q 130 192 114 210 q 147 152 147 175 q 129 110 147 127 q 82 93 112 93 l 61 93 q 156 13 81 38 l 284 312 l 231 374 q 204 465 204 417 q 253 575 204 529 q 421 628 313 628 l 461 711 q 469 718 465 718 q 473 714 472 716 q 476 709 474 711 l 476 705 l 440 623 q 535 588 495 618 q 576 524 576 563 q 560 483 576 501 q 517 465 544 465 q 476 481 492 465 q 461 519 463 496 q 477 558 461 540 q 515 576 494 576 l 523 576 l 498 593 q 435 612 476 605 l 342 395 q 425 313 407 338 q 476 176 476 248 m 217 3 q 326 33 281 3 q 383 136 383 71 q 355 232 383 189 q 299 296 338 257 l 174 8 l 193 3 l 217 3 m 278 515 q 294 451 278 483 l 326 409 l 415 612 q 322 593 355 612 q 278 515 278 568 "},"w":{"x_min":-11,"x_max":714,"ha":699,"o":"m 289 71 q 290 108 289 97 q 300 146 291 120 l 320 203 q 276 127 295 158 q 237 71 257 96 q 122 -8 175 -8 q 39 87 39 -8 q 65 193 39 122 q 91 258 76 225 q 122 320 105 291 l 65 246 l 5 162 l -2 156 l -11 162 l -5 173 l 134 370 l 266 379 l 137 124 l 121 83 l 115 39 q 135 9 115 9 q 232 91 170 9 q 358 314 294 173 l 383 370 l 515 379 l 383 116 l 368 78 l 363 41 q 369 17 363 25 q 393 9 376 9 q 486 54 433 9 q 515 84 501 68 q 556 133 529 100 q 515 229 515 162 q 542 334 515 290 q 616 379 570 379 q 670 329 670 379 q 640 230 670 288 q 578 137 618 186 q 621 126 596 128 q 663 138 641 126 q 700 183 684 151 l 707 190 l 714 183 l 711 173 q 666 124 690 141 q 619 111 643 111 q 593 111 603 111 l 569 124 q 487 36 537 73 q 384 -8 430 -8 q 289 71 289 -8 m 533 212 q 564 146 533 166 l 617 229 q 641 294 641 272 q 610 321 641 321 q 555 288 577 321 q 533 212 533 255 "},"\\":{"x_min":61.15625,"x_max":414.859375,"ha":376,"o":"m 79 782 l 414 -139 l 395 -139 l 61 781 l 79 782 "},"о":{"x_min":-8.328125,"x_max":410.375,"ha":418,"o":"m 370 304 q 315 131 365 218 q 226 25 265 45 q 313 70 275 37 q 373 133 352 104 q 409 125 415 170 q 270 29 343 66 q 175 -9 198 -8 q 123 -12 152 -12 q 29 31 68 -12 q -8 143 -8 76 q 84 333 -8 250 q 265 408 170 408 q 344 379 318 408 q 370 304 370 351 m 281 391 q 158 270 226 391 q 90 66 90 150 q 99 20 90 37 q 133 4 108 4 q 279 118 215 4 q 336 318 336 220 q 323 370 336 350 q 281 391 311 391 "},"Д":{"x_min":58,"x_max":991.34375,"ha":1026,"o":"m 211 -14 q 106 1 142 -14 q 58 58 58 20 q 87 103 58 83 q 159 120 116 120 q 203 118 188 120 q 247 111 218 117 q 304 97 277 105 q 371 73 332 88 q 489 239 436 138 q 574 451 526 313 q 687 702 633 618 q 835 849 742 786 q 557 941 740 941 q 293 815 400 941 q 199 571 199 702 q 236 448 199 495 q 343 402 274 402 q 506 492 442 402 q 562 673 562 573 q 513 803 562 764 l 508 812 l 512 815 l 517 815 q 562 757 546 796 q 579 668 579 717 q 519 478 579 563 q 344 385 451 385 q 188 437 246 385 q 130 587 130 489 q 239 835 130 725 q 556 960 364 960 q 742 932 667 960 q 860 867 803 910 l 920 901 q 991 926 956 918 l 938 891 l 884 846 q 959 709 932 789 q 986 536 986 629 q 890 165 986 315 q 570 -8 777 -8 q 388 26 463 -8 l 318 1 q 266 -9 293 -5 q 211 -14 239 -14 m 595 17 q 869 178 763 17 q 964 521 964 325 q 865 823 964 704 q 790 683 824 765 l 714 423 q 612 187 671 263 q 435 48 562 120 l 511 27 q 595 17 560 17 m 156 101 q 101 89 124 101 q 79 57 79 77 q 115 18 79 34 q 191 4 156 4 q 286 22 245 4 l 341 48 q 241 88 285 75 q 156 101 198 101 "},"Ì":{"x_min":16,"x_max":1333,"ha":1322,"o":"m 468 215 l 737 641 q 828 752 787 703 q 903 835 863 792 q 939 869 924 856 q 995 917 964 892 l 834 434 l 775 266 q 709 33 709 78 q 720 13 709 13 q 777 82 736 13 q 860 253 806 135 q 957 463 932 416 q 1103 708 1020 597 q 1231 853 1157 779 l 1298 917 q 1227 707 1269 849 q 1155 435 1201 620 l 1113 259 q 1093 101 1093 159 q 1144 13 1093 13 q 1244 83 1185 13 l 1316 187 l 1324 194 l 1333 187 l 1328 176 l 1258 69 q 1138 -8 1195 -8 q 1021 46 1063 -8 q 983 194 983 101 q 1029 436 983 304 q 1142 686 1076 569 q 1250 854 1178 748 q 1149 744 1205 816 q 974 454 1060 625 l 824 131 q 712 -8 754 -8 q 617 115 617 -8 q 637 254 617 175 q 701 441 658 333 q 833 700 760 588 q 951 861 887 788 l 880 788 q 747 630 822 724 q 608 419 686 552 l 483 205 q 356 46 415 97 q 197 -17 281 -17 q 67 15 118 -17 q 16 116 16 47 q 84 221 16 179 q 234 263 153 263 l 263 258 l 257 255 q 106 216 174 255 q 38 115 38 177 q 90 28 38 59 q 199 2 136 2 q 346 61 276 2 q 468 215 403 112 "},"Ç":{"x_min":144,"x_max":851,"ha":822,"o":"m 144 166 q 190 313 144 248 q 311 378 237 378 q 400 350 366 378 q 435 276 435 322 q 405 200 435 235 q 322 151 376 164 l 318 151 l 322 158 q 374 213 352 177 q 393 280 393 247 q 373 338 393 317 q 312 360 356 360 q 209 300 253 360 q 165 170 165 240 q 208 54 165 101 q 348 7 252 7 q 571 177 483 7 q 635 411 635 309 q 612 482 635 459 l 565 466 q 539 460 547 461 q 514 459 531 459 q 473 481 473 459 q 493 506 473 498 q 546 515 513 515 l 602 511 q 708 651 673 558 q 736 798 736 723 q 716 875 736 847 q 638 909 692 909 q 496 863 563 909 q 395 747 428 817 q 375 726 388 726 l 369 737 q 374 762 369 751 q 471 878 403 831 q 638 933 546 933 q 794 884 737 933 q 851 748 851 835 q 803 594 851 659 q 645 499 750 516 q 726 433 693 490 q 759 312 759 377 q 675 101 759 192 q 349 -17 566 -17 q 191 40 243 -17 q 144 166 144 90 "},"ъ":{"x_min":-12,"x_max":638,"ha":664,"o":"m 230 304 q 126 342 167 304 l 4 170 l -3 164 q -8 168 -6 165 q -12 173 -10 172 l -6 184 l 113 358 l 109 369 l 109 388 q 111 408 109 401 q 122 429 113 415 q 153 447 131 444 q 179 419 179 447 q 162 384 179 406 q 193 358 174 367 q 245 350 213 350 l 266 350 q 288 352 275 350 q 313 357 300 354 q 346 368 327 361 l 365 405 l 472 413 l 439 347 l 400 275 q 420 289 403 277 q 442 303 438 300 q 507 317 474 317 q 594 289 561 317 q 638 190 638 254 q 580 52 638 113 q 429 -14 519 -14 q 299 23 341 -14 q 257 123 257 61 q 275 215 257 166 q 321 317 286 248 l 269 304 l 230 304 m 342 93 q 362 29 342 55 q 414 3 383 3 q 514 68 469 3 q 559 213 559 133 q 545 272 559 252 q 495 293 532 293 q 428 273 458 293 q 382 236 407 261 l 354 168 q 342 93 342 127 "},"C":{"x_min":57,"x_max":921,"ha":756,"o":"m 57 645 q 120 792 57 730 q 363 872 202 872 l 404 868 q 434 868 424 868 q 455 859 448 868 l 449 857 l 433 857 q 190 793 272 857 q 115 629 115 734 q 155 513 115 566 q 264 444 195 465 q 475 716 347 609 q 809 849 632 849 q 891 821 864 849 q 921 750 921 796 q 861 612 921 682 q 677 480 795 536 q 603 451 637 463 q 530 427 569 438 q 397 412 465 412 q 347 279 368 354 q 327 147 327 205 q 354 47 327 83 q 442 11 381 11 q 640 109 554 11 q 718 289 718 198 q 699 348 718 326 q 645 371 681 371 q 548 316 584 371 q 521 210 521 272 q 530 156 521 171 l 530 149 l 530 144 l 521 146 q 483 240 483 174 q 522 341 483 297 q 642 385 562 385 q 710 358 688 385 q 733 289 733 332 q 652 100 733 193 q 441 -4 561 -4 q 257 61 316 -4 q 206 218 206 119 q 219 327 206 275 q 257 431 232 379 q 134 493 193 444 q 57 645 57 558 m 662 491 q 815 615 751 529 q 857 690 844 657 q 871 759 871 723 q 856 810 871 793 q 811 828 841 828 q 586 698 709 828 q 404 429 481 587 q 662 491 512 429 "},"!":{"x_min":57,"x_max":408.328125,"ha":431,"o":"m 190 204 q 183 212 183 209 q 193 240 183 220 q 261 405 234 322 l 315 566 q 363 607 331 607 q 408 561 408 607 q 398 530 408 548 q 302 383 369 480 q 209 229 251 308 q 195 210 205 222 q 190 204 194 208 m 156 51 q 142 12 156 30 q 101 -6 128 -6 q 68 6 80 -6 q 57 39 59 17 q 71 78 57 60 q 111 97 86 97 q 143 83 130 97 q 156 51 156 70 "},"ç":{"x_min":-119,"x_max":492.109375,"ha":475,"o":"m 230 411 q 297 383 270 411 q 325 309 325 355 q 304 229 325 265 q 234 170 283 194 q 157 137 221 160 q 92 101 112 120 q 153 107 134 106 q 186 108 173 108 q 287 92 256 108 q 332 26 317 77 q 394 78 363 42 q 474 192 412 98 l 481 199 l 485 201 l 492 195 l 487 182 q 442 118 461 144 q 418 85 423 92 q 332 12 373 30 q 319 -75 332 -25 q 257 -234 302 -147 q 137 -376 211 -322 q 3 -424 69 -424 q -87 -395 -56 -424 q -119 -323 -119 -367 q -18 -146 -119 -229 q 233 -8 63 -79 l 239 13 q 216 73 239 56 q 147 91 194 91 q 108 91 121 91 l 82 86 l 39 27 q -6 -6 11 -6 q -23 8 -23 -6 q 22 65 -23 24 l 66 99 q 161 177 122 137 q 222 293 222 241 q 209 338 222 321 q 173 359 197 356 q 123 335 147 359 l 66 260 l 8 179 l 0 175 l -7 181 l -2 194 l 62 287 l 104 342 q 167 393 132 376 q 230 411 202 411 m 233 -27 q 0 -157 71 -100 q -95 -319 -95 -232 q -74 -379 -95 -356 q -11 -402 -54 -402 q 60 -367 25 -402 q 143 -235 94 -332 l 190 -144 q 233 -27 217 -87 "},"È":{"x_min":141,"x_max":1263.28125,"ha":1094,"o":"m 824 276 l 1132 890 l 1263 900 l 895 173 q 860 60 860 103 q 904 11 860 11 q 1001 72 944 11 q 1089 187 1040 117 l 1097 195 l 1102 197 l 1107 190 q 1102 173 1107 180 q 1015 61 1049 94 q 891 -8 948 -8 q 797 21 823 -8 q 772 97 772 50 q 772 133 772 122 l 783 171 q 679 40 736 89 q 571 -8 622 -8 q 445 39 487 -8 q 409 154 409 82 q 413 203 409 178 q 428 261 417 228 q 495 410 446 318 q 554 513 518 455 q 635 643 589 571 q 681 792 681 715 q 644 897 681 855 q 533 939 607 939 q 263 807 378 939 q 159 560 159 687 q 188 466 159 502 q 279 430 218 430 q 429 560 371 430 q 477 771 477 667 l 475 798 l 481 809 l 481 814 l 486 809 l 493 791 q 509 672 509 734 q 458 493 509 561 q 278 413 397 413 q 175 453 209 413 q 141 561 141 494 q 247 818 141 694 q 532 956 367 956 q 717 885 652 956 q 761 810 746 851 q 777 715 777 769 q 770 641 777 677 q 733 539 763 605 q 661 397 704 473 l 550 211 q 509 81 509 140 q 571 11 509 11 q 753 157 646 11 q 824 276 792 211 "},"Й":{"x_min":141.671875,"x_max":1263.890625,"ha":1094,"o":"m 825 276 l 1133 890 l 1263 900 l 895 173 q 861 59 861 104 q 904 8 861 8 q 1026 101 950 8 q 1090 187 1061 141 l 1098 195 l 1102 197 l 1108 190 l 1102 173 q 1016 61 1050 94 q 893 -8 950 -8 q 799 25 825 -8 q 773 102 773 58 q 780 158 773 133 l 784 170 q 680 41 737 90 q 572 -6 623 -6 q 445 40 488 -6 q 409 155 409 83 q 413 204 409 179 q 429 262 418 229 q 495 411 447 319 q 554 513 519 455 q 636 643 590 572 q 681 793 681 715 q 645 897 681 855 q 534 938 608 938 l 529 938 q 262 806 376 938 q 159 559 159 687 q 189 465 159 501 q 280 429 219 429 q 430 559 372 429 q 477 770 477 666 l 476 793 l 476 798 l 479 809 l 481 813 q 495 791 490 813 q 512 672 512 734 q 461 493 512 561 q 280 412 400 412 q 176 453 211 412 q 141 561 141 494 q 248 818 141 694 q 533 955 368 955 q 718 884 652 955 q 762 810 747 851 q 777 715 777 769 l 777 676 l 772 650 q 637 354 755 548 l 551 212 q 509 81 509 141 q 524 27 509 47 q 570 8 538 8 q 720 113 633 8 q 825 276 783 188 m 700 913 q 736 961 702 952 q 806 948 769 969 q 831 919 806 940 q 830 895 815 918 q 823 869 816 883 q 866 825 802 852 q 1033 850 920 786 q 1030 881 1033 863 q 1047 915 1030 901 q 1084 931 1065 929 q 1127 898 1118 930 q 1112 833 1138 900 q 1075 804 1090 811 q 920 763 1012 775 q 772 804 800 768 q 700 913 731 833 "},"X":{"x_min":37,"x_max":1093,"ha":868,"o":"m 622 101 q 638 31 622 59 q 695 8 655 8 q 802 89 737 8 l 868 180 l 874 183 l 881 176 l 878 169 l 813 76 q 694 -7 748 -7 q 623 20 646 -7 q 601 98 601 51 q 616 209 601 158 l 648 297 q 484 99 594 188 q 210 -13 348 -13 q 95 19 145 -13 q 37 122 37 56 q 58 178 37 156 q 113 200 79 200 q 163 180 143 200 q 184 127 184 163 q 95 44 184 56 q 142 17 117 27 q 213 8 167 8 q 431 133 324 8 q 593 446 537 258 q 632 669 632 585 q 591 792 632 752 q 512 822 562 822 q 252 712 353 822 q 162 497 162 615 q 196 390 162 433 q 300 350 232 350 q 423 445 373 350 q 473 670 473 540 l 473 707 l 473 726 l 473 726 l 476 720 l 485 705 q 506 569 506 624 q 451 397 506 462 q 303 332 396 332 q 184 377 228 332 q 144 498 144 425 q 239 727 144 623 q 523 846 351 846 q 680 784 620 846 q 740 602 740 722 q 738 568 740 587 q 732 525 737 548 q 794 669 757 608 q 891 781 831 730 q 948 815 912 802 q 1012 829 984 829 q 1068 808 1044 829 q 1093 754 1093 788 q 1072 708 1093 726 q 1027 691 1052 691 q 981 707 998 691 q 964 750 964 724 q 980 793 964 776 q 1023 810 997 810 l 1013 812 q 961 805 988 812 q 901 770 934 798 q 799 638 844 720 q 697 381 781 605 l 648 241 q 628 162 635 195 q 622 101 622 128 "},"ô":{"x_min":21,"x_max":810,"ha":829,"o":"m 618 722 l 721 721 l 537 359 q 693 418 612 418 q 810 295 810 418 q 786 177 810 237 q 730 70 765 117 q 662 14 707 35 q 571 -6 618 -6 q 463 21 506 -6 q 402 91 420 48 l 165 -377 l 61 -378 l 282 59 q 224 12 254 30 q 156 -1 192 -1 q 59 35 97 -1 q 21 134 21 71 q 47 251 21 190 q 115 355 72 315 q 289 429 189 429 q 376 409 341 429 q 433 359 412 394 l 618 722 m 321 394 q 259 380 286 394 q 209 335 231 367 q 149 227 177 292 q 115 83 115 143 q 126 39 115 54 q 165 24 137 24 q 236 45 204 24 q 316 126 269 66 l 415 322 q 382 371 411 349 q 321 394 353 394 m 525 36 q 586 52 557 36 q 632 104 614 69 l 665 168 q 702 311 702 248 q 685 357 702 340 q 639 374 668 374 q 582 358 612 374 q 514 312 551 346 l 417 119 q 525 36 446 36 "},"Б":{"x_min":26,"x_max":1281,"ha":1074,"o":"m 846 840 l 719 876 q 598 893 653 893 q 297 769 419 893 q 192 543 192 659 q 216 461 192 494 q 293 431 243 431 q 455 555 390 431 q 508 764 508 661 l 509 776 l 512 776 q 538 658 538 729 q 486 493 538 559 q 297 414 423 414 q 204 448 237 414 q 174 543 174 486 q 287 787 174 673 q 628 919 422 919 q 664 917 640 919 q 721 912 687 916 q 768 911 754 912 q 872 897 782 909 l 993 886 l 1099 881 q 1203 895 1164 881 q 1281 954 1243 910 q 1215 847 1260 887 q 1076 795 1160 795 q 1024 797 1040 795 q 974 806 1007 799 l 846 840 m 711 439 q 662 279 687 333 q 544 104 616 169 q 210 -8 412 -8 q 70 25 119 -8 q 26 111 26 58 q 103 232 26 187 q 175 261 138 251 q 257 271 211 271 q 271 265 268 268 l 263 261 q 121 226 182 261 q 48 114 48 184 q 86 42 48 72 q 200 13 124 13 q 416 119 326 13 q 542 358 481 197 l 615 550 q 694 694 655 650 q 730 730 709 711 q 769 763 751 750 q 838 800 795 783 l 845 801 l 844 795 q 759 639 797 761 l 718 468 q 774 487 748 480 q 818 496 800 493 q 856 499 837 499 q 977 458 929 499 q 1040 316 1040 408 q 966 101 1040 204 q 752 -17 880 -17 q 666 8 693 -17 q 639 77 639 34 q 684 218 639 154 q 793 295 729 283 q 699 213 739 279 q 660 79 660 147 q 673 26 660 48 q 722 7 689 7 q 884 166 816 7 q 939 385 939 294 q 845 474 939 474 q 773 464 806 474 q 711 439 740 455 "},"г":{"x_min":19,"x_max":374.5625,"ha":361,"o":"m 67 312 l 62 316 l 63 320 l 71 333 q 139 380 96 359 q 224 401 181 401 q 319 375 287 401 q 351 303 351 349 q 312 209 351 248 q 223 161 284 181 q 110 112 136 130 q 84 56 84 94 q 139 7 84 7 q 280 87 203 7 l 356 187 l 370 199 l 374 193 q 367 175 370 180 q 292 73 331 117 q 134 -8 214 -8 q 55 15 87 -8 q 19 90 19 43 q 57 193 19 150 q 143 249 85 223 l 229 286 q 273 324 271 302 q 258 360 273 349 q 216 372 244 372 q 148 356 183 372 q 84 319 115 345 l 73 313 l 67 312 "},"х":{"x_min":-12,"x_max":569,"ha":553,"o":"m 6 173 l 0 167 l -12 173 l -3 187 l 99 329 q 222 401 158 401 q 285 378 262 401 q 325 298 308 355 q 354 339 342 322 q 378 365 367 356 q 453 401 416 401 q 505 385 485 401 q 526 345 526 373 q 516 316 526 325 q 485 305 507 307 q 451 339 451 305 q 458 361 451 350 q 482 373 466 371 q 471 384 477 382 l 451 384 q 381 343 418 384 q 332 270 356 315 l 338 202 l 338 121 l 338 109 q 345 34 338 56 q 379 12 352 12 q 440 47 401 12 q 552 190 478 83 l 560 199 l 569 197 l 569 193 l 560 175 q 475 58 506 93 q 372 -7 417 -7 q 272 21 308 -7 q 222 119 236 49 q 168 35 197 65 q 79 -7 127 -7 q 22 6 45 -7 q 0 47 0 20 q 11 81 0 69 q 40 93 23 93 q 79 55 79 93 q 51 18 79 18 q 79 8 62 9 q 157 54 116 8 q 217 150 175 76 l 211 207 l 212 253 l 222 303 l 228 331 l 230 355 q 204 384 230 384 q 135 343 173 384 l 6 173 "},"}":{"x_min":-4,"x_max":567,"ha":610,"o":"m -4 -85 q 30 -74 -4 -74 q 159 -37 122 -74 q 242 135 196 0 q 272 224 256 185 q 314 299 289 263 q 377 349 339 336 q 466 363 415 363 q 404 391 428 372 q 375 451 375 415 q 400 562 375 504 q 420 602 408 580 q 453 656 432 623 q 496 733 482 704 q 516 806 516 774 q 490 872 516 852 q 419 893 464 893 q 390 904 390 893 q 423 914 390 914 q 518 893 480 914 q 567 795 567 863 q 546 712 567 757 l 495 629 q 433 509 448 552 q 418 430 418 466 q 441 394 418 412 q 509 362 461 380 q 442 341 470 356 q 358 269 395 318 q 324 206 342 247 l 294 120 q 218 -45 257 -5 q 62 -96 169 -96 l 27 -96 q -4 -85 -2 -96 "},"â":{"x_min":-7,"x_max":574,"ha":471,"o":"m 318 468 l 170 173 q 136 59 136 103 q 180 6 136 6 q 350 131 258 6 q 302 186 322 148 q 286 263 286 223 q 309 355 286 318 q 379 392 333 392 q 437 372 419 392 q 457 322 457 355 q 433 236 457 283 q 407 187 423 212 q 372 139 391 162 l 385 138 q 408 139 401 138 q 429 149 415 140 q 467 187 449 161 l 476 194 l 481 187 l 477 175 q 434 135 458 147 q 411 127 422 130 q 386 125 401 125 l 362 125 q 281 34 331 76 q 172 -13 222 -13 q 84 19 116 -13 q 54 106 54 54 q 56 146 54 137 q 64 167 59 156 q 72 187 68 179 l 163 367 l 90 281 l 8 179 l 0 172 l -7 179 l -4 187 q 105 327 32 241 q 183 412 164 398 l 269 583 q 375 765 343 727 q 430 807 401 792 q 484 822 458 822 q 548 798 523 822 q 574 735 574 774 q 478 588 574 672 l 393 520 l 318 468 m 472 606 q 553 731 553 678 q 542 767 553 753 q 512 784 532 781 q 467 759 493 784 q 395 633 448 737 l 328 498 l 408 556 l 472 606 m 421 281 q 411 309 421 298 q 379 321 402 321 l 373 321 q 325 298 343 321 q 310 245 310 276 q 322 185 310 213 q 358 144 334 157 q 376 170 368 156 q 394 202 377 171 q 421 281 421 255 "},"ø":{"x_min":-11,"x_max":880.671875,"ha":872,"o":"m 876 192 l 880 183 l 876 172 q 798 63 832 99 q 686 -8 736 -8 q 607 12 631 -8 q 583 82 583 32 q 602 171 583 118 l 627 236 l 593 174 l 571 137 q 501 43 526 68 q 412 -8 454 -8 q 339 15 367 -8 q 313 84 313 42 q 331 177 313 127 q 356 236 339 205 l 297 137 q 225 44 256 75 q 132 -8 175 -8 q 66 17 90 -8 q 41 98 41 43 q 77 222 41 140 q 141 344 107 294 l 61 247 l 5 173 l 0 167 l -11 175 l -5 186 l 79 304 l 150 395 l 286 404 l 147 129 l 132 84 q 123 41 123 59 q 146 11 123 12 q 211 50 171 11 q 285 144 243 82 l 356 259 l 398 335 l 424 395 l 554 404 l 413 122 q 391 41 391 82 q 415 7 391 7 q 503 68 454 7 l 557 144 l 624 256 l 668 335 l 696 395 l 827 404 l 686 122 q 665 76 673 101 l 658 40 q 690 11 658 11 q 787 78 726 11 q 868 184 818 113 l 876 192 "},"‰":{"x_min":65,"x_max":789,"ha":825,"o":"m 76 4 l 71 8 l 73 12 l 80 27 q 193 203 126 106 l 287 331 l 399 475 q 438 530 423 506 q 463 570 445 541 l 473 580 l 478 583 l 485 573 l 481 561 q 395 417 429 467 q 362 369 376 387 q 321 314 354 356 l 212 185 q 92 21 156 118 l 80 8 l 76 4 m 509 220 q 463 88 509 163 q 339 4 407 4 q 287 33 309 4 q 266 106 266 63 q 276 160 266 137 q 348 251 292 209 q 452 290 403 290 q 494 271 479 290 q 509 220 509 252 m 308 522 q 262 390 308 465 q 138 306 206 306 q 86 335 108 306 q 65 410 65 365 q 74 462 65 442 q 146 552 91 512 q 251 592 202 592 q 293 573 278 592 q 308 522 308 554 m 789 220 q 743 88 789 163 q 619 4 687 4 q 568 33 590 4 q 547 106 547 63 q 555 160 547 137 q 627 251 572 209 q 731 290 683 290 q 774 271 759 290 q 789 220 789 252 m 108 355 q 142 314 108 314 q 237 379 192 314 q 283 529 283 444 q 276 566 283 551 q 249 584 269 581 q 149 486 199 584 q 108 355 108 403 m 308 53 q 341 12 308 12 q 438 77 392 12 q 484 226 484 142 q 476 264 484 249 q 450 282 469 279 q 350 184 400 282 q 308 53 308 101 m 590 53 q 623 12 590 12 q 719 77 674 12 q 765 226 765 142 q 757 264 765 249 q 730 282 749 279 q 631 184 681 282 q 590 53 590 101 "},"Ä":{"x_min":58,"x_max":991.34375,"ha":1026,"o":"m 211 -14 q 106 1 142 -14 q 58 58 58 20 q 87 103 58 83 q 159 120 116 120 q 203 118 188 120 q 247 111 218 117 q 304 97 277 105 q 371 73 332 88 q 489 239 436 138 q 574 451 526 313 q 687 702 633 618 q 835 849 742 786 q 557 941 740 941 q 293 815 400 941 q 199 571 199 702 q 236 448 199 495 q 343 402 274 402 q 506 492 442 402 q 562 673 562 573 q 513 803 562 764 l 508 812 l 512 815 l 517 815 q 562 757 546 796 q 579 668 579 717 q 519 478 579 563 q 344 385 451 385 q 188 437 246 385 q 130 587 130 489 q 239 835 130 725 q 556 960 364 960 q 742 932 667 960 q 860 867 803 910 l 920 901 q 991 926 956 918 l 938 891 l 884 846 q 959 709 932 789 q 986 536 986 629 q 890 165 986 315 q 570 -8 777 -8 q 388 26 463 -8 l 318 1 q 266 -9 293 -5 q 211 -14 239 -14 m 595 17 q 869 178 763 17 q 964 521 964 325 q 865 823 964 704 q 790 683 824 765 l 714 423 q 612 187 671 263 q 435 48 562 120 l 511 27 q 595 17 560 17 m 156 101 q 101 89 124 101 q 79 57 79 77 q 115 18 79 34 q 191 4 156 4 q 286 22 245 4 l 341 48 q 241 88 285 75 q 156 101 198 101 "},"Ч":{"x_min":5,"x_max":1027.21875,"ha":864,"o":"m 870 197 l 874 190 q 867 169 874 180 q 785 53 806 77 q 666 -6 729 -6 q 579 19 611 -6 q 548 102 548 45 q 549 139 548 126 q 556 176 550 152 q 572 227 563 201 q 593 284 581 254 q 611 332 603 314 q 629 365 615 341 l 701 498 q 631 417 664 451 q 560 356 598 383 q 431 308 491 308 q 341 337 374 308 q 312 420 312 366 q 334 520 312 467 q 377 601 346 555 l 413 655 q 459 738 442 699 q 475 809 475 776 q 446 870 475 845 q 411 887 431 881 q 356 893 391 893 q 110 794 204 893 q 23 591 23 704 q 120 490 23 490 q 253 590 196 490 q 299 756 299 674 l 299 777 l 299 788 l 299 794 l 299 794 l 304 789 l 315 773 l 325 727 l 328 688 q 278 538 328 596 q 116 472 221 472 q 5 594 5 472 q 96 805 5 709 q 359 910 199 910 q 527 854 471 910 q 573 734 573 808 q 559 659 573 696 q 517 579 546 622 l 456 491 q 405 369 405 409 q 446 332 405 332 q 629 447 519 332 q 748 602 704 526 l 817 729 q 862 812 845 780 q 895 880 870 827 l 1027 891 l 911 662 l 766 377 l 682 215 q 634 64 634 113 q 682 16 634 16 q 754 50 716 16 q 853 181 792 84 l 863 192 l 870 197 "},"—":{"x_min":40.28125,"x_max":713.890625,"ha":732,"o":"m 144 269 q 193 276 169 273 q 247 279 216 279 q 394 265 337 279 l 505 242 l 577 236 l 627 239 q 665 245 645 239 q 705 262 686 251 l 713 265 l 706 252 q 612 215 673 227 q 554 208 581 211 q 500 206 527 206 l 413 210 l 316 226 l 231 242 q 175 251 191 251 l 154 251 l 130 247 l 86 230 l 52 216 l 44 214 l 40 216 l 48 229 q 144 269 90 254 "},"N":{"x_min":8,"x_max":1187.171875,"ha":914,"o":"m 176 -15 q 51 23 95 -15 q 8 115 8 62 q 33 179 8 155 q 90 204 59 204 q 143 184 122 204 q 164 124 164 165 q 137 66 164 91 q 62 44 111 44 q 176 0 99 0 q 300 41 248 0 q 415 184 352 83 l 550 423 l 707 718 q 834 856 779 843 l 844 856 l 851 849 l 846 831 q 813 664 828 781 q 804 555 808 615 q 800 449 800 494 l 800 181 l 827 268 q 909 476 859 362 q 999 653 958 589 q 1077 742 1040 718 q 1127 756 1102 756 q 1169 744 1153 756 q 1187 717 1187 735 q 1174 694 1187 704 q 1142 681 1162 683 l 1113 685 q 1089 699 1099 690 q 1069 708 1079 708 l 1062 706 q 998 623 1039 694 q 960 549 980 591 q 920 458 941 507 l 855 298 l 800 131 l 800 44 l 685 2 l 685 80 l 685 319 q 687 396 685 370 q 697 513 689 422 q 744 702 705 604 q 806 822 770 772 q 691 651 769 791 l 563 416 l 446 204 q 330 47 389 102 q 176 -15 260 -15 "},"2":{"x_min":-1,"x_max":458.71875,"ha":474,"o":"m 112 343 q 169 489 112 419 q 304 560 227 560 q 424 512 382 560 q 458 408 458 471 q 417 276 458 329 q 272 181 375 223 l 158 140 q 75 79 99 115 l 131 99 q 192 108 160 108 q 290 90 237 108 l 339 71 l 371 67 q 428 105 406 67 q 437 120 429 112 l 443 125 l 447 120 l 440 102 q 393 24 415 49 q 292 -14 354 -14 q 233 -6 255 -14 q 201 6 210 1 q 176 23 193 11 l 136 49 q 99 63 118 60 q 49 47 69 63 q 15 -4 28 32 q 8 -16 11 -14 q 3 -21 4 -19 l -1 -12 l 1 10 q 53 90 14 55 q 204 184 58 95 q 300 258 265 220 q 354 358 335 296 l 368 417 l 375 471 q 360 525 375 506 q 308 545 344 545 q 180 478 234 545 q 126 343 126 412 q 176 289 126 289 q 246 336 216 289 q 277 416 269 372 l 281 430 l 290 418 q 256 322 290 372 q 177 275 221 275 q 127 292 143 275 q 112 343 112 309 "},"ü":{"x_min":12,"x_max":393,"ha":451,"o":"m 231 414 l 155 275 q 172 288 166 283 q 198 303 178 293 q 262 317 230 317 q 354 285 316 317 q 393 190 393 254 q 333 49 393 112 q 184 -14 274 -14 q 59 23 106 -14 q 12 124 12 61 q 23 190 12 154 q 60 286 34 227 l 120 405 l 231 414 m 98 100 q 117 30 98 58 q 170 3 136 3 q 270 76 225 3 q 315 222 315 150 q 301 274 315 255 q 251 293 288 293 q 182 273 216 293 q 136 236 160 261 l 107 157 q 100 127 103 140 q 98 100 98 115 "},"М":{"x_min":16,"x_max":1333,"ha":1322,"o":"m 468 215 l 737 641 q 828 752 787 703 q 903 835 863 792 q 939 869 924 856 q 995 917 964 892 l 834 434 l 775 266 q 709 33 709 78 q 720 13 709 13 q 777 82 736 13 q 860 253 806 135 q 957 463 932 416 q 1103 708 1020 597 q 1231 853 1157 779 l 1298 917 q 1227 707 1269 849 q 1155 435 1201 620 l 1113 259 q 1093 101 1093 159 q 1144 13 1093 13 q 1244 83 1185 13 l 1316 187 l 1324 194 l 1333 187 l 1328 176 l 1258 69 q 1138 -8 1195 -8 q 1021 46 1063 -8 q 983 194 983 101 q 1029 436 983 304 q 1142 686 1076 569 q 1250 854 1178 748 q 1149 744 1205 816 q 974 454 1060 625 l 824 131 q 712 -8 754 -8 q 617 115 617 -8 q 637 254 617 175 q 701 441 658 333 q 833 700 760 588 q 951 861 887 788 l 880 788 q 747 630 822 724 q 608 419 686 552 l 483 205 q 356 46 415 97 q 197 -17 281 -17 q 67 15 118 -17 q 16 116 16 47 q 84 221 16 179 q 234 263 153 263 l 263 258 l 257 255 q 106 216 174 255 q 38 115 38 177 q 90 28 38 59 q 199 2 136 2 q 346 61 276 2 q 468 215 403 112 "},"ь":{"x_min":12,"x_max":393,"ha":451,"o":"m 231 414 l 155 275 q 172 288 166 283 q 198 303 178 293 q 262 317 230 317 q 354 285 316 317 q 393 190 393 254 q 333 49 393 112 q 184 -14 274 -14 q 59 23 106 -14 q 12 124 12 61 q 23 190 12 154 q 60 286 34 227 l 120 405 l 231 414 m 98 100 q 117 30 98 58 q 170 3 136 3 q 270 76 225 3 q 315 222 315 150 q 301 274 315 255 q 251 293 288 293 q 182 273 216 293 q 136 236 160 261 l 107 157 q 100 127 103 140 q 98 100 98 115 "},"Ó":{"x_min":123,"x_max":1116.0625,"ha":929,"o":"m 342 204 l 385 204 l 392 200 l 382 199 q 251 176 306 199 q 181 86 181 147 q 215 10 181 34 q 319 -14 249 -14 q 468 15 401 -14 q 646 173 564 58 q 731 330 671 208 l 824 520 l 657 315 q 503 235 570 235 q 415 266 445 235 q 385 348 385 297 q 391 391 385 369 q 404 441 395 419 q 485 584 424 494 l 534 655 q 579 738 563 700 q 596 809 596 776 q 567 870 596 845 q 475 893 538 893 q 228 788 328 893 q 142 594 142 695 q 164 519 142 547 q 232 492 187 492 q 372 587 314 492 q 420 751 420 669 l 420 775 l 420 785 l 420 792 q 427 787 424 790 q 436 769 431 783 q 445 731 441 755 q 449 689 449 707 q 399 539 449 597 q 232 473 342 473 q 150 506 182 473 q 123 596 123 540 q 213 801 123 707 q 480 910 317 910 q 648 854 592 910 q 694 733 694 808 q 692 704 694 719 q 686 668 691 689 q 649 593 681 647 q 586 495 634 565 l 529 411 q 492 344 504 373 q 477 291 479 315 q 517 257 477 257 q 663 353 571 257 q 850 602 754 450 q 960 738 892 672 q 1093 845 1028 805 l 1111 852 l 1116 848 l 1113 843 q 1102 829 1109 834 q 1006 712 1043 781 q 947 569 977 656 l 893 391 q 815 224 859 284 q 572 14 711 77 q 324 -31 468 -31 q 131 70 131 -31 q 196 167 131 131 q 342 204 261 204 "},"Ÿ":{"x_min":-30,"x_max":617.234375,"ha":597,"o":"m 136 -64 q 150 -51 140 -52 l 156 -59 l 137 -119 l 121 -165 l 194 -139 l 201 -138 l 207 -144 q 204 -149 206 -147 q 201 -153 203 -151 l 117 -187 q 67 -305 88 -273 q 7 -343 42 -343 q -30 -302 -30 -343 q 15 -220 -30 -258 q 101 -171 39 -201 l 136 -64 m 613 206 l 617 200 q 611 183 614 186 q 526 64 558 100 q 408 -8 463 -8 q 330 12 354 -8 q 306 76 306 33 q 310 116 306 94 q 325 165 314 137 q 337 195 329 177 q 356 236 344 212 l 329 190 l 297 137 q 228 47 256 76 q 138 -8 176 -8 q 45 93 45 -8 q 54 153 45 119 q 80 224 63 187 l 155 395 l 286 404 l 171 173 l 135 98 q 121 42 121 61 q 150 13 121 13 q 211 51 172 13 q 283 146 240 80 l 346 251 l 392 336 l 419 395 l 556 404 l 413 124 q 387 43 387 68 q 413 9 387 9 q 538 107 461 9 q 596 192 560 133 l 606 201 l 613 206 m -12 -299 q 8 -326 -12 -323 q 51 -299 33 -326 q 97 -194 68 -273 q 29 -230 42 -220 q -12 -299 -12 -259 "},"Ў":{"x_min":123,"x_max":1116.0625,"ha":929,"o":"m 735 1007 q 747 1035 735 1022 q 778 1048 760 1048 q 804 1035 792 1048 q 816 1007 813 1024 q 796 972 816 983 q 894 933 839 933 q 1002 969 949 933 q 991 997 993 979 q 1003 1032 991 1018 q 1034 1048 1016 1046 q 1073 1008 1073 1048 q 1062 978 1073 996 q 1023 942 1052 960 q 962 914 995 923 q 894 905 929 905 q 775 944 826 905 q 735 1007 735 973 m 342 204 l 385 204 l 392 200 l 382 199 q 251 176 306 199 q 181 86 181 147 q 215 10 181 34 q 319 -14 249 -14 q 468 15 401 -14 q 646 173 564 58 q 731 330 671 208 l 824 520 l 657 315 q 503 235 570 235 q 415 266 445 235 q 385 348 385 297 q 391 391 385 369 q 404 441 395 419 q 485 584 424 494 l 534 655 q 579 738 563 700 q 596 809 596 776 q 567 870 596 845 q 475 893 538 893 q 228 788 328 893 q 142 593 142 695 q 164 518 142 546 q 232 491 187 491 q 372 587 314 491 q 420 751 420 669 l 420 775 l 420 785 l 420 792 q 427 787 424 790 q 436 769 431 783 q 445 731 441 755 q 449 689 449 707 q 399 538 449 597 q 232 472 342 472 q 150 505 182 472 q 123 595 123 540 q 213 801 123 706 q 480 910 317 910 q 648 854 592 910 q 694 733 694 808 q 692 704 694 719 q 686 668 691 689 q 649 593 681 647 q 586 495 634 565 l 529 411 q 492 344 504 373 q 477 291 479 315 q 517 257 477 257 q 663 353 571 257 q 850 602 754 450 q 960 738 892 672 q 1093 845 1028 805 l 1111 852 l 1116 848 l 1113 843 q 1102 829 1109 834 q 1006 712 1043 781 q 947 569 977 656 l 893 391 q 815 224 859 284 q 572 14 711 77 q 324 -31 468 -31 q 131 70 131 -31 q 196 167 131 131 q 342 204 261 204 "},"в":{"x_min":-7,"x_max":574,"ha":471,"o":"m 318 468 l 170 173 q 136 59 136 103 q 180 6 136 6 q 350 131 258 6 q 302 186 322 148 q 286 263 286 223 q 309 355 286 318 q 379 392 333 392 q 437 372 419 392 q 457 322 457 355 q 433 236 457 283 q 407 187 423 212 q 372 139 391 162 l 385 138 q 408 139 401 138 q 429 149 415 140 q 467 187 449 161 l 476 194 l 481 187 l 477 175 q 434 135 458 147 q 411 127 422 130 q 386 125 401 125 l 362 125 q 281 34 331 76 q 172 -13 222 -13 q 84 19 116 -13 q 54 106 54 54 q 56 146 54 137 q 64 167 59 156 q 72 187 68 179 l 163 367 l 90 281 l 8 179 l 0 172 l -7 179 l -4 187 q 105 327 32 241 q 183 412 164 398 l 269 583 q 375 765 343 727 q 430 807 401 792 q 484 822 458 822 q 548 798 523 822 q 574 735 574 774 q 478 588 574 672 l 393 520 l 318 468 m 472 606 q 553 731 553 678 q 542 767 553 753 q 512 784 532 781 q 467 759 493 784 q 395 633 448 737 l 328 498 l 408 556 l 472 606 m 421 281 q 411 309 421 298 q 379 321 402 321 l 373 321 q 325 298 343 321 q 310 245 310 276 q 322 185 310 213 q 358 144 334 157 q 376 170 368 156 q 394 202 377 171 q 421 281 421 255 "},"С":{"x_min":94,"x_max":1024,"ha":846,"o":"m 94 693 q 179 869 94 800 q 416 938 264 938 q 448 938 433 938 q 480 938 463 938 q 520 931 505 938 l 524 927 l 519 920 l 497 920 q 241 857 326 920 q 157 675 157 794 q 206 544 157 601 q 316 477 252 494 q 545 771 403 651 q 901 913 715 913 q 991 884 958 913 q 1024 807 1024 856 q 960 658 1024 736 q 761 516 887 572 q 603 461 679 480 q 459 443 527 443 q 405 298 427 377 q 383 158 383 219 q 410 51 383 92 q 507 13 441 13 q 720 118 628 13 q 781 214 760 165 q 802 311 802 262 q 725 399 802 399 q 620 339 658 399 q 593 225 593 292 q 595 188 593 203 q 600 167 597 174 l 600 160 l 600 156 q 551 258 551 187 q 591 364 551 322 q 724 414 636 414 q 795 385 770 414 q 820 309 820 357 q 733 107 820 205 q 507 -4 638 -4 q 307 66 374 -4 q 265 138 279 98 q 252 234 252 178 q 266 350 252 294 q 308 464 280 407 q 171 533 232 479 q 94 693 94 600 m 745 529 q 908 662 841 569 q 952 745 937 705 q 968 822 968 784 q 905 892 968 892 q 659 751 790 892 q 468 461 545 629 q 595 475 544 461 q 745 529 649 487 "},"ß":{"x_min":-28,"x_max":1023.390625,"ha":915,"o":"m 538 283 q 345 79 437 148 q 221 9 282 33 q 92 -14 159 -14 q 2 14 35 -14 q -28 89 -28 44 q 38 198 -28 162 l 53 205 l 58 205 q 47 193 53 197 q -4 95 -4 158 q 21 34 -4 59 q 93 12 47 12 q 270 113 179 12 l 418 317 q 557 440 472 394 q 673 484 580 452 l 611 479 q 461 525 522 479 q 401 647 401 572 q 470 808 401 739 q 674 885 549 885 q 732 880 705 885 q 787 865 759 876 q 872 815 838 848 l 896 872 l 1023 885 l 716 173 q 693 75 693 118 q 700 36 693 48 q 731 24 708 24 q 851 105 787 24 l 916 198 l 929 205 l 937 198 l 931 184 q 833 52 861 80 q 683 -8 769 -8 q 608 16 638 -8 q 578 91 578 41 q 600 187 578 132 l 734 494 q 538 283 679 473 m 641 508 q 750 529 691 508 l 861 790 q 729 842 816 842 q 569 776 631 842 q 508 626 508 711 q 544 540 508 572 q 641 508 580 508 "},"s":{"x_min":-21,"x_max":318,"ha":304,"o":"m -11 158 q -7 169 -11 165 l 75 286 l 130 359 l 126 383 q 131 408 126 398 q 153 421 137 418 q 176 398 176 421 q 164 375 176 387 l 150 356 q 216 251 186 310 q 247 136 247 191 q 241 92 247 118 l 270 130 l 302 179 l 312 185 l 318 179 l 312 164 q 229 52 262 84 q 165 2 197 19 q 101 -14 133 -14 q 17 1 48 -14 q -21 62 -21 20 q -7 94 -21 81 q 23 107 5 107 q 45 98 35 107 q 58 74 55 90 q 13 31 58 37 l 8 27 q 26 11 8 20 l 58 5 q 125 71 101 5 q 150 235 150 137 q 146 291 150 269 q 136 337 143 313 l 61 239 l 3 159 l -2 154 l -11 158 "},"?":{"x_min":103,"x_max":550,"ha":558,"o":"m 369 690 q 498 651 447 690 q 550 544 550 612 q 519 444 550 484 q 398 370 483 398 q 267 327 285 337 q 191 231 191 288 q 236 186 191 186 q 293 222 270 186 q 309 236 302 234 l 312 230 l 312 222 q 277 180 299 195 q 235 167 257 169 q 191 184 210 167 q 172 232 172 201 q 226 330 172 282 q 333 400 244 344 q 430 497 401 441 q 449 580 449 536 q 429 646 449 620 q 368 672 410 672 q 263 633 301 672 q 225 534 225 594 q 240 489 225 505 q 277 476 255 478 q 353 571 339 476 l 356 579 l 356 579 l 361 569 q 336 487 361 519 q 273 455 312 455 q 218 474 240 455 q 197 534 197 493 q 243 643 197 596 q 369 690 290 690 m 202 51 q 188 12 202 30 q 147 -6 174 -6 q 114 6 126 -6 q 103 39 105 17 q 117 78 103 60 q 157 97 132 97 q 189 83 176 97 q 202 51 202 70 "},"c":{"x_min":-5,"x_max":382.5,"ha":369,"o":"m 317 278 q 289 288 299 278 q 277 316 279 298 q 322 357 277 357 q 293 366 314 366 q 224 327 264 366 q 126 183 174 279 q 113 153 118 165 q 99 113 107 140 q 90 61 90 86 q 138 6 90 6 q 243 37 193 6 q 365 175 300 73 l 376 182 l 382 176 l 376 162 q 282 46 321 79 q 138 -8 220 -8 q 33 28 74 -8 q -5 126 -5 67 q 3 185 -5 155 q 33 247 11 215 q 149 349 71 310 q 275 381 215 381 q 342 365 322 381 q 363 322 363 350 q 351 290 363 303 q 317 278 340 278 "},"¶":{"x_min":-3.328125,"x_max":575.078125,"ha":535,"o":"m 245 326 q 186 280 202 290 q 101 260 148 260 q 40 283 59 260 q 22 350 22 311 q 98 529 22 447 q 290 617 180 617 l 393 609 l 452 606 l 64 -161 l -3 -160 l 245 326 m 519 606 l 575 606 l 186 -161 l 119 -161 l 519 606 "},"•":{"x_min":90,"x_max":357,"ha":440,"o":"m 90 200 q 124 289 90 252 q 230 331 165 331 q 324 296 291 331 q 357 213 357 261 q 322 124 357 161 q 216 83 281 83 q 121 116 158 83 q 90 200 90 151 "},"н":{"x_min":-8,"x_max":607,"ha":596,"o":"m 252 194 l 151 0 l 42 0 l 212 325 q 223 364 221 345 q 192 392 223 392 q 73 273 161 392 l 12 183 l 0 175 l -3 174 l -8 178 l -2 192 l 62 287 q 121 364 97 339 q 162 400 146 390 q 217 414 187 414 q 275 385 254 414 q 296 316 296 356 q 280 253 296 278 l 261 219 l 342 219 l 443 395 l 553 404 l 382 79 q 373 41 373 59 q 380 15 373 26 q 403 6 388 7 q 512 79 451 6 q 586 181 533 104 l 595 190 l 600 193 l 607 186 l 600 173 q 565 120 582 144 q 529 75 548 97 q 401 -8 458 -8 q 326 21 351 -8 q 301 91 301 50 q 309 142 301 119 q 333 194 316 164 l 252 194 "},"(":{"x_min":75,"x_max":451.390625,"ha":319,"o":"m 263 -81 l 261 -86 l 251 -80 l 230 -62 q 130 93 173 -4 q 88 216 102 157 q 75 341 75 275 q 174 655 75 491 q 409 880 273 818 q 444 892 427 889 l 451 892 q 420 861 451 883 q 262 644 327 794 q 190 267 190 471 q 206 88 190 164 q 256 -58 222 12 l 262 -74 l 263 -81 "},"м":{"x_min":-23.609375,"x_max":873.609375,"ha":817,"o":"m 297 251 q 402 381 351 338 q 470 422 429 404 q 470 375 470 398 q 463 318 466 345 q 433 218 461 290 l 397 113 q 385 72 391 95 q 379 38 379 50 q 395 16 379 19 q 437 79 408 16 l 508 236 q 608 381 554 331 q 676 422 641 411 q 675 380 676 402 q 668 323 673 358 q 640 218 663 288 l 616 133 l 606 66 q 648 12 606 12 q 736 84 673 12 q 844 230 779 136 l 873 245 l 858 222 l 826 173 l 741 59 q 645 -6 684 -6 q 560 27 593 -6 q 527 122 527 61 q 540 213 527 168 q 575 305 552 259 q 588 334 583 325 q 604 358 593 343 l 569 316 q 523 230 544 280 q 391 -2 423 -2 q 333 26 358 -2 q 311 106 311 56 l 315 161 q 320 189 318 180 q 334 226 323 198 l 363 291 l 405 358 l 356 302 l 312 240 l 202 73 q 56 -6 137 -6 q -23 51 -23 -6 q -6 89 -23 75 q 33 106 9 104 q 70 93 55 106 q 86 52 86 80 q 80 24 86 34 q 56 5 75 13 q 213 116 136 5 l 297 251 "},"­":{"x_min":58.71875,"x_max":389.28125,"ha":379,"o":"m 186 293 q 258 284 226 293 l 310 275 l 350 271 q 378 276 367 271 l 383 278 l 389 273 l 380 262 q 333 244 371 254 q 268 235 294 235 q 193 241 218 235 l 142 252 l 96 257 l 74 254 l 65 253 l 58 258 l 67 265 l 121 283 q 156 290 140 287 q 186 293 172 293 "},"з":{"x_min":-119,"x_max":492.109375,"ha":475,"o":"m 230 411 q 297 383 270 411 q 325 309 325 355 q 304 229 325 265 q 234 170 283 194 q 157 137 221 160 q 92 101 112 120 q 153 107 134 106 q 186 108 173 108 q 287 92 256 108 q 332 26 317 77 q 394 78 363 42 q 474 192 412 98 l 481 199 l 485 201 l 492 195 l 487 182 q 442 118 461 144 q 418 85 423 92 q 332 12 373 30 q 319 -75 332 -25 q 257 -234 302 -147 q 137 -376 211 -322 q 3 -424 69 -424 q -87 -395 -56 -424 q -119 -323 -119 -367 q -18 -146 -119 -229 q 233 -8 63 -79 l 239 13 q 216 73 239 56 q 147 91 194 91 q 108 91 121 91 l 82 86 l 39 27 q -6 -6 11 -6 q -23 8 -23 -6 q 22 65 -23 24 l 66 99 q 161 177 122 137 q 222 293 222 241 q 209 338 222 321 q 173 359 197 356 q 123 335 147 359 l 66 260 l 8 179 l 0 175 l -7 181 l -2 194 l 62 287 l 104 342 q 167 393 132 376 q 230 411 202 411 m 233 -27 q 0 -157 71 -100 q -95 -319 -95 -232 q -74 -379 -95 -356 q -11 -402 -54 -402 q 60 -367 25 -402 q 143 -235 94 -332 l 190 -144 q 233 -27 217 -87 "},":":{"x_min":58,"x_max":194,"ha":210,"o":"m 157 51 q 143 12 157 30 q 102 -6 129 -6 q 69 6 81 -6 q 58 39 60 17 q 72 78 58 60 q 112 97 87 97 q 144 83 131 97 q 157 51 157 70 m 194 318 q 180 279 194 297 q 139 261 166 261 q 108 273 118 261 q 95 308 97 286 q 109 347 95 330 q 149 364 124 364 q 181 350 168 364 q 194 318 194 337 "},"Ґ":{"x_min":26,"x_max":1382,"ha":856,"o":"m 896 826 l 763 861 q 627 879 676 879 q 320 762 443 879 q 216 543 216 662 q 242 462 216 493 q 320 431 268 431 q 481 555 416 431 q 532 765 532 662 l 534 778 l 538 771 q 546 750 544 758 q 555 723 549 743 q 562 692 560 704 q 563 657 563 680 q 510 493 563 558 q 321 414 448 414 q 228 448 261 414 q 198 543 198 486 q 314 787 198 670 q 652 919 449 919 q 709 917 689 919 q 813 906 728 916 q 945 897 898 897 q 1009 897 977 897 q 1053 891 1039 893 l 1182 882 q 1296 907 1259 882 q 1333 971 1333 932 q 1319 1018 1333 996 q 1284 1053 1306 1040 q 1352 1019 1320 1053 q 1382 940 1382 986 q 1326 843 1382 882 q 1129 796 1258 796 l 1111 796 q 1015 801 1045 796 q 955 813 985 807 q 896 826 924 819 m 547 333 l 631 538 q 720 697 677 648 q 788 760 756 738 q 867 801 820 781 q 769 622 816 758 l 678 352 q 595 176 641 248 q 469 51 541 93 q 348 5 417 22 q 280 -3 317 0 q 210 -8 244 -8 q 63 33 112 -8 q 26 121 26 66 q 94 227 26 183 q 241 271 162 271 l 257 271 l 269 265 l 271 263 q 116 224 184 263 q 48 122 48 186 q 97 38 48 69 q 200 13 138 13 q 414 110 322 13 q 547 333 482 182 "},"і":{"x_min":-11,"x_max":339,"ha":314,"o":"m 145 395 l 272 404 l 101 79 q 93 41 93 59 q 100 15 93 26 q 123 6 108 7 q 232 79 170 6 q 304 181 261 112 l 313 188 l 319 193 l 325 186 l 319 173 q 247 75 270 104 q 120 -8 176 -8 q 45 20 70 -8 q 19 91 19 48 q 34 150 19 124 l 125 337 l 7 175 l 0 169 l -11 174 l -2 191 l 70 294 l 145 395 m 292 619 q 326 605 313 619 q 339 570 339 592 q 322 527 339 546 q 276 508 306 508 q 238 521 251 508 q 226 553 226 534 q 243 599 226 580 q 292 619 260 619 "},"":{"x_min":26,"x_max":1376,"ha":856,"o":"m 960 1059 q 992 1078 973 1076 q 1021 1065 1009 1078 q 1034 1036 1034 1052 q 1014 1007 1034 1015 l 952 973 l 898 945 l 887 940 l 881 945 l 888 958 l 960 1059 m 877 825 q 842 833 857 829 q 798 848 827 837 q 627 879 684 879 q 320 762 443 879 q 216 543 216 662 q 242 462 216 493 q 320 431 268 431 q 480 546 416 431 q 532 752 532 644 l 534 776 l 537 776 q 563 658 563 729 q 510 493 563 559 q 321 414 448 414 q 228 448 261 414 q 198 543 198 486 q 314 789 198 674 q 652 919 448 919 q 785 911 702 919 q 834 906 799 911 q 916 895 870 902 l 1080 881 l 1145 881 q 1209 885 1180 881 q 1269 900 1238 889 q 1376 954 1323 918 q 1346 908 1367 933 q 1285 848 1319 873 q 1251 827 1270 836 q 1206 808 1232 818 q 1155 799 1185 803 q 1092 795 1125 795 q 995 799 1038 795 q 877 825 952 804 m 26 122 q 92 229 26 187 q 257 271 159 271 l 275 263 l 278 263 l 270 261 q 115 224 182 261 q 48 122 48 187 q 88 44 48 76 q 200 13 128 13 q 381 79 299 13 q 565 377 472 155 l 640 561 q 719 695 679 650 q 794 765 759 740 q 869 801 830 791 l 869 797 q 776 630 817 759 l 698 376 q 544 105 638 193 q 210 -8 421 -8 q 73 29 123 -8 q 26 122 26 68 "},"Û":{"x_min":105,"x_max":1321,"ha":1151,"o":"m 1145 187 l 1153 196 l 1163 190 l 1156 175 q 1070 58 1091 78 q 934 -13 1003 -13 q 854 15 883 -13 q 825 94 825 44 q 849 191 825 138 l 1188 890 l 1321 904 l 964 173 q 929 58 929 97 q 934 29 929 38 q 958 19 940 20 q 1067 83 1008 19 q 1145 187 1098 116 m 486 901 l 619 915 l 522 726 q 432 554 460 602 l 497 576 q 532 583 514 580 q 571 586 550 586 q 702 541 648 586 q 778 359 778 480 q 678 92 778 202 q 426 -17 578 -17 q 268 31 325 -17 q 199 206 199 88 q 249 429 199 312 l 334 597 l 212 490 q 124 422 164 450 l 114 418 l 110 416 l 105 419 l 105 425 l 116 436 q 251 551 180 479 l 368 673 l 486 901 m 293 174 q 329 56 293 105 q 413 7 365 7 q 611 169 528 7 q 681 433 681 308 q 650 530 681 499 q 563 561 619 561 q 527 559 539 561 q 492 549 515 558 q 421 524 454 541 l 347 370 q 293 174 293 248 "},"V":{"x_min":97.609375,"x_max":1057.515625,"ha":593,"o":"m 275 220 q 301 380 275 298 q 374 549 326 462 q 419 616 390 578 l 508 731 q 419 684 474 707 q 329 662 364 662 q 272 716 272 662 l 278 755 l 282 784 q 262 799 282 798 q 190 761 233 799 q 117 675 147 723 q 105 662 112 667 l 100 658 l 97 662 q 104 682 97 671 q 203 793 144 753 q 307 833 262 833 q 353 765 353 833 l 354 734 q 387 708 361 708 q 510 751 442 708 q 593 835 562 784 q 618 854 601 851 q 633 838 633 854 q 622 819 633 830 q 567 751 593 794 q 529 662 542 709 q 496 540 507 579 q 464 436 478 479 q 417 299 439 358 q 379 209 396 241 q 344 143 358 168 q 318 98 337 130 l 268 18 q 396 138 326 65 q 547 346 487 241 l 635 511 q 726 662 679 595 q 838 782 774 729 q 992 842 910 842 q 1042 834 1021 842 q 1057 817 1054 833 l 1053 802 q 992 823 1031 823 q 914 807 954 823 q 849 771 874 792 q 733 646 788 719 q 649 506 697 596 l 560 340 q 390 108 489 206 q 219 -23 310 26 q 261 107 247 48 q 275 220 275 166 "}," ":{"x_min":0,"x_max":0,"ha":321},"У":{"x_min":123,"x_max":1116.0625,"ha":929,"o":"m 342 204 l 385 204 l 392 200 l 382 199 q 251 176 306 199 q 181 86 181 147 q 215 10 181 34 q 319 -14 249 -14 q 468 15 401 -14 q 646 173 564 58 q 731 330 671 208 l 824 520 l 657 315 q 503 235 570 235 q 415 266 445 235 q 385 348 385 297 q 391 391 385 369 q 404 441 395 419 q 485 584 424 494 l 534 655 q 579 738 563 700 q 596 809 596 776 q 567 870 596 845 q 475 893 538 893 q 228 788 328 893 q 142 594 142 695 q 164 519 142 547 q 232 492 187 492 q 372 587 314 492 q 420 751 420 669 l 420 775 l 420 785 l 420 792 q 427 787 424 790 q 436 769 431 783 q 445 731 441 755 q 449 689 449 707 q 399 539 449 597 q 232 473 342 473 q 150 506 182 473 q 123 596 123 540 q 213 801 123 707 q 480 910 317 910 q 648 854 592 910 q 694 733 694 808 q 692 704 694 719 q 686 668 691 689 q 649 593 681 647 q 586 495 634 565 l 529 411 q 492 344 504 373 q 477 291 479 315 q 517 257 477 257 q 663 353 571 257 q 850 602 754 450 q 960 738 892 672 q 1093 845 1028 805 l 1111 852 l 1116 848 l 1113 843 q 1102 829 1109 834 q 1006 712 1043 781 q 947 569 977 656 l 893 391 q 815 224 859 284 q 572 14 711 77 q 324 -31 468 -31 q 131 70 131 -31 q 196 167 131 131 q 342 204 261 204 "},"@":{"x_min":71,"x_max":677,"ha":706,"o":"m 555 493 l 458 262 q 450 225 450 238 q 482 196 450 196 q 597 247 546 196 q 655 400 655 307 q 586 550 655 490 q 400 610 518 610 q 190 536 276 610 q 92 308 92 452 q 173 113 92 183 q 364 51 247 51 q 522 85 454 51 q 611 158 578 113 l 619 169 q 633 158 631 170 l 628 143 q 506 54 574 78 q 361 30 439 30 q 155 96 234 30 q 71 305 71 169 q 176 551 71 459 q 403 631 268 631 q 601 565 526 631 q 677 397 677 499 q 677 365 677 380 q 670 331 672 348 q 653 286 667 314 q 576 200 631 237 q 464 167 524 167 q 409 180 426 167 q 392 221 392 193 l 396 255 q 346 197 365 214 q 275 171 312 171 q 205 202 233 171 q 181 290 181 236 q 201 375 181 329 q 287 467 230 434 q 396 500 344 500 q 441 489 422 500 q 475 456 461 478 l 493 493 l 555 493 m 279 368 q 241 240 241 287 q 282 188 241 188 q 339 216 308 188 q 409 303 370 244 l 468 435 q 444 467 460 455 q 405 482 429 479 q 347 458 375 482 q 279 368 311 429 "},"¾":{"x_min":-22,"x_max":340.5,"ha":326,"o":"m 4 172 q -2 164 0 165 l -12 170 l -6 182 l 46 258 l 144 395 q 159 428 148 416 q 186 444 171 441 q 211 421 211 444 q 189 394 211 399 q 161 382 168 392 q 226 285 197 337 q 266 146 266 208 q 260 97 266 117 l 296 144 q 316 174 315 172 q 325 193 317 176 l 334 200 l 340 193 l 336 176 q 248 58 291 102 q 108 -15 178 -15 q 3 10 36 -15 q -22 66 -22 29 q -8 102 -22 87 q 23 117 5 117 q 50 105 39 117 q 63 82 63 97 q 50 51 63 64 q 12 35 37 39 l 7 30 q 13 22 9 26 q 29 12 16 18 q 57 6 41 6 q 107 33 90 6 q 144 135 123 60 q 155 189 151 159 q 159 252 159 219 q 146 362 159 325 l 4 172 "},"i":{"x_min":-108.328125,"x_max":301.390625,"ha":292,"o":"m 273 420 q 259 381 273 400 q 218 363 245 363 q 181 376 197 363 q 170 411 173 387 q 186 451 170 434 q 227 468 201 468 q 261 454 248 468 q 273 420 273 441 m 252 376 l 94 73 q 84 37 87 58 q 115 5 84 5 q 215 73 156 5 q 283 169 240 101 l 293 177 l 297 179 l 301 175 l 297 161 q 186 22 226 54 q 102 -8 145 -8 q 39 17 61 -8 q 18 80 18 43 q 30 140 18 112 l 116 313 l 6 162 l 0 155 l -8 161 l -2 176 l 136 368 l 252 376 m -108 373 l -108 373 l -108 373 l -108 373 l -108 373 "},"ќ":{"x_min":-22.90625,"x_max":533,"ha":517,"o":"m 450 591 q 480 610 462 608 q 509 597 496 610 q 521 568 521 584 q 502 537 521 547 l 385 476 l 374 472 l 370 476 l 375 490 l 450 591 m 82 0 l -22 0 l 165 370 l 99 294 q 4 170 46 229 l 0 165 q -10 173 -4 165 l -4 184 q 45 253 18 219 q 111 332 72 287 l 178 407 l 190 419 l 302 431 l 82 0 m 533 377 q 521 347 533 359 q 492 336 510 336 q 461 345 474 336 q 450 376 452 353 l 454 399 q 414 338 433 395 q 389 293 403 306 q 353 276 375 280 q 395 199 395 255 q 389 161 395 177 l 372 120 q 353 58 353 86 q 371 35 353 36 q 454 100 404 35 l 515 187 l 522 194 l 526 196 l 533 190 l 533 184 l 526 173 q 417 35 464 79 q 330 -8 370 -8 q 274 10 292 -8 q 259 61 259 28 q 271 132 259 94 q 309 195 284 169 l 335 226 q 343 251 341 238 q 335 272 343 263 l 304 266 l 290 265 q 239 285 241 265 q 280 308 239 308 q 312 301 297 308 l 339 286 q 403 344 383 286 q 413 371 408 360 q 424 389 418 381 q 447 408 429 398 q 488 419 464 419 q 521 406 509 419 q 533 377 530 395 "},"ё":{"x_min":-5.5625,"x_max":448.609375,"ha":390,"o":"m 381 359 q 343 282 381 329 q 254 213 305 236 q 231 205 240 208 q 195 195 222 202 l 134 187 l 112 131 q 105 75 105 100 q 118 23 105 43 q 163 4 131 4 q 293 66 227 4 q 383 184 327 101 l 393 191 l 400 181 l 394 169 q 301 50 337 86 q 166 -12 238 -12 q 41 29 88 -12 q -5 145 -5 70 q 76 319 -5 238 q 305 409 169 409 q 381 359 381 409 m 156 426 q 172 469 156 451 q 218 487 188 487 q 255 472 244 487 q 269 437 268 461 q 252 395 269 413 q 206 376 234 376 q 170 390 183 376 q 156 426 156 405 m 336 426 q 352 469 336 451 q 397 487 368 487 q 434 472 423 487 q 448 437 447 461 q 431 395 448 413 q 386 376 413 376 q 349 390 362 376 q 336 426 336 405 m 143 205 q 190 210 168 205 q 222 218 212 215 q 250 230 233 222 q 329 293 295 252 q 363 361 363 333 q 325 391 363 391 q 292 384 309 391 q 250 352 275 376 q 188 280 225 327 q 143 205 159 238 "},"m":{"x_min":-10.890625,"x_max":778.046875,"ha":769,"o":"m 482 305 l 479 284 q 539 349 508 322 q 609 382 578 382 q 655 360 639 382 q 672 302 672 338 q 627 175 672 238 q 604 140 616 160 q 583 103 591 120 q 568 45 568 70 q 601 13 568 13 q 679 60 633 13 q 761 172 709 93 l 773 181 l 778 175 q 772 158 775 161 q 683 40 718 75 q 576 -8 632 -8 q 514 9 537 -8 q 492 67 492 27 q 514 154 492 110 l 548 216 l 593 288 q 616 343 614 322 q 596 360 616 360 q 524 316 568 360 q 443 206 482 272 l 338 0 l 239 0 l 394 304 l 400 318 q 408 346 408 337 q 389 365 408 363 q 311 309 361 365 q 245 221 277 272 l 132 0 l 30 0 l 194 308 l 204 330 l 209 348 q 194 360 209 358 q 76 260 154 360 l 4 160 l -2 156 l -10 162 l -6 169 l 62 269 q 207 382 146 382 q 259 361 239 382 q 279 312 279 341 l 275 284 q 337 355 308 333 q 409 382 372 382 q 464 359 446 382 q 482 305 482 337 "},"Е":{"x_min":150,"x_max":845,"ha":756,"o":"m 558 579 q 668 562 628 579 q 709 515 709 545 q 658 483 709 483 q 579 499 622 483 q 504 552 536 516 q 352 429 410 518 q 288 181 288 328 q 325 50 288 101 q 433 0 362 0 q 651 101 558 0 q 733 288 733 191 q 706 359 733 333 q 638 386 680 386 q 548 336 581 386 q 523 233 523 294 l 526 188 l 535 154 l 535 147 l 535 143 l 530 144 q 490 195 510 158 q 474 270 474 233 q 507 361 474 323 q 624 403 547 403 q 748 288 748 403 q 664 85 748 180 q 435 -17 572 -17 q 215 59 291 -17 q 150 230 150 127 q 239 456 150 360 q 485 574 329 552 l 474 600 l 426 600 q 268 627 329 600 q 185 738 185 663 q 273 898 185 836 q 486 960 361 960 l 500 955 l 490 951 q 304 891 366 939 q 242 754 242 844 q 318 640 242 674 q 453 615 372 615 l 467 615 l 455 642 l 455 669 q 529 834 455 763 q 733 906 604 906 q 817 884 790 906 q 845 826 845 862 q 792 708 845 765 q 641 623 734 645 l 558 609 l 558 579 m 563 562 q 602 514 575 528 q 657 500 629 500 q 691 516 691 500 q 657 545 691 528 q 586 562 624 562 l 563 562 m 627 636 q 774 718 715 657 q 827 825 827 773 q 806 869 827 850 q 787 881 800 874 q 753 888 774 888 q 618 819 678 888 q 555 623 555 743 l 627 636 "},"Э":{"x_min":101,"x_max":848,"ha":776,"o":"m 510 548 q 546 527 534 548 q 570 502 553 511 q 607 493 586 493 q 663 502 635 493 q 685 515 674 505 l 692 515 l 689 508 q 629 476 677 498 q 600 465 624 473 q 560 458 577 458 q 518 481 534 458 q 498 499 513 493 q 456 508 482 505 l 420 504 l 382 493 l 374 493 l 370 493 l 379 501 l 438 528 q 510 548 488 548 m 101 179 q 146 324 101 268 q 269 380 191 380 q 359 352 325 380 q 394 278 394 325 q 365 203 394 239 q 282 154 336 167 l 278 154 l 283 161 q 332 216 312 180 q 352 283 352 251 q 334 342 352 322 q 271 363 317 363 q 167 310 209 363 q 125 182 125 257 q 170 57 125 106 q 308 8 216 8 q 603 211 471 8 q 727 626 727 406 q 688 835 727 777 q 571 893 650 893 q 401 835 467 893 q 336 695 336 778 q 352 644 336 664 q 394 624 369 624 q 467 660 431 624 q 509 773 509 704 q 514 787 509 782 l 514 787 l 520 774 q 477 649 520 699 q 374 600 435 600 q 309 624 338 600 q 283 689 283 651 q 367 849 283 781 q 575 917 452 917 q 778 823 709 917 q 848 570 848 729 q 682 167 848 349 q 310 -14 517 -14 q 153 40 206 -14 q 101 179 101 95 "},"ю":{"x_min":-8.328125,"x_max":748.609375,"ha":733,"o":"m 156 0 l 41 0 l 212 325 q 223 363 220 344 q 198 391 223 391 q 147 360 176 391 q 69 265 118 330 l 12 183 l 0 175 l -4 174 l -8 178 l -2 192 l 54 278 q 140 382 106 351 q 173 405 155 397 q 219 414 191 414 q 275 388 252 414 q 298 333 298 362 q 276 244 298 288 l 260 215 l 334 215 q 438 349 360 291 q 597 408 516 408 q 677 377 651 408 q 700 303 700 351 q 675 192 700 255 q 622 100 650 129 q 676 122 651 104 q 731 193 701 141 l 738 200 l 748 194 q 743 177 745 180 q 681 105 719 131 q 611 78 654 87 q 540 12 572 31 q 454 -13 498 -13 q 357 31 394 -13 q 320 143 320 75 l 322 170 l 326 194 l 253 193 l 156 0 m 668 317 q 655 370 668 349 q 613 391 643 391 q 524 328 573 391 q 462 220 495 291 l 431 138 q 420 63 420 94 q 431 21 420 38 q 463 4 441 4 q 565 53 516 4 q 636 174 601 94 l 656 238 q 668 317 668 282 "},"á":{"x_min":-15.28125,"x_max":1002.78125,"ha":515,"o":"m 90 -6 q 12 26 44 -6 q -15 116 -15 61 q 70 315 -15 225 q 294 409 162 409 q 345 393 326 409 q 365 354 363 377 l 469 551 l 616 838 q 672 897 637 880 q 756 915 706 915 q 795 915 776 915 q 827 909 818 911 l 940 897 q 998 911 979 897 l 1002 912 l 998 901 q 945 865 975 880 q 918 856 927 858 q 897 854 909 854 q 831 869 870 854 q 805 877 825 872 q 777 884 786 883 q 747 873 759 884 q 720 836 736 866 q 648 694 698 787 l 534 476 l 419 240 q 284 54 363 118 q 90 -6 204 -8 m 352 343 q 341 377 352 361 q 308 393 330 393 q 240 366 272 393 q 145 233 197 330 q 85 101 106 152 q 63 31 63 50 q 87 6 63 6 q 211 84 147 6 q 241 127 225 102 q 265 165 254 147 l 308 243 l 350 329 l 352 343 m 259 51 q 441 136 345 90 q 516 193 494 162 q 547 195 550 220 q 468 126 522 158 q 201 11 298 40 l 259 51 "},"×":{"x_min":5,"x_max":1027.21875,"ha":864,"o":"m 870 197 l 874 190 q 867 169 874 180 q 785 53 806 77 q 666 -6 729 -6 q 579 19 611 -6 q 548 102 548 45 q 549 139 548 126 q 556 176 550 152 q 572 227 563 201 q 593 284 581 254 q 611 332 603 314 q 629 365 615 341 l 701 498 q 631 417 664 451 q 560 356 598 383 q 431 308 491 308 q 341 337 374 308 q 312 420 312 366 q 334 520 312 467 q 377 601 346 555 l 413 655 q 459 738 442 699 q 475 809 475 776 q 446 870 475 845 q 411 887 431 881 q 356 893 391 893 q 110 794 204 893 q 23 591 23 704 q 120 490 23 490 q 253 590 196 490 q 299 756 299 674 l 299 777 l 299 788 l 299 794 l 299 794 l 304 789 l 315 773 l 325 727 l 328 688 q 278 538 328 596 q 116 472 221 472 q 5 594 5 472 q 96 805 5 709 q 359 910 199 910 q 527 854 471 910 q 573 734 573 808 q 559 659 573 696 q 517 579 546 622 l 456 491 q 405 369 405 409 q 446 332 405 332 q 629 447 519 332 q 748 602 704 526 l 817 729 q 862 812 845 780 q 895 880 870 827 l 1027 891 l 911 662 l 766 377 l 682 215 q 634 64 634 113 q 682 16 634 16 q 754 50 716 16 q 853 181 792 84 l 863 192 l 870 197 "},"п":{"x_min":-12,"x_max":621.328125,"ha":610,"o":"m 262 237 l 140 0 l 31 0 l 207 332 l 218 355 l 225 377 q 211 390 225 390 q 92 288 175 390 q 3 170 51 240 l -5 164 l -12 172 l -6 183 l 72 297 q 217 411 161 411 q 285 384 267 411 q 297 327 297 365 l 294 306 q 364 380 328 349 q 435 411 400 411 q 485 388 467 411 q 504 326 504 365 q 493 259 504 293 q 453 186 482 224 q 404 109 424 147 q 384 46 384 71 q 424 14 384 14 q 522 76 464 14 q 600 182 554 112 l 615 194 l 621 187 l 615 173 q 497 25 546 65 q 415 -8 457 -8 q 336 11 360 -8 q 313 83 313 30 q 326 147 313 108 q 368 238 339 186 l 419 320 q 443 371 440 353 q 421 390 443 388 q 337 334 392 390 q 262 237 283 278 "},"K":{"x_min":7,"x_max":1192.890625,"ha":1008,"o":"m 195 -15 q 59 21 111 -15 q 7 116 7 57 q 31 181 7 158 q 87 204 56 204 q 138 184 119 204 q 158 123 158 167 q 132 68 158 92 q 65 44 106 44 q 111 13 80 26 q 180 4 143 4 q 327 95 260 4 q 409 262 362 144 q 445 361 427 311 q 462 399 451 374 q 537 568 494 479 q 587 647 557 608 l 663 737 q 581 696 636 718 q 483 675 527 675 q 413 729 413 675 l 420 756 l 420 780 q 399 800 420 797 q 329 758 374 800 q 265 680 297 729 l 251 663 l 247 661 l 248 668 l 255 683 q 354 793 295 753 q 457 833 412 833 q 491 821 480 833 q 503 767 503 809 q 509 722 503 736 q 537 708 515 709 q 633 737 576 708 q 748 836 699 772 q 767 848 756 848 q 777 841 771 847 q 779 838 777 840 l 774 827 q 742 775 763 809 q 717 730 727 748 l 681 636 l 609 425 q 525 221 557 277 q 387 54 471 116 q 195 -15 294 -15 m 1170 861 q 1187 855 1181 861 l 1192 855 l 1185 851 l 1149 846 q 1123 843 1133 846 q 1095 832 1113 840 q 1053 802 1070 823 q 1009 719 1037 780 l 976 645 q 870 509 934 560 q 779 460 834 480 q 793 417 787 445 q 800 358 800 390 l 806 233 q 806 147 806 200 q 806 76 806 94 q 839 17 806 17 q 961 116 879 17 q 983 145 965 122 q 1009 181 1000 167 q 1025 197 1018 195 l 1029 191 q 1019 170 1029 181 l 947 70 q 814 -8 878 -8 q 701 19 739 -8 q 663 119 663 47 q 675 212 663 159 l 693 288 l 720 394 q 732 454 729 424 q 652 491 652 454 q 682 515 652 515 q 725 507 701 515 q 767 480 750 499 q 837 554 799 498 l 890 641 q 990 791 959 761 q 1170 861 1059 861 m 683 501 q 667 489 667 501 q 683 473 667 481 q 719 465 700 465 l 732 465 q 719 487 732 477 q 683 501 707 498 "},"7":{"x_min":-4,"x_max":415.453125,"ha":351,"o":"m 51 440 l 46 447 l 51 459 l 102 574 l 111 585 l 116 590 l 122 580 l 119 569 l 105 537 l 164 561 q 219 572 194 572 q 246 569 239 572 l 266 561 l 298 550 l 337 547 q 362 547 350 547 q 380 552 375 551 l 396 575 l 404 583 l 409 586 l 415 577 l 411 568 l 321 426 q 173 171 230 282 q 96 -45 96 18 l 96 -101 q 77 -115 96 -113 q 27 -98 47 -115 q -4 0 -4 -70 q 114 225 -4 80 l 369 529 l 326 498 q 265 479 291 479 q 234 484 248 479 q 197 502 219 488 l 161 522 q 129 529 150 526 l 96 520 l 65 456 q 58 444 64 448 l 51 440 "}}}
